<svg id="Layer_1" data-name="Layer 1" xmlns="http://www.w3.org/2000/svg" viewBox="0 0 1079.94937 1080"><defs><style>.cls-1{fill:#d32b3b;}.cls-2{fill:#fff;}</style></defs><rect class="cls-1" width="1079.94937" height="1080"/><polygon class="cls-2" points="150.781 142.037 151.106 142.037 151.106 308.729 187.704 308.729 187.704 90.978 158.476 90.978 124.763 130.477 124.763 168.692 125.084 168.692 150.781 142.037"/><path class="cls-2" d="M831.451,515.25882A29.88639,29.88639,0,1,1,861.3702,545.162,29.91272,29.91272,0,0,1,831.451,515.25882" transform="translate(0.25674)"/><path class="cls-2" d="M896.26821,556.68833a39.83557,39.83557,0,0,1,36.18809,39.71056v82.878a11.58568,11.58568,0,0,1-23.17136,0V608.09452c0-2.665-.788-6.288-5.66633-6.288-3.372,0-4.07112,3.57632-4.19858,5.86324V821.0088a16.663,16.663,0,0,1-33.32593,0V698.0611c-.04636-1.34874-.49828-4.87522-4.7239-4.87522h-.0193c-4.24879,0-4.76638,3.52648-4.81273,4.87522V821.0088a16.64557,16.64557,0,1,1-33.29114,0V607.66973c-.10442-2.28692-.83851-5.86324-4.187-5.86324-4.90924,0-5.65441,3.623-5.65441,6.288V679.2769a11.58409,11.58409,0,1,1-23.16819,0v-82.878a39.84551,39.84551,0,0,1,36.23091-39.71056,16.57777,16.57777,0,0,1,2.18622-.18195h65.33859a17.84637,17.84637,0,0,1,2.27507.18195" transform="translate(0.25674)"/><path class="cls-2" d="M653.6584,530.95952a28.30446,28.30446,0,1,0-28.28548,28.31237,28.31205,28.31205,0,0,0,28.28548-28.31237" transform="translate(0.25674)"/><path class="cls-2" d="M568.3234,595.09366,544.789,671.70657s-4.19493,14.04425,7.71745,17.55571c11.86175,3.51462,15.45785-10.20925,15.45785-10.20925l18.98039-63.93638s1.02757-4.92506,4.732-3.85478c3.69656,1.06238,2.3059,6.31493,2.3059,6.31493L560.95005,737.40857h30.72664v85.83336a14.74117,14.74117,0,0,0,29.48233,0V737.40857h8.38193v85.83336a14.76058,14.76058,0,0,0,29.52109,0V737.40857h30.69975L656.75218,617.5768s-1.3867-5.25255,2.30986-6.31493c3.69656-1.07028,4.732,3.85478,4.732,3.85478L682.75865,679.053s3.61192,13.72387,15.45389,10.20925c11.93137-3.51146,7.72141-17.55571,7.72141-17.55571l-23.53444-76.61291s-8.40883-22.14457-27.034-22.14457H595.37325c-18.622,0-27.04985,22.14457-27.04985,22.14457" transform="translate(0.25674)"/><path class="cls-2" d="M484.09349,530.95952a28.30881,28.30881,0,1,0-28.29733,28.31237,28.32976,28.32976,0,0,0,28.29733-28.31237" transform="translate(0.25674)"/><path class="cls-2" d="M398.74663,595.09366,375.2201,671.70657s-4.20283,14.04425,7.71745,17.55571c11.84593,3.51462,15.442-10.20925,15.442-10.20925l18.98434-63.93638s1.02757-4.92506,4.72809-3.85478c3.70369,1.06238,2.298,6.31493,2.298,6.31493L391.37724,737.40857H422.092v85.83336a14.75107,14.75107,0,0,0,29.5021,0V737.40857h8.38115v85.83336a14.75107,14.75107,0,0,0,29.5021,0V737.40857h30.71873L487.19519,617.5768s-1.40253-5.25255,2.28217-6.31493c3.69261-1.07028,4.74,3.85478,4.74,3.85478L513.174,679.053s3.61192,13.72387,15.45785,10.20925c11.93136-3.51146,7.71745-17.55571,7.71745-17.55571l-23.53444-76.61291s-8.393-22.14457-27.02217-22.14457h-59.997c-18.61334,0-27.04907,22.14457-27.04907,22.14457" transform="translate(0.25674)"/><path class="cls-2" d="M748.74226,689.41654a23.5653,23.5653,0,1,0-23.5653-23.589,23.55342,23.55342,0,0,0,23.5653,23.589" transform="translate(0.25674)"/><path class="cls-2" d="M692.24172,762.62716c-1.151,2.74968-2.08995,8.59,3.43314,11.13952,6.49687,2.98937,10.10088-3.29076,10.10088-3.29076l12.8118-40.85441s2.22522-2.72674,2.22522.0965v96.181h.0617a12.086,12.086,0,0,0,24.172,0V787.94224s-.69533-5.36567,3.61508-5.36567c4.33336,0,3.66571,5.36567,3.66571,5.36567v37.95682a12.11651,12.11651,0,0,0,24.23294,0V729.718c0-2.82324,1.49112-.8037,1.49112-.8037l10.04235,27.973s4.361,12.50645,5.69791,13.05544a8.9349,8.9349,0,0,0,11.67981-4.83646,8.79063,8.79063,0,0,0-.958-8.59789l.07752-.08069c-.28556-.91208-14.99825-37.0036-16.72906-42.06709-5.31425-15.5156-14.98639-15.38429-24.30255-15.639-9.32407-.23177-14.89779,0-14.89779,0s-5.94867-.25155-18.24313.12341c-12.28259.37812-16.16425,6.67011-29.69907,41.526-1.931,5.01761-8.47765,21.26334-8.56308,22.22842Z" transform="translate(0.25674)"/><path class="cls-2" d="M231.24794,515.25882A29.89209,29.89209,0,1,0,201.325,545.162a29.92086,29.92086,0,0,0,29.92294-29.90316" transform="translate(0.25674)"/><path class="cls-2" d="M166.41926,556.68833a39.86077,39.86077,0,0,0-36.1999,39.71056v82.878a11.59913,11.59913,0,0,0,23.19825,0V608.09452c0-2.665.77681-6.288,5.65124-6.288,3.37144,0,4.07864,3.57632,4.21786,5.86324V821.0088a16.64561,16.64561,0,1,0,33.29122,0V698.0611c.06961-1.34874.51339-4.87839,4.74707-4.87839h.015c4.24555,0,4.7629,3.52965,4.80166,4.87839V821.0088a16.64719,16.64719,0,1,0,33.29438,0V607.66973c.10047-2.28692.8575-5.86324,4.19493-5.86324,4.90923,0,5.64728,3.623,5.64728,6.288V679.2769a11.59161,11.59161,0,0,0,23.18322,0v-82.878a39.84515,39.84515,0,0,0-36.2268-39.71056,16.75936,16.75936,0,0,0-2.1904-.18195H168.70222a17.85059,17.85059,0,0,0-2.283.18195" transform="translate(0.25674)"/><path class="cls-2" d="M113.7996,833.21862a1.13777,1.13777,0,0,1-.21991-.019,1.17273,1.17273,0,0,1-.935-1.37563l26.54754-140.71937a1.17725,1.17725,0,0,1,2.31381.43587L114.95453,832.26066A1.17424,1.17424,0,0,1,113.7996,833.21862Z" transform="translate(0.25674)"/><path class="cls-2" d="M286.65605,677.0675a8.58021,8.58021,0,0,0-15.85575,4.53507,15.6427,15.6427,0,0,0,.83772,3.7733l23.75119,42.98629a15.21035,15.21035,0,0,1,1.46343,5.67814v92.31836h.03481a11.6011,11.6011,0,1,0,23.2022,0V789.91591s-.65261-5.14893,3.51146-5.14893c4.14825,0,3.49168,5.14893,3.49168,5.14893v36.44275a11.632,11.632,0,0,0,23.26391,0V734.0403a15.422,15.422,0,0,1,1.43733-5.67814l21.9658-39.69158s2.68085-5.69317,2.68085-7.068a8.58021,8.58021,0,0,0-15.85574-4.53507l-.10047-.04588c-.69137.59091-11.68772,20.178-15.31467,23.801-3.84765,3.87375-7.27368,3.449-7.27368,3.449H309.337s-3.46083.42479-7.27684-3.449c-3.67758-3.623-14.63517-23.21012-15.3305-23.801Z" transform="translate(0.25674)"/><path class="cls-2" d="M323.60111,689.41654a23.5653,23.5653,0,1,0-23.55343-23.589,23.54685,23.54685,0,0,0,23.55343,23.589" transform="translate(0.25674)"/><polygon class="cls-2" points="323.897 722.491 350.529 741.92 363.186 788.521 323.897 788.521 284.572 788.521 297.257 741.92 323.897 722.491"/><path class="cls-2" d="M310.33367,89.39861h35.41122V101.508h-20.572v25.25338h14.71269v11.97725H325.17292v26.81729h20.572v12.10539H310.33367Z" transform="translate(0.25674)"/><path class="cls-2" d="M369.82753,137.17785v40.48342H354.98828V89.39861h21.61061c14.97136,0,20.43671,7.424,20.43671,19.792v11.32464c0,9.502-3.38331,15.09871-11.84673,17.05339l14.19139,40.09264h-15.624Zm0-35.66989V128.9739h4.948c5.07931,0,7.29266-2.59938,7.29266-7.28791V108.66851c0-4.81589-2.21335-7.16055-7.29266-7.16055Z" transform="translate(0.25674)"/><path class="cls-2" d="M421.12614,137.17785v40.48342h-14.84V89.39861h21.60745c14.97136,0,20.44066,7.424,20.44066,19.792v11.32464c0,9.502-3.38806,15.09871-11.84672,17.05339l14.18743,40.09264h-15.62Zm0-35.66989V128.9739h4.94405c5.07931,0,7.29266-2.59938,7.29266-7.28791V108.66851c0-4.81589-2.21335-7.16055-7.29266-7.16055Z" transform="translate(0.25674)"/><path class="cls-2" d="M455.36741,177.66127l16.66341-88.26266h16.92524l16.79472,88.26266h-15.234L487.7861,161.52H472.03082l-2.60334,16.14132Zm18.61729-27.988h11.84672L479.97214,114.266h-.13132Z" transform="translate(0.25674)"/><path class="cls-2" d="M557.56674,113.09521v40.87736c0,13.538-5.6014,23.6887-21.48009,23.6887H513.174V89.39861h22.91268C551.96534,89.39861,557.56674,99.42592,557.56674,113.09521Zm-23.30662,52.46067c6.12191,0,8.46262-3.642,8.46262-8.98393V110.36056c0-5.20667-2.34071-8.8526-8.46262-8.8526H528.014v64.04792Z" transform="translate(0.25674)"/><path class="cls-2" d="M567.33459,89.39861h14.84v88.26266h-14.84Z" transform="translate(0.25674)"/><path class="cls-2" d="M591.93932,154.88386V112.18393c0-13.80061,6.50794-23.824,22.128-23.824,16.40473,0,20.962,9.11128,20.962,22.13192v10.41334H621.4873V109.318c0-5.46534-1.81941-8.59077-7.15739-8.59077s-7.55134,3.77409-7.55134,9.11207v47.38531c0,5.34194,2.21335,9.11207,7.55134,9.11207s7.15739-3.3841,7.15739-8.59077V141.47324h13.54194v15.23c0,12.63065-5.21063,22.00139-20.962,22.00139C598.44726,178.70466,591.93932,168.55,591.93932,154.88386Z" transform="translate(0.25674)"/><path class="cls-2" d="M642.06323,177.66127l16.66261-88.26266h16.926l16.79393,88.26266h-15.2332L674.478,161.52H658.72584l-2.60333,16.14132Zm18.61729-27.988h11.84277L666.66717,114.266h-.13132Z" transform="translate(0.25674)"/><path class="cls-2" d="M715.61716,186.646c4.168-.12736,4.81669-1.03943,4.81669-2.082,0-.90813-.78-1.43338-2.082-1.43338h-.64866v-4.81669c-12.63065-1.55994-17.83732-11.066-17.83732-23.43V112.18393c0-13.80061,6.50874-23.824,22.12875-23.824,16.404,0,20.962,9.11128,20.962,22.13192v10.41334h-13.538V109.318c0-5.46534-1.82336-8.59077-7.16135-8.59077s-7.55134,3.77409-7.55134,9.11207v47.38531c0,5.34194,2.21335,9.11207,7.55134,9.11207s7.16135-3.3841,7.16135-8.59077V141.47324h13.538v15.23c0,12.368-4.948,21.4793-19.65673,22.00139v1.17391c3.51541.51735,5.46534,1.81941,5.46534,4.68538,0,4.03592-3.77329,6.24927-13.148,6.24927Z" transform="translate(0.25674)"/><path class="cls-2" d="M749.99053,177.66127l16.66262-88.26266h16.92524l16.79472,88.26266h-15.234L782.40843,161.52H766.65315l-2.60334,16.14132ZM761.57779,85.884c.25867-6.11875,2.60333-11.06279,9.11207-11.06279,3.77725,0,6.90189,2.20939,8.85261,2.20939a1.745,1.745,0,0,0,1.82336-1.95072h7.28792c-.25867,6.11875-2.60334,11.06675-9.11128,11.06675-3.77409,0-6.89872-2.21335-8.85261-2.21335a1.74568,1.74568,0,0,0-1.81941,1.95072Zm7.03,63.78925h11.84593L774.59447,114.266h-.12736Z" transform="translate(0.25674)"/><path class="cls-2" d="M807.79313,154.88386V112.18393c0-13.80061,6.77058-23.824,22.391-23.824,15.75528,0,22.52245,10.02336,22.52245,23.824v42.69993c0,13.66613-6.76717,23.8208-22.52245,23.8208C814.56371,178.70466,807.79313,168.55,807.79313,154.88386Zm30.07356,2.34071V109.83926c0-5.338-2.34071-9.11207-7.68257-9.11207-5.20675,0-7.54778,3.77409-7.54778,9.11207v47.38531c0,5.34194,2.341,9.11207,7.54778,9.11207C835.526,166.33664,837.86669,162.56651,837.86669,157.22457Z" transform="translate(0.25674)"/><path class="cls-2" d="M354.72565,243.67969v40.87736c0,13.538-5.59745,23.69265-21.48009,23.69265H310.33367V219.987h22.91189C349.1282,219.987,354.72565,230.01039,354.72565,243.67969ZM331.423,296.1451c6.118,0,8.46263-3.64673,8.46263-8.98472V240.945c0-5.20667-2.34467-8.85261-8.46263-8.85261h-6.25006V296.1451Z" transform="translate(0.25674)"/><path class="cls-2" d="M362.14884,308.2497l16.6634-88.26266h16.92525l16.79472,88.26266h-15.234l-2.73465-16.14527H378.81224l-2.60333,16.14527Zm18.61413-27.988h11.84988l-5.85928-35.40727h-.13132Z" transform="translate(0.25674)"/><path class="cls-2" d="M434.92675,219.987h22.0014c14.97135,0,20.4367,7.42,20.4367,19.788v18.61334c0,12.368-5.46535,19.91935-20.4367,19.91935H449.7668V308.2497h-14.84Zm14.84,12.10539V266.851h5.46534c5.07931,0,7.29266-2.472,7.29266-7.28871V239.25378c0-4.81669-2.21335-7.16135-7.29266-7.16135Z" transform="translate(0.25674)"/><path class="cls-2" d="M486.35272,285.46833V242.7684c0-13.80061,6.77137-23.824,22.39138-23.824,15.75133,0,22.52191,10.02335,22.52191,23.824v42.69993c0,13.67009-6.77058,23.82476-22.52191,23.82476C493.12409,309.29309,486.35272,299.13842,486.35272,285.46833Zm30.074,2.34071v-47.3853c0-5.334-2.34466-9.11207-7.68265-9.11207-5.20667,0-7.55133,3.778-7.55133,9.11207V287.809c0,5.34194,2.34466,9.116,7.55133,9.116C514.08209,296.92507,516.42675,293.151,516.42675,287.809Z" transform="translate(0.25674)"/><path class="cls-2" d="M541.03069,219.987H562.514c14.84,0,19.78409,6.89872,19.78409,19.398v8.98c0,7.424-2.7307,12.10935-8.85261,14.06007,7.424,1.69521,11.066,6.64321,11.066,14.70794v11.71936c0,12.49538-5.59666,19.39727-20.43671,19.39727h-23.044Zm14.844,37.23142h5.20667c4.81669,0,7.03-2.472,7.03-7.16135V239.25378c0-4.81669-2.21335-7.16135-7.16135-7.16135h-5.07536Zm0,11.32858V296.1451h6.50794c4.94405,0,7.28871-2.476,7.28871-7.16135V275.70444c0-4.68537-2.21335-7.1574-7.42-7.1574Z" transform="translate(0.25674)"/><path class="cls-2" d="M608.08064,267.76312V308.2497H593.24059V219.987H614.852c14.96661,0,20.4367,7.42,20.4367,19.788v11.32463c0,9.50206-3.3841,15.09872-11.84672,17.05735l14.19059,40.09264h-15.624Zm0-35.67069v27.4699h4.948c5.07536,0,7.28871-2.60333,7.28871-7.28792V239.25378c0-4.81669-2.21335-7.16135-7.28871-7.16135Z" transform="translate(0.25674)"/><path class="cls-2" d="M644.66656,219.987h35.412v12.10539h-20.572v25.25734H674.2185V269.327H659.50661V296.1451h20.572v12.1046h-35.412Z" transform="translate(0.25674)"/><path class="cls-2" d="M703.77123,296.1451h22.5219v12.1046H688.27857V296.1451l23.30267-64.05267h-20.958V219.987h36.582v12.10539Z" transform="translate(0.25674)"/><path class="cls-2" d="M733.97578,308.2497,750.63919,219.987h16.92524l16.79472,88.26266h-15.234l-2.7307-16.14527H750.63919l-2.59938,16.14527Zm18.61809-27.988H764.4398l-5.85929-35.40727h-.12736Z" transform="translate(0.25674)"/></svg>