<svg id="Layer_1" data-name="Layer 1" xmlns="http://www.w3.org/2000/svg" viewBox="0 0 1079.9731 1080"><defs><style>.cls-1{fill:#cd2363;}.cls-2{fill:#fff;}</style></defs><rect class="cls-1" width="1079.9731" height="1080"/><polygon class="cls-2" points="104.194 141.507 104.194 308.36 140.842 308.36 140.842 90.389 111.579 90.389 77.836 129.93 77.836 168.205 78.144 168.205 103.854 141.507 104.194 141.507"/><path class="cls-2" d="M274.31275,252.109V146.64383c0-34.07972-17.03472-58.82729-54.33169-58.82729-36.96472,0-54.02238,24.74757-54.02238,58.82729V252.109c0,33.74747,17.05766,58.82334,54.02238,58.82334,37.297,0,54.33169-25.07587,54.33169-58.82334m-71.68988,5.78978V140.862c0-13.17987,4.81275-22.51124,17.35819-22.51124,12.85475,0,17.67548,9.33137,17.67548,22.51124V257.89874c0,13.183-4.82073,22.48434-17.67548,22.48434-12.54544,0-17.35819-9.3013-17.35819-22.48434" transform="translate(0.2686)"/><path class="cls-2" d="M651.226,713.42364H435.35232a2.35221,2.35221,0,0,0-2.34858,2.34787V764.6876a2.344,2.344,0,0,0,2.34858,2.35657H651.226a2.34286,2.34286,0,0,0,2.36361-2.35657V715.77151a2.351,2.351,0,0,0-2.36361-2.34787" transform="translate(0.2686)"/><path class="cls-2" d="M653.59751,623.79557a2.35289,2.35289,0,0,0-2.37152-2.34866H435.35232a2.34731,2.34731,0,0,0-2.34858,2.34866v48.93112a2.34563,2.34563,0,0,0,2.34858,2.34075H651.226a2.35126,2.35126,0,0,0,2.37152-2.34075Z" transform="translate(0.2686)"/><path class="cls-2" d="M778.49822,642.93847a249.31379,249.31379,0,0,0-46.289-94.42507l-.47938.371a232.6937,232.6937,0,0,1,18.44043,32.76973,228.47191,228.47191,0,0,1,18.919,173.926C733.63,877.15915,606.34186,946.97192,484.77081,911.5284a228.267,228.267,0,0,1-121.85046-86.221,215.92383,215.92383,0,0,1-39.19-80.62025C294.87719,628.678,365.50079,511.23146,481.51788,482.36246c71.75166-17.85268,143.936,2.50292,195.48635,47.99687.46356.409.90427.82666,1.37565,1.23564a7.8391,7.8391,0,0,0,10.321-.31642l.86463-.8496,27.4712-27.131,1.80758-1.77673a8.242,8.242,0,0,0,1.76169-4.89034,8.34685,8.34685,0,0,0-2.21735-5.56987c-.28557-.26263-.58688-.52526-.88045-.78C654.107,433.62437,564.80322,408.1775,476.05639,430.256c-142.50657,35.45854-229.26855,179.74264-193.818,322.24922a264.69807,264.69807,0,0,0,93.79933,144.8323A250.8491,250.8491,0,0,0,595.71237,946.8406c134.395-33.44213,216.22877-169.49918,182.78585-303.90213" transform="translate(0.2686)"/><path class="cls-2" d="M359.54489,138.7878v41.117h-15.0721V90.26171h21.9473c15.21124,0,20.75745,7.53565,20.75745,20.09692v11.50678c0,9.64858-3.43724,15.33077-12.02817,17.31634l14.41552,40.72306H373.697Zm0-36.23141v27.89916h5.02878c5.15305,0,7.40117-2.64531,7.40117-7.40434v-13.2218c0-4.89351-2.24812-7.273-7.40117-7.273Z" transform="translate(0.2686)"/><path class="cls-2" d="M396.5642,90.26171h35.96087v12.29468H411.6355v25.65175h14.94078v12.16337H411.6355v27.23466h20.88957v12.29864H396.5642Z" transform="translate(0.2686)"/><path class="cls-2" d="M486.99519,114.3258v41.51492c0,13.751-5.68536,24.06409-21.81589,24.06409H441.91109V90.26171H465.1793C481.30983,90.26171,486.99519,100.44346,486.99519,114.3258ZM463.333,167.60617c6.21134,0,8.59006-3.70375,8.59006-9.12331V111.54839c0-5.28825-2.37872-8.992-8.59006-8.992h-6.34993v65.04978Z" transform="translate(0.2686)"/><path class="cls-2" d="M540.67742,90.26171v67.8272c0,13.88234-5.9559,22.87434-21.29063,22.87434-15.86711,0-22.48039-8.992-22.48039-22.87434V90.26171h15.08V159.5413c0,5.29141,2.10905,8.86068,7.40038,8.86068,5.2922,0,7.40117-3.56927,7.40117-8.86068V90.26171Z" transform="translate(0.2686)"/><path class="cls-2" d="M566.58785,189.02812c4.22585-.13131,4.89035-1.0616,4.89035-2.11609,0-.92317-.7879-1.45239-2.11688-1.45239h-.6645v-4.89429c-12.8239-1.58767-18.11531-11.2402-18.11531-23.80147v-43.3652c0-14.01366,6.61249-24.19541,22.48039-24.19541,16.66292,0,21.29063,9.25463,21.29063,22.47643v10.57966h-13.751V110.49c0-5.554-1.85425-8.72541-7.277-8.72541-5.4156,0-7.6638,3.83506-7.6638,9.25463V159.1434c0,5.42272,2.2482,9.25858,7.6638,9.25858,5.42273,0,7.277-3.438,7.277-8.72541V143.14813h13.751v15.47c0,12.56127-5.02166,21.8159-19.96165,22.34512V182.153c3.56848.52922,5.54614,1.85424,5.54614,4.759,0,4.0977-3.83111,6.3459-13.34917,6.3459Z" transform="translate(0.2686)"/><path class="cls-2" d="M601.49028,179.90481l16.91843-89.6431h17.189l17.05687,89.6431H637.1814L634.408,163.50848H618.40871l-2.64214,16.39633Zm11.76546-93.21237c.26342-6.21458,2.64215-11.24019,9.25542-11.24019,3.83111,0,7.00643,2.24819,8.992,2.24819a1.7696,1.7696,0,0,0,1.84633-1.98161h7.4083c-.26264,6.21142-2.64927,11.23624-9.25463,11.23624-3.83982,0-7.00714-2.24819-8.992-2.24819a1.77647,1.77647,0,0,0-1.85425,1.98556Zm7.13854,64.78715h12.02818l-5.94879-35.964h-.1314Z" transform="translate(0.2686)"/><path class="cls-2" d="M660.18705,156.76388v-43.3652c0-14.01366,6.87512-24.19541,22.743-24.19541,15.99843,0,22.87434,10.18175,22.87434,24.19541v43.3652c0,13.8863-6.87591,24.19937-22.87434,24.19937C667.06217,180.96325,660.18705,170.65018,660.18705,156.76388Zm30.53735,2.37952V111.01917c0-5.41957-2.37951-9.25463-7.79433-9.25463-5.2922,0-7.67163,3.83506-7.67163,9.25463V159.1434c0,5.42272,2.37943,9.25858,7.67163,9.25858C688.34489,168.402,690.7244,164.56612,690.7244,159.1434Z" transform="translate(0.2686)"/><path class="cls-2" d="M776.00321,114.3258v41.51492c0,13.751-5.68615,24.06409-21.8159,24.06409H730.919V90.26171h23.26828C770.31706,90.26171,776.00321,100.44346,776.00321,114.3258Zm-23.67014,53.28037c6.21853,0,8.598-3.70375,8.598-9.12331V111.54839c0-5.28825-2.37951-8.992-8.598-8.992h-6.34274v65.04978Z" transform="translate(0.2686)"/><path class="cls-2" d="M783.53491,179.90481l16.92634-89.6431h17.18107l17.05687,89.6431h-15.466l-2.77346-16.39633H800.46125l-2.65,16.39633Zm18.904-28.42522h12.036l-5.94879-35.964h-.13922Z" transform="translate(0.2686)"/><path class="cls-2" d="M841.44378,160.59974v-12.032h14.01286v12.29863c0,5.02482,2.2482,7.9296,7.40117,7.9296,4.75824,0,6.87521-3.17136,6.87521-7.9296v-3.438c0-5.15693-2.117-8.33146-6.74389-12.69259l-8.85356-8.86068c-8.59805-8.46278-12.56048-13.61575-12.56048-23.92882v-3.044c0-11.10492,6.47326-19.699,21.15141-19.699,15.07209,0,21.02009,7.40434,21.02009,20.36351v7.26985H870.00347v-7.79907c0-5.15614-2.38742-7.67093-7.14566-7.67093-4.22585,0-7.13853,2.38347-7.13853,7.40434v1.85425c0,5.02166,2.77346,7.9296,7.13853,12.16336l9.65649,9.51726c8.19619,8.33146,12.15941,13.35312,12.15941,23.26829v4.36508c0,12.29863-6.61248,21.024-21.94721,21.024S841.44378,172.36916,841.44378,160.59974Z" transform="translate(0.2686)"/><path class="cls-2" d="M389.56489,242.69928V284.211c0,13.75814-5.68536,24.07121-21.82373,24.07121H344.47279V218.63518h23.26837C383.87953,218.63518,389.56489,228.81694,389.56489,242.69928ZM365.89474,295.9836c6.21142,0,8.59093-3.69979,8.59093-9.12331V239.92186c0-5.28745-2.37951-8.988-8.59093-8.988h-6.34985V295.9836Z" transform="translate(0.2686)"/><path class="cls-2" d="M399.20634,218.63518h35.96087v12.29864H414.27765v25.6478h14.94078V268.745H414.27765V295.9836h20.88956v12.29864H399.20634Z" transform="translate(0.2686)"/><path class="cls-2" d="M443.3634,288.97717v-12.036h14.01366V289.2398c0,5.02166,2.24819,7.93356,7.40829,7.93356,4.759,0,6.87512-3.17453,6.87512-7.93356v-3.438c0-5.15614-2.11609-8.33146-6.7438-12.69258l-8.86069-8.85673c-8.59092-8.46277-12.56126-13.61971-12.56126-23.93278v-3.04321c0-11.10571,6.48117-19.69981,21.15939-19.69981,15.072,0,21.02,7.40513,21.02,20.35956v7.27381h-13.751V237.411c0-5.15614-2.37872-7.667-7.13775-7.667-4.23376,0-7.13775,2.37952-7.13775,7.40434v1.84634c0,5.02561,2.77267,7.9383,7.13775,12.16731l9.65649,9.52122c8.19619,8.3283,12.15941,13.35312,12.15941,23.26512v4.36429c0,12.29863-6.61249,21.02009-21.94714,21.02009C449.3193,309.33277,443.3634,300.74263,443.3634,288.97717Z" transform="translate(0.2686)"/><path class="cls-2" d="M495.58533,218.63518h15.0721v89.64706h-15.0721Z" transform="translate(0.2686)"/><path class="cls-2" d="M543.18113,260.41668h21.42195v47.86556H553.764v-9.78781c-1.98477,6.7446-6.21853,10.83834-14.41472,10.83834-12.95521,0-18.904-10.31307-18.904-24.1875V241.77215c0-14.0097,6.74459-24.19541,22.6038-24.19541,16.66371,0,21.554,9.25463,21.554,22.47644v7.93434h-13.751v-9.1241c0-5.55009-2.11688-8.72541-7.53249-8.72541-5.42273,0-7.80216,3.83586-7.80216,9.25463v48.12423c0,5.42352,2.24812,9.26254,7.4003,9.26254,4.89825,0,7.40908-2.78058,7.40908-8.598V272.31741h-7.14566Z" transform="translate(0.2686)"/><path class="cls-2" d="M618.01477,218.63518v67.83116c0,13.88234-5.948,22.86643-21.29063,22.86643-15.86791,0-22.47248-8.98409-22.47248-22.86643V218.63518h15.07209v69.28355c0,5.2922,2.11609,8.86068,7.40039,8.86068,5.2922,0,7.40829-3.56848,7.40829-8.86068V218.63518Z" transform="translate(0.2686)"/><path class="cls-2" d="M625.15331,308.28224,642.071,218.63518h17.189l17.05687,89.64706H660.85154l-2.78137-16.39238H642.071l-2.64215,16.39238Zm18.9032-28.42838h12.036l-5.9559-35.96483h-.13131Z" transform="translate(0.2686)"/><path class="cls-2" d="M683.58665,218.63518H698.658V295.9836h17.9847v12.29864H683.58665Z" transform="translate(0.2686)"/><path class="cls-2" d="M769.65336,242.69928V284.211c0,13.75814-5.68615,24.07121-21.81669,24.07121H724.56839V218.63518h23.26828C763.96721,218.63518,769.65336,228.81694,769.65336,242.69928Zm-23.663,53.28432c6.21142,0,8.59093-3.69979,8.59093-9.12331V239.92186c0-5.28745-2.37951-8.988-8.59093-8.988h-6.34985V295.9836Z" transform="translate(0.2686)"/><path class="cls-2" d="M776.92242,308.28224l16.92635-89.64706H811.037l17.04975,89.64706h-15.466l-2.77346-16.39238H793.84877l-2.65006,16.39238Zm18.904-28.42838h12.03521l-5.948-35.96483h-.13132Z" transform="translate(0.2686)"/><path class="cls-2" d="M880.44,242.69928V284.211c0,13.75814-5.67745,24.07121-21.8159,24.07121H835.35577V218.63518h23.26828C874.7625,218.63518,880.44,228.81694,880.44,242.69928ZM856.77772,295.9836c6.21141,0,8.59092-3.69979,8.59092-9.12331V239.92186c0-5.28745-2.37951-8.988-8.59092-8.988h-6.34986V295.9836Z" transform="translate(0.2686)"/><path class="cls-2" d="M890.08932,218.63518h35.968v12.29864H905.16062v25.6478H920.1014V268.745H905.16062V295.9836h20.89669v12.29864h-35.968Z" transform="translate(0.2686)"/><path class="cls-2" d="M934.24638,288.97717v-12.036H948.26V289.2398c0,5.02166,2.24829,7.93356,7.40829,7.93356,4.759,0,6.87512-3.17453,6.87512-7.93356v-3.438c0-5.15614-2.11609-8.33146-6.7438-12.69258l-8.86068-8.85673c-8.59014-8.46277-12.55336-13.61971-12.55336-23.93278v-3.04321c0-11.10571,6.47326-19.69981,21.15141-19.69981,15.07219,0,21.02008,7.40513,21.02008,20.35956v7.27381h-13.751V237.411c0-5.15614-2.37872-7.667-7.13775-7.667-4.23376,0-7.13765,2.37952-7.13765,7.40434v1.84634c0,5.02561,2.77257,7.9383,7.13765,12.16731l9.65659,9.52122c8.189,8.3283,12.15931,13.35312,12.15931,23.26512v4.36429c0,12.29863-6.61249,21.02009-21.94721,21.02009S934.24638,300.74263,934.24638,288.97717Z" transform="translate(0.2686)"/></svg>