<svg id="Layer_1" data-name="Layer 1" xmlns="http://www.w3.org/2000/svg" viewBox="0 0 1079.96833 1080"><defs><style>.cls-1{fill:#ed972f;}.cls-2{fill:#fff;}</style></defs><rect class="cls-1" width="1079.96833" height="1080"/><polygon class="cls-2" points="77.383 130.034 77.383 168.239 77.7 168.239 103.393 141.579 103.718 141.579 103.718 308.281 140.327 308.281 140.327 90.512 111.095 90.512 77.383 130.034"/><polygon class="cls-2" points="160.884 130.034 160.884 168.239 161.208 168.239 186.902 141.579 187.211 141.579 187.211 308.281 223.836 308.281 223.836 90.512 194.619 90.512 160.884 130.034"/><path class="cls-2" d="M185.52362,822.21944h162.4519a4.00438,4.00438,0,0,0,3.98692-4.00195,3.94721,3.94721,0,0,0-1.05131-2.64134l-.22387-.23969-80.8285-104.56808-.78-.86463a3.95478,3.95478,0,0,0-2.94352-1.306,4.06648,4.06648,0,0,0-2.61048,1.02758l-.48729.564-.757.84959-78.85007,103.4788L182.217,815.993a3.85575,3.85575,0,0,0-.68753,2.22445,4.00589,4.00589,0,0,0,3.99414,4.00195" transform="translate(0.26622)"/><path class="cls-2" d="M347.48111,836.95918H184.71268a3.99235,3.99235,0,0,0-3.98613,3.994V968.32507a3.99963,3.99963,0,0,0,3.98613,4.00195h52.39163V892.186a3.96546,3.96546,0,0,1,3.979-3.98613h48.63727a3.9765,3.9765,0,0,1,3.98613,3.98613V972.327h53.77439a3.99972,3.99972,0,0,0,3.98692-4.00195V840.95322a3.99244,3.99244,0,0,0-3.98692-3.994" transform="translate(0.26622)"/><path class="cls-2" d="M910.05071,803.617H748.94192a3.85857,3.85857,0,0,0-3.93155,3.83188V970.12551a3.87668,3.87668,0,0,0,3.93155,3.824H910.05071a3.88547,3.88547,0,0,0,3.94737-3.824V807.44885a3.86731,3.86731,0,0,0-3.94737-3.83188M821.89862,909.82254a3.88743,3.88743,0,0,1-3.93234,3.85481h-48.127a3.8973,3.8973,0,0,1-3.95528-3.85481V880.56771a3.88986,3.88986,0,0,1,3.95528-3.83978h48.127a3.87992,3.87992,0,0,1,3.93234,3.83978Zm0-54.06787a3.87977,3.87977,0,0,1-3.93234,3.839h-48.127a3.88971,3.88971,0,0,1-3.95528-3.839V826.49905a3.88971,3.88971,0,0,1,3.95528-3.839h48.127a3.87977,3.87977,0,0,1,3.93234,3.839Zm73.5666,54.06787a3.89544,3.89544,0,0,1-3.94736,3.85481H843.39793a3.89544,3.89544,0,0,1-3.94737-3.85481V880.56771a3.888,3.888,0,0,1,3.94737-3.83978h48.11993a3.888,3.888,0,0,1,3.94736,3.83978Zm0-54.06787a3.88782,3.88782,0,0,1-3.94736,3.839H843.39793a3.88782,3.88782,0,0,1-3.94737-3.839V826.49905a3.88782,3.88782,0,0,1,3.94737-3.839h48.11993a3.88782,3.88782,0,0,1,3.94736,3.839Z" transform="translate(0.26622)"/><path class="cls-2" d="M535.55067,425.9962h-157.663a3.87069,3.87069,0,0,0-3.85481,3.87776V968.68817a3.86942,3.86942,0,0,0,3.85481,3.84769h157.663a3.88921,3.88921,0,0,0,3.87775-3.84769V429.874a3.89023,3.89023,0,0,0-3.87775-3.87776M441.76705,911.15942a2.07859,2.07859,0,0,1-2.07019,2.06229H403.597a2.07567,2.07567,0,0,1-2.07811-2.06229V870.91921A2.06241,2.06241,0,0,1,403.597,868.872h36.09983a2.06521,2.06521,0,0,1,2.07019,2.04726Zm0-92.40085a2.06491,2.06491,0,0,1-2.07019,2.07019H403.597a2.06217,2.06217,0,0,1-2.07811-2.07019V778.5492a2.0644,2.0644,0,0,1,2.07811-2.0781h36.09983a2.06715,2.06715,0,0,1,2.07019,2.0781Zm0-92.37712a2.087,2.087,0,0,1-2.07019,2.0781H403.597a2.08406,2.08406,0,0,1-2.07811-2.0781V686.14123a2.07582,2.07582,0,0,1,2.07811-2.06307h36.09983a2.07874,2.07874,0,0,1,2.07019,2.06307Zm0-92.385a2.07859,2.07859,0,0,1-2.07019,2.06229H403.597a2.07567,2.07567,0,0,1-2.07811-2.06229v-40.241a2.05719,2.05719,0,0,1,2.07811-2.04647h36.09983a2.05993,2.05993,0,0,1,2.07019,2.04647Zm0-92.37791a2.08394,2.08394,0,0,1-2.07019,2.06307H403.597a2.081,2.081,0,0,1-2.07811-2.06307V501.37828a2.079,2.079,0,0,1,2.07811-2.0781h36.09983a2.08189,2.08189,0,0,1,2.07019,2.0781Zm70.79316,369.54092a2.0774,2.0774,0,0,1-2.086,2.06229h-36.084a2.06379,2.06379,0,0,1-2.07019-2.06229V870.91921a2.05059,2.05059,0,0,1,2.07019-2.04726h36.084a2.06421,2.06421,0,0,1,2.086,2.04726Zm0-92.40085a2.06393,2.06393,0,0,1-2.086,2.07019h-36.084a2.05057,2.05057,0,0,1-2.07019-2.07019V778.5492a2.05285,2.05285,0,0,1,2.07019-2.0781h36.084a2.06615,2.06615,0,0,1,2.086,2.0781Zm0-92.37712a2.08574,2.08574,0,0,1-2.086,2.0781h-36.084a2.07221,2.07221,0,0,1-2.07019-2.0781V686.14123a2.064,2.064,0,0,1,2.07019-2.06307h36.084a2.07755,2.07755,0,0,1,2.086,2.06307Zm0-92.385a2.0774,2.0774,0,0,1-2.086,2.06229h-36.084a2.06379,2.06379,0,0,1-2.07019-2.06229v-40.241a2.04544,2.04544,0,0,1,2.07019-2.04647h36.084a2.059,2.059,0,0,1,2.086,2.04647Zm0-92.37791a2.08267,2.08267,0,0,1-2.086,2.06307h-36.084A2.069,2.069,0,0,1,472.32,541.6185V501.37828a2.06719,2.06719,0,0,1,2.07019-2.0781h36.084a2.08067,2.08067,0,0,1,2.086,2.0781Z" transform="translate(0.26622)"/><path class="cls-2" d="M913.81218,787.23974a3.23076,3.23076,0,0,1-3.23621,3.25994H748.42457a3.247,3.247,0,0,1-3.24412-3.25994V754.81753a3.24711,3.24711,0,0,1,3.24412-3.237H910.576a3.23072,3.23072,0,0,1,3.23621,3.237Z" transform="translate(0.26622)"/><path class="cls-2" d="M725.98311,527.76a4.141,4.141,0,0,0-3.95528-3.021,4.04275,4.04275,0,0,0-2.25609.74992c-.09256.06882-.193.10759-.29337.18511l-1.33621,1.68416L563.191,723.91652l-.71037.96588a4.41919,4.41919,0,0,0-1.3448,3.06692V969.49188a3.85786,3.85786,0,0,0,3.87064,3.8469H722.50721a3.84432,3.84432,0,0,0,3.85481-3.8469V529.36663a3.78485,3.78485,0,0,0-.37891-1.60664M660.75186,634.49794l1.1051-1.38276c10.59857-13.60379,28.46693-35.60463,37.1812-46.28863l1.13517-1.35983a4.51443,4.51443,0,0,1,3.46878-1.64539,4.41721,4.41721,0,0,1,4.29543,3.60721v49.72735a4.45589,4.45589,0,0,1-4.27237,4.44178c-.07685,0-.13144.03876-.20105.03876-.0617,0-.12329-.03876-.193-.03876H664.55288c-.07752,0-.13132.03876-.20093.03876s-.1234-.03876-.193-.03876a4.455,4.455,0,0,1-3.40707-7.09973M636.23229,909.79169a3.84773,3.84773,0,0,1-3.86272,3.85481h-46.984a3.84773,3.84773,0,0,1-3.86273-3.85481V880.38182a3.846,3.846,0,0,1,3.86273-3.84691h46.984a3.846,3.846,0,0,1,3.86272,3.84691Zm0-54.34633a3.85276,3.85276,0,0,1-3.86272,3.85482h-46.984a3.85276,3.85276,0,0,1-3.86273-3.85482V826.02758a3.841,3.841,0,0,1,3.86273-3.8469h46.984a3.841,3.841,0,0,1,3.86272,3.8469Zm0-54.34632a3.84891,3.84891,0,0,1-3.86272,3.839h-46.984a3.84891,3.84891,0,0,1-3.86273-3.839v-29.4249a3.84791,3.84791,0,0,1,3.86273-3.85561h46.984a3.8479,3.8479,0,0,1,3.86272,3.85561Zm.13132-119.099v64.79064a3.86236,3.86236,0,0,1-3.85482,3.86272H585.524a3.85779,3.85779,0,0,1-3.87775-3.86272v-8.14234a4.52378,4.52378,0,0,1,.29348-1.44447,3.93378,3.93378,0,0,1,.23969-.45565c.09255-.17007.22387-.34015.34015-.50944.1155-.178.29349-.40976.43983-.62572,6.00265-8.59878,33.11043-41.98687,44.49689-55.94584l1.13595-1.37486a4.53372,4.53372,0,0,1,3.46878-1.63827,4.43991,4.43991,0,0,1,4.30256,3.60009ZM708.061,909.79169a3.8606,3.8606,0,0,1-3.85482,3.85481H657.22928a3.8623,3.8623,0,0,1-3.88566-3.85481V880.38182a3.86066,3.86066,0,0,1,3.88566-3.84691h46.97685a3.85893,3.85893,0,0,1,3.85482,3.84691Zm0-54.34633a3.86571,3.86571,0,0,1-3.85482,3.85482H657.22928a3.86735,3.86735,0,0,1-3.88566-3.85482V826.02758a3.85561,3.85561,0,0,1,3.88566-3.8469h46.97685a3.85382,3.85382,0,0,1,3.85482,3.8469Zm0-54.34632a3.86189,3.86189,0,0,1-3.85482,3.839H657.22928a3.86359,3.86359,0,0,1-3.88566-3.839v-29.4249a3.86247,3.86247,0,0,1,3.88566-3.85561h46.97685a3.86077,3.86077,0,0,1,3.85482,3.85561Zm0-54.35423a3.85727,3.85727,0,0,1-3.85482,3.839H657.22928a3.859,3.859,0,0,1-3.88566-3.839V717.33493a3.85727,3.85727,0,0,1,3.88566-3.85481h46.97685a3.85551,3.85551,0,0,1,3.85482,3.85481Zm0-54.36215a3.86059,3.86059,0,0,1-3.85482,3.85481H657.22928a3.86229,3.86229,0,0,1-3.88566-3.85481v-29.417a3.869,3.869,0,0,1,3.88566-3.86273h46.97685a3.86739,3.86739,0,0,1,3.85482,3.86273Z" transform="translate(0.26622)"/><path class="cls-2" d="M295.32127,142.23579V99.53934c0-13.80155,6.50485-23.829,22.125-23.829,16.40027,0,20.95823,9.11613,20.95823,22.1369v10.41346H324.87036V96.67335c0-5.4662-1.82338-8.59087-7.16132-8.59087-5.33815,0-7.54757,3.77413-7.54757,9.10822v47.38978c0,5.338,2.20942,9.11217,7.54757,9.11217,5.33794,0,7.16132-3.38018,7.16132-8.59087V128.83293h13.53418v15.22624c0,12.62683-5.19871,22.00084-20.95823,22.00084C301.82612,166.06,295.32127,155.90919,295.32127,142.23579Z" transform="translate(0.26622)"/><path class="cls-2" d="M345.05584,76.75773h14.84021V165.0174H345.05584Z" transform="translate(0.26622)"/><path class="cls-2" d="M411.44588,100.44668v40.88177c0,13.53417-5.60067,23.689-21.48349,23.689h-22.905V76.75773h22.905C405.84521,76.75773,411.44588,86.77724,411.44588,100.44668ZM388.139,152.91188c6.12593,0,8.46667-3.646,8.46667-8.984V97.716c0-5.20673-2.34074-8.8535-8.46667-8.8535h-6.24223v64.04942Z" transform="translate(0.26622)"/><path class="cls-2" d="M416.13526,165.0174l16.6628-88.25967h16.92622l16.79411,88.25967H451.28424l-2.73457-16.14149H432.79806l-2.60337,16.14149Zm18.6175-27.98834h11.85l-5.8633-35.40845h-.13132Z" transform="translate(0.26622)"/><path class="cls-2" d="M515.59628,100.44668v40.88177c0,13.53417-5.59276,23.689-21.47558,23.689H471.20777V76.75773H494.1207C510.00352,76.75773,515.59628,86.77724,515.59628,100.44668Zm-23.299,52.4652c6.118,0,8.45876-3.646,8.45876-8.984V97.716c0-5.20673-2.34074-8.8535-8.45876-8.8535H486.048v64.04942Z" transform="translate(0.26622)"/><path class="cls-2" d="M522.63431,76.75773h35.41161V88.86246h-20.5722v25.25762h14.70889v11.97421H537.47372v26.81759h20.5722V165.0174H522.63431Z" transform="translate(0.26622)"/><path class="cls-2" d="M563.64659,146.01387V134.16306H577.4443V146.2765c0,4.9441,2.20931,7.81009,7.28472,7.81009,4.68859,0,6.7746-3.12862,6.7746-7.81009v-3.38809c0-5.07937-2.086-8.204-6.64328-12.49868l-8.72218-8.72218C567.6794,113.33615,563.77,108.26073,563.77,98.106V95.10864c0-10.93477,6.38145-19.39827,20.83483-19.39827,14.8402,0,20.6956,7.29274,20.6956,20.05089v7.16143H591.76625V95.23995c0-5.07541-2.34864-7.54746-7.03723-7.54746-4.16412,0-7.0222,2.34073-7.0222,7.28879v1.82338c0,4.94726,2.72677,7.8101,7.0222,11.97342l9.5094,9.3748c8.0647,8.20009,11.9741,13.14814,11.9741,22.91294v4.29859c0,12.10553-6.51277,20.6956-21.60769,20.6956C569.50278,166.06,563.64659,157.5973,563.64659,146.01387Z" transform="translate(0.26622)"/><path class="cls-2" d="M624.70661,76.75773h35.41161V88.86246H639.546v25.25762h14.70889v11.97421H639.546v26.81759h20.5722V165.0174H624.70661Z" transform="translate(0.26622)"/><path class="cls-2" d="M297.14465,251.73215v-42.7004c0-13.80155,6.50406-23.825,22.12425-23.825,16.401,0,20.959,9.11217,20.959,22.13295v10.41346H326.693V206.16575c0-5.46619-1.8226-8.59086-7.16143-8.59086-5.338,0-7.54746,3.77808-7.54746,9.11217v47.38582c0,5.33805,2.20941,9.11217,7.54746,9.11217,5.33883,0,7.16143-3.38018,7.16143-8.59086V238.32533h13.535v15.2302c0,12.62683-5.19961,21.99689-20.959,21.99689C303.64871,275.55242,297.14465,265.40159,297.14465,251.73215Z" transform="translate(0.26622)"/><path class="cls-2" d="M349.60589,251.73215v-42.7004c0-13.80155,6.76748-23.825,22.39558-23.825,15.7515,0,22.51819,10.02347,22.51819,23.825v42.7004c0,13.66944-6.76669,23.82027-22.51819,23.82027C356.37337,275.55242,349.60589,265.40159,349.60589,251.73215Zm30.07447,2.34073V206.68706c0-5.33409-2.34085-9.11217-7.67889-9.11217-5.20673,0-7.54747,3.77808-7.54747,9.11217v47.38582c0,5.33805,2.34074,9.11217,7.54747,9.11217C377.33951,263.18505,379.68036,259.41093,379.68036,254.07288Z" transform="translate(0.26622)"/><path class="cls-2" d="M445.16622,217.23183h-.394l-10.01951,57.28193H427.854l-11.07-57.28193h-.26263v57.28193H404.28445V186.25013h17.32017l9.63269,49.72656h.13131l8.59087-49.72656H458.7083v88.26363H445.16622Z" transform="translate(0.26622)"/><path class="cls-2" d="M511.56348,186.25013v66.7841c0,13.66944-5.8633,22.51819-20.95823,22.51819-15.62019,0-22.13216-8.84875-22.13216-22.51819v-66.7841h14.83942v68.21274c0,5.21069,2.086,8.72218,7.29274,8.72218s7.29274-3.51149,7.29274-8.72218V186.25013Z" transform="translate(0.26622)"/><path class="cls-2" d="M533.82775,219.05522v55.45854H521.33619V186.25013h14.57769l16.014,50.63786V186.25013h12.36025v88.26363h-13.0097Z" transform="translate(0.26622)"/><path class="cls-2" d="M574.06005,186.25013h14.84021v88.26363H574.06005Z" transform="translate(0.26622)"/><path class="cls-2" d="M643.05356,209.943v40.87781c0,13.53418-5.59276,23.69291-21.47558,23.69291H598.665V186.25013H621.578C637.4608,186.25013,643.05356,196.2736,643.05356,209.943Zm-23.299,52.46124c6.11814,0,8.46667-3.646,8.46667-8.98006V207.20836c0-5.20673-2.34853-8.8527-8.46667-8.8527h-6.24934v64.04862Z" transform="translate(0.26622)"/><path class="cls-2" d="M650.48553,274.51376l16.6628-88.26363h16.92622l16.79412,88.26363H685.63452L682.9,258.36832H667.14833L664.545,274.51376Zm18.6175-27.98834h11.84211l-5.8554-35.40845h-.13131Z" transform="translate(0.26622)"/><path class="cls-2" d="M752.68124,209.943v40.87781c0,13.53418-5.60068,23.69291-21.48349,23.69291H708.29284V186.25013h22.90491C747.08056,186.25013,752.68124,196.2736,752.68124,209.943Zm-23.30676,52.46124c6.1187,0,8.46655-3.646,8.46655-8.98006V207.20836c0-5.20673-2.34785-8.8527-8.46655-8.8527h-6.24143v64.04862Z" transform="translate(0.26622)"/><path class="cls-2" d="M762.446,186.25013h35.41161v12.10553h-20.5714v25.25683h14.70822V235.5867H777.28624v26.81758h20.5714v12.10948H762.446Z" transform="translate(0.26622)"/><path class="cls-2" d="M806.3251,255.50628V243.65942h13.79681v12.10949c0,4.94409,2.21745,7.81009,7.29274,7.81009,4.68147,0,6.76681-3.12467,6.76681-7.81009v-3.3881c0-5.07857-2.08534-8.20008-6.6434-12.49472l-8.72139-8.72218c-8.45956-8.33536-12.36025-13.41077-12.36025-23.56556V204.605c0-10.93476,6.37274-19.39827,20.827-19.39827,14.83929,0,20.69548,7.28879,20.69548,20.05089v7.15747H834.444v-7.68273c0-5.07541-2.34785-7.54746-7.02932-7.54746-4.172,0-7.03011,2.34073-7.03011,7.28878v1.82339c0,4.94726,2.73468,7.81009,7.03011,11.97737l9.50137,9.37085c8.07352,8.204,11.97421,13.15209,11.97421,22.91293v4.2986c0,12.10553-6.512,20.6956-21.60677,20.6956C812.1805,275.55242,806.3251,267.09366,806.3251,255.50628Z" transform="translate(0.26622)"/><path class="cls-2" d="M296.35676,376.33135V364.48054h13.80471v12.10553c0,4.952,2.20942,7.818,7.28484,7.818,4.68858,0,6.7746-3.12862,6.7746-7.818v-3.38335c0-5.07541-2.086-8.204-6.64329-12.49947l-8.72218-8.72139c-8.45876-8.32824-12.36737-13.40365-12.36737-23.56239v-2.9894c0-10.93872,6.38077-19.39748,20.82692-19.39748,14.84733,0,20.70351,7.28483,20.70351,20.04694v7.16063H324.47563v-7.68668c0-5.07542-2.34074-7.54747-7.02932-7.54747-4.16412,0-7.03012,2.34074-7.03012,7.29275v1.82338c0,4.9441,2.73468,7.81009,7.03012,11.97421l9.50928,9.37006c8.07272,8.204,11.97421,13.14813,11.97421,22.91293v4.30334c0,12.09762-6.512,20.6956-21.61481,20.6956C302.22017,396.37828,296.35676,387.91873,296.35676,376.33135Z" transform="translate(0.26622)"/><path class="cls-2" d="M391.005,307.0752v66.7841c0,13.66549-5.85539,22.519-20.95823,22.519-15.62019,0-22.125-8.85349-22.125-22.519V307.0752H362.754v68.21354c0,5.20672,2.08612,8.72139,7.29274,8.72139,5.20673,0,7.29274-3.51467,7.29274-8.72139V307.0752Z" transform="translate(0.26622)"/><path class="cls-2" d="M399.99693,376.33135V364.48054h13.7976v12.10553c0,4.952,2.20941,7.818,7.29195,7.818,4.68938,0,6.76748-3.12862,6.76748-7.818v-3.38335c0-5.07541-2.0781-8.204-6.64317-12.49947l-8.7223-8.72139c-8.45876-8.32824-12.36815-13.40365-12.36815-23.56239v-2.9894c0-10.93872,6.38144-19.39748,20.83482-19.39748,14.84021,0,20.6956,7.28483,20.6956,20.04694v7.16063H428.1167v-7.68668c0-5.07542-2.34084-7.54747-7.03022-7.54747-4.17113,0-7.02932,2.34074-7.02932,7.29275v1.82338c0,4.9441,2.73468,7.81009,7.02932,11.97421l9.50216,9.37006c8.07284,8.204,11.97421,13.14813,11.97421,22.91293v4.30334c0,12.09762-6.50485,20.6956-21.60769,20.6956C405.85312,396.37828,399.99693,387.91873,399.99693,376.33135Z" transform="translate(0.26622)"/><path class="cls-2" d="M449.85559,307.0752H489.3v12.09762H477.06317v76.16206H462.09165V319.17282H449.85559Z" transform="translate(0.26622)"/><path class="cls-2" d="M497.512,307.0752h35.40449v12.09762H512.35137V344.4344h14.7089v11.97342h-14.7089v26.82232h20.56508v12.10474H497.512Z" transform="translate(0.26622)"/><path class="cls-2" d="M554.53126,339.87633v55.45855H542.03179V307.0752h14.58469l16.007,50.63865V307.0752h12.36815v88.25968H571.97483Z" transform="translate(0.26622)"/><path class="cls-2" d="M593.0715,307.0752h39.4452v12.09762H620.28v76.16206H605.30834V319.17282H593.0715Z" transform="translate(0.26622)"/><path class="cls-2" d="M638.3721,395.33488l16.67071-88.25968h16.91831l16.7949,88.25968H673.52187l-2.72756-16.14545h-15.7515l-2.61049,16.14545Zm37.235-94.509-23.299,2.9894v-8.32744l23.299-4.9441Zm-18.6175,66.52068H668.8404l-5.85619-35.41162h-.13131Z" transform="translate(0.26622)"/><path class="cls-2" d="M743.69722,307.0752l-16.79491,88.25968H710.76477l-16.7949-88.25968H709.0648l10.15873,61.56946h.13132l10.41346-61.56946Z" transform="translate(0.26622)"/><path class="cls-2" d="M751.1206,307.0752h35.41229v12.09762H765.96081V344.4344h14.71668v11.97342H765.96081v26.82232h20.57208v12.10474H751.1206Z" transform="translate(0.26622)"/><path class="cls-2" d="M795.64822,307.0752h14.84021v88.25968H795.64822Z" transform="translate(0.26622)"/><path class="cls-2" d="M819.60456,376.33135V364.48054h13.7968v12.10553c0,4.952,2.21733,7.818,7.29274,7.818,4.68938,0,6.76749-3.12862,6.76749-7.818v-3.38335c0-5.07541-2.07811-8.204-6.63617-12.49947l-8.72218-8.72139c-8.46655-8.32824-12.36737-13.40365-12.36737-23.56239v-2.9894c0-10.93872,6.38066-19.39748,20.82692-19.39748,14.84021,0,20.70351,7.28483,20.70351,20.04694v7.16063h-13.542v-7.68668c0-5.07542-2.34086-7.54747-7.03024-7.54747-4.16411,0-7.03011,2.34074-7.03011,7.29275v1.82338c0,4.9441,2.73468,7.81009,7.03011,11.97421l9.50217,9.37006c8.07284,8.204,11.98133,13.14813,11.98133,22.91293v4.30334c0,12.09762-6.512,20.6956-21.61481,20.6956S819.60456,387.91873,819.60456,376.33135Z" transform="translate(0.26622)"/></svg>