<svg id="Layer_1" data-name="Layer 1" xmlns="http://www.w3.org/2000/svg" viewBox="0 0 1079.93827 1080"><defs><style>.cls-1{fill:#b68731;}.cls-2{fill:#fff;}</style></defs><rect class="cls-1" width="1079.93827" height="1080"/><polygon class="cls-2" points="107.802 141.908 108.127 141.908 108.127 308.598 144.744 308.598 144.744 90.853 115.481 90.853 81.785 130.347 81.785 168.57 82.093 168.57 107.802 141.908"/><path class="cls-2" d="M166.31552,135.8206v26.32657H199.71v-27.3035c0-13.15972,6.42719-17.01841,14.13666-17.01841,7.07663,0,13.16367,2.88887,13.16367,16.38874v17.97557c0,17.99139-1.59157,25.04825-13.49591,37.57831l-20.54012,21.839c-19.9152,21.20063-27.31616,35.33413-27.31616,56.85909v40.13969h95.07972v-29.8728H200.668V268.466c0-17.02949,6.103-23.44877,15.41893-33.41033l23.4456-24.72392c18.95725-20.23161,23.13631-33.09391,23.13631-54.92816V134.214c0-31.163-15.0867-45.9293-47.85628-45.9293-32.128,0-48.497,17.02237-48.497,47.5359" transform="translate(0.25119)"/><path class="cls-2" d="M835.48465,578.5319c-44.0403-34.778-96.8556-38.5323-117.51991-38.5323-10.8847,0-20.97361.97377-28.35875,2.72672l-2.89678.68029c-27.8952,6.58144-74.5847,17.60536-128.93777,85.05963l-1.59157,1.9776a7.05451,7.05451,0,0,0-1.35966,4.0786,7.22812,7.22812,0,0,0,.9499,3.585l1.23639,2.02348q13.4532,22.49122,22.35634,39.09631a7.189,7.189,0,0,0,11.6259,1.63033c.37812-.49439.75717-1.01964,1.01965-1.4294,46.945-64.92848,83.73148-73.58087,108.07254-79.30483l3.02019-.71035a70.95424,70.95424,0,0,1,14.9095-1.26724c11.31739,0,50.66051,1.885,81.352,26.11852C826.6701,645.809,840.5212,680.239,840.5212,726.58909c0,77.66737-37.58226,107.957-69.10754,119.69844a109.66674,109.66674,0,0,1-38.5323,6.77525,136.89838,136.89838,0,0,1-57.798-13.1708l-2.2559-1.09717c-27.11459-11.773-67.60946-36.315-105.87913-113.18661-78.47819-157.605-144.39546-172.54538-188.041-182.43337l-2.2948-.51022c-3.34452-.757-12.77687-2.52578-28.12684-2.52578-25.2762,0-73.89662,4.97484-115.56539,38.23882-28.45117,22.68779-62.37184,66.77477-62.37184,147.88712,0,49.432,10.16643,82.0782,36.27625,116.41562,4.90616,6.69773,50.383,65.415,137.69062,65.415a212.21169,212.21169,0,0,0,39.87627-3.90061c15.93707-3.05974,40.54075-10.93137,68.01116-31.08546L475.361,893.81948a6.84548,6.84548,0,0,0,9.30894-.4327,6.08339,6.08339,0,0,0,1.66039-4.36416L504.09,779.652l.00791-1.28228a6.49806,6.49806,0,0,0-2.13976-4.766,6.36124,6.36124,0,0,0-4.59594-1.692h-.04667L390.82662,801.34386l-2.02427.33223a6.29586,6.29586,0,0,0-3.39105,1.96969,6.59581,6.59581,0,0,0,.4555,9.36274l22.06287,19.94605c-11.603,7.12251-23.1901,11.82682-34.46873,14.00534a150.79927,150.79927,0,0,1-28.25024,2.76547c-60.33254,0-90.01958-39.59782-91.24807-41.26692l-.59486-.81872c-18.36238-24.1172-24.5578-44.6502-24.5578-81.375,0-46.48937,13.61141-80.93516,40.44028-102.37153,29.8728-23.82372,68.29673-25.67791,79.36653-25.67791a75.2903,75.2903,0,0,1,15.08748,1.25933l2.35572.53316c34.84778,7.88666,82.55757,18.68672,148.70662,151.55595,34.9394,70.15092,78.74793,116.03751,133.81927,140.22432,6.40426,3.26778,40.55657,19.56,84.34928,19.56a168.24558,168.24558,0,0,0,58.84935-10.437c32.1668-12.01193,106.99909-53.03205,106.99909-174.32206,0-81.05856-34.42285-125.25311-63.29894-148.05719" transform="translate(0.25119)"/><path class="cls-2" d="M344.49942,155.81649V113.10908c0-13.80442,6.51262-23.83163,22.13262-23.83163,16.40759,0,20.96555,9.1191,20.96555,22.1396v10.41719H374.0558V110.2471c0-5.47319-1.82321-8.5978-7.16128-8.5978-5.33793,0-7.55521,3.77721-7.55521,9.11514v47.39669c0,5.33793,2.21728,9.11593,7.55521,9.11593,5.33807,0,7.16128-3.388,7.16128-8.59859V142.40205h13.54179v15.23383c0,12.63447-5.20661,22.00828-20.96555,22.00828C351.012,179.64416,344.49942,169.4896,344.49942,155.81649Z" transform="translate(0.25119)"/><path class="cls-2" d="M395.53092,155.81649V113.10908c0-13.80442,6.77525-23.83163,22.40223-23.83163,15.752,0,22.52656,10.02721,22.52656,23.83163v42.70741c0,13.67311-6.7746,23.82767-22.52656,23.82767C402.30617,179.64416,395.53092,169.4896,395.53092,155.81649Zm30.081,2.34464V110.76444c0-5.33793-2.348-9.11514-7.67876-9.11514-5.21374,0-7.55442,3.77721-7.55442,9.11514v47.39669c0,5.33793,2.34068,9.11593,7.55442,9.11593C423.264,167.27706,425.61191,163.49906,425.61191,158.16113Z" transform="translate(0.25119)"/><path class="cls-2" d="M461.27813,123.13629v55.46528H448.77971V90.32H463.3641l16.01379,50.65339V90.32H491.7537v88.28153H478.72924Z" transform="translate(0.25119)"/><path class="cls-2" d="M499.301,159.59449V147.74393h13.79651v12.10923c0,4.9519,2.21728,7.80993,7.29259,7.80993,4.68928,0,6.77446-3.12065,6.77446-7.80993v-3.38723c0-5.07531-2.08518-8.2007-6.64315-12.49525l-8.7212-8.72595c-8.46729-8.33518-12.3679-13.41049-12.3679-23.569v-2.99329c0-10.93849,6.37261-19.405,20.82648-19.405,14.847,0,20.70307,7.29259,20.70307,20.05442v7.16444h-13.5418v-7.68652c0-5.07847-2.34068-7.54731-7.03-7.54731-4.164,0-7.03,2.34069-7.03,7.28864v1.82334c0,4.948,2.73463,7.80993,7.03,11.97791l9.50908,9.37382c8.07255,8.20782,11.97395,13.15181,11.97395,22.92035v4.29455c0,12.10923-6.50456,20.70307-21.61434,20.70307C505.15627,179.64416,499.301,171.18163,499.301,159.59449Z" transform="translate(0.25119)"/><path class="cls-2" d="M592.64993,90.32v66.7985c0,13.67311-5.86383,22.52562-20.9657,22.52562-15.61986,0-22.13234-8.85251-22.13234-22.52562V90.32h14.8399v68.23107c0,5.20662,2.08582,8.726,7.29244,8.726,5.21388,0,7.29971-3.51933,7.29971-8.726V90.32Z" transform="translate(0.25119)"/><path class="cls-2" d="M641.73389,121.313H641.34l-10.02627,57.28862h-6.8988L613.34509,121.313h-.25551v57.28862h-12.2437V90.32h17.319l9.63327,49.74132h.13131L636.52728,90.32h18.7492v88.28153H641.73389Z" transform="translate(0.25119)"/><path class="cls-2" d="M663.6039,155.81649V113.10908c0-13.80442,6.76719-23.83163,22.39431-23.83163,15.75181,0,22.52627,10.02721,22.52627,23.83163v42.70741c0,13.67311-6.77446,23.82767-22.52627,23.82767C670.37109,179.64416,663.6039,169.4896,663.6039,155.81649Zm30.07278,2.34464V110.76444c0-5.33793-2.34069-9.11514-7.67847-9.11514-5.20677,0-7.55442,3.77721-7.55442,9.11514v47.39669c0,5.33793,2.34765,9.11593,7.55442,9.11593C691.336,167.27706,693.67668,163.49906,693.67668,158.16113Z" transform="translate(0.25119)"/><path class="cls-2" d="M730.26223,90.32h35.41165v12.11318H745.10212v25.25709h14.71649v11.98107H745.10212v26.821h20.57176v12.10922H730.26223Z" transform="translate(0.25119)"/><path class="cls-2" d="M344.49942,219.99585h22.00117c14.97832,0,20.44835,7.42,20.44835,19.7918v18.62106c0,12.3671-5.47,19.91836-20.44835,19.91836h-7.16128v29.95427H344.49942Zm14.83989,12.10923v34.76616h5.46924c5.08322,0,7.29259-2.476,7.29259-7.29259V239.26556c0-4.81584-2.20937-7.16048-7.29259-7.16048Z" transform="translate(0.25119)"/><path class="cls-2" d="M410.77266,267.78252v40.49882h-14.8478V219.99585h21.61435c14.97911,0,20.44045,7.42,20.44045,19.7918v11.32847c0,9.502-3.38328,15.10252-11.84186,17.05638l14.19045,40.10884H424.70049Zm0-35.67744v27.47357h4.944c5.08242,0,7.29179-2.6033,7.29179-7.29258V239.26556c0-4.81584-2.20937-7.16048-7.29179-7.16048Z" transform="translate(0.25119)"/><path class="cls-2" d="M447.219,285.4923V242.7849c0-13.80522,6.77446-23.83164,22.39432-23.83164,15.75907,0,22.52641,10.02642,22.52641,23.83164v42.7074c0,13.67311-6.76734,23.82372-22.52641,23.82372C453.99345,309.316,447.219,299.16541,447.219,285.4923Zm30.08084,2.34069V240.44026c0-5.34189-2.34068-9.11594-7.68652-9.11594-5.20662,0-7.54731,3.774-7.54731,9.11594V287.833c0,5.33793,2.34069,9.11514,7.54731,9.11514C474.95915,296.94813,477.29983,293.17092,477.29983,287.833Z" transform="translate(0.25119)"/><path class="cls-2" d="M546.29979,243.69222V284.581c0,13.5418-5.59265,23.70032-21.483,23.70032H501.90431V219.99585h22.91244C540.70714,219.99585,546.29979,230.01911,546.29979,243.69222Zm-23.30638,52.47594c6.118,0,8.46649-3.6459,8.46649-8.98383V240.96155c0-5.21453-2.34845-8.85647-8.46649-8.85647H516.7442v64.06308Z" transform="translate(0.25119)"/><path class="cls-2" d="M599.16176,219.99585V286.7904c0,13.6731-5.86318,22.52562-20.9657,22.52562-15.61985,0-22.13169-8.85252-22.13169-22.52562V219.99585h14.8391v68.23107c0,5.20662,2.086,8.72121,7.29259,8.72121s7.29274-3.51459,7.29274-8.72121V219.99585Z" transform="translate(0.25119)"/><path class="cls-2" d="M624.5462,317.25726c4.17115-.1234,4.82059-1.03468,4.82059-2.07806,0-.91127-.78075-1.43652-2.086-1.43652h-.64865v-4.8206C614.00165,307.36136,608.795,297.8602,608.795,285.4923V242.7849c0-13.80522,6.50392-23.83164,22.13169-23.83164,16.40773,0,20.9657,9.11515,20.9657,22.13565V251.5061h-13.5418V239.919c0-5.46924-1.82334-8.59464-7.16128-8.59464s-7.55442,3.774-7.55442,9.11594V287.833c0,5.33793,2.21649,9.11514,7.55442,9.11514s7.16128-3.38328,7.16128-8.58989V272.07786h13.5418v15.23779c0,12.3671-4.95191,21.483-19.65969,22.00037v1.1739c3.51458.526,5.46924,1.82335,5.46924,4.68928,0,4.03272-3.77786,6.25-13.15577,6.25Z" transform="translate(0.25119)"/><path class="cls-2" d="M658.91447,308.28134l16.67036-88.28549h16.92586l16.79375,88.28549H694.07061l-2.73462-16.153H675.58483l-2.60331,16.153Zm11.58793-91.804c.26262-6.11868,2.60331-11.06584,9.11514-11.06584,3.77721,0,6.89865,2.21649,8.85252,2.21649a1.75093,1.75093,0,0,0,1.82349-1.95782h7.30035c-.26262,6.12185-2.61122,11.0698-9.12384,11.0698-3.76915,0-6.89786-2.21333-8.85252-2.21333a1.747,1.747,0,0,0-1.82334,1.9507Zm7.03708,63.80442h11.84265l-5.85606-35.41561h-.13132Z" transform="translate(0.25119)"/><path class="cls-2" d="M716.72043,285.4923V242.7849c0-13.80522,6.77525-23.83164,22.39511-23.83164,15.75908,0,22.52562,10.02642,22.52562,23.83164v42.7074c0,13.67311-6.76654,23.82372-22.52562,23.82372C723.49568,309.316,716.72043,299.16541,716.72043,285.4923Zm30.08163,2.34069V240.44026c0-5.34189-2.34859-9.11594-7.68652-9.11594-5.20662,0-7.5473,3.774-7.5473,9.11594V287.833c0,5.33793,2.34068,9.11514,7.5473,9.11514C744.45347,296.94813,746.80206,293.17092,746.80206,287.833Z" transform="translate(0.25119)"/><path class="cls-2" d="M359.33931,397.45833v40.49408H344.49942V349.67167h21.61514c14.97041,0,20.43965,7.42311,20.43965,19.791V380.788c0,9.50908-3.38327,15.10963-11.84976,17.05638l14.19836,40.108H373.275Zm0-35.68218v27.47832h4.9519c5.07531,0,7.29273-2.60331,7.29273-7.29259V368.94533c0-4.82059-2.21742-7.16918-7.29273-7.16918Z" transform="translate(0.25119)"/><path class="cls-2" d="M395.01358,349.67167h35.41086v12.10448h-20.571v25.261h14.71569v11.98186H409.85348v26.82888h20.571v12.10448H395.01358Z" transform="translate(0.25119)"/><path class="cls-2" d="M437.84835,418.94137V407.09161h13.80456V419.204c0,4.944,2.20923,7.80992,7.28453,7.80992,4.68928,0,6.77525-3.12856,6.77525-7.80992v-3.38328c0-5.08322-2.086-8.21177-6.64393-12.50712l-8.72107-8.7212c-8.46663-8.33518-12.368-13.41049-12.368-23.569v-2.98933c0-10.93928,6.3734-19.40577,20.82647-19.40577,14.8478,0,20.70307,7.29259,20.70307,20.05442V375.844H465.96741v-7.68652c0-5.07531-2.34069-7.54731-7.03-7.54731-4.16323,0-7.02917,2.34069-7.02917,7.29259v1.82256c0,4.944,2.73477,7.80993,7.02917,11.974l9.50987,9.37777c8.07256,8.20466,11.974,13.14865,11.974,22.92036v4.29534c0,12.10527-6.50471,20.70307-21.61514,20.70307C443.70441,438.99579,437.84835,430.5293,437.84835,418.94137Z" transform="translate(0.25119)"/><path class="cls-2" d="M488.49382,349.67167H510.4942c14.97911,0,20.44045,7.42311,20.44045,19.791v18.6171c0,12.37581-5.46134,19.92311-20.44045,19.92311h-7.16128v29.94953h-14.8391Zm14.8391,12.10448v34.77091h5.46925c5.08321,0,7.29259-2.472,7.29259-7.29259V368.94533c0-4.82059-2.20938-7.16918-7.29259-7.16918Z" transform="translate(0.25119)"/><path class="cls-2" d="M539.00735,415.16416V372.45992c0-13.80442,6.7751-23.83163,22.39495-23.83163,15.75908,0,22.52563,10.02721,22.52563,23.83163v42.70424c0,13.67311-6.76655,23.83163-22.52563,23.83163C545.78245,438.99579,539.00735,428.83727,539.00735,415.16416ZM569.088,417.512V370.11212c0-5.33794-2.34069-9.11594-7.68574-9.11594-5.20661,0-7.54715,3.778-7.54715,9.11594V417.512c0,5.33793,2.34054,9.11594,7.54715,9.11594C566.74735,426.6279,569.088,422.84989,569.088,417.512Z" transform="translate(0.25119)"/><path class="cls-2" d="M605.27965,382.48713v55.46528H592.78124V349.67167h14.58438l16.006,50.6526v-50.6526h12.37566v88.28074H622.723Z" transform="translate(0.25119)"/><path class="cls-2" d="M643.8121,418.94137V407.09161h13.80427V419.204c0,4.944,2.21729,7.80992,7.29274,7.80992,4.68122,0,6.76719-3.12856,6.76719-7.80992v-3.38328c0-5.08322-2.086-8.21177-6.636-12.50712l-8.72912-8.7212c-8.45858-8.33518-12.36789-13.41049-12.36789-23.569v-2.98933c0-10.93928,6.38131-19.40577,20.83438-19.40577,14.8478,0,20.70307,7.29259,20.70307,20.05442V375.844H671.93893v-7.68652c0-5.07531-2.3486-7.54731-7.02982-7.54731-4.1713,0-7.02932,2.34069-7.02932,7.29259v1.82256c0,4.944,2.73462,7.80993,7.02932,11.974l9.50181,9.37777c8.07256,8.20466,11.98108,13.14865,11.98108,22.92036v4.29534c0,12.10527-6.51183,20.70307-21.61435,20.70307S643.8121,430.5293,643.8121,418.94137Z" transform="translate(0.25119)"/><path class="cls-2" d="M692.11675,437.95241l16.67035-88.28074h16.92507l16.79455,88.28074H727.27289l-2.73462-16.14511H708.7871l-2.61122,16.14511Zm37.24211-94.53074-23.31429,2.99013v-8.32806l23.31429-4.95112ZM710.734,409.95754h11.84976L716.72043,374.538h-.1234Z" transform="translate(0.25119)"/><path class="cls-2" d="M796.53548,349.67167,779.733,437.95241h-16.1372l-16.80167-88.28074h15.10252l10.15773,61.59108h.13131l10.41418-61.59108Z" transform="translate(0.25119)"/><path class="cls-2" d="M803.0394,349.67167h35.41165v12.10448H817.87929v25.261h14.71649v11.98186H817.87929v26.82888h20.57176v12.10448H803.0394Z" transform="translate(0.25119)"/><path class="cls-2" d="M846.65491,349.67167H861.4948v88.28074H846.65491Z" transform="translate(0.25119)"/><path class="cls-2" d="M869.56736,418.94137V407.09161h13.80442V419.204c0,4.944,2.20937,7.80992,7.29259,7.80992,4.68137,0,6.76734-3.12856,6.76734-7.80992v-3.38328c0-5.08322-2.086-8.21177-6.636-12.50712l-8.72912-8.7212c-8.45937-8.33518-12.36789-13.41049-12.36789-23.569v-2.98933c0-10.93928,6.38052-19.40577,20.83438-19.40577,14.8399,0,20.70308,7.29259,20.70308,20.05442V375.844h-13.5418v-7.68652c0-5.07531-2.34859-7.54731-7.03-7.54731-4.17194,0-7.03788,2.34069-7.03788,7.29259v1.82256c0,4.944,2.74254,7.80993,7.03788,11.974l9.502,9.37777c8.07255,8.20466,11.98107,13.14865,11.98107,22.92036v4.29534c0,12.10527-6.51183,20.70307-21.61435,20.70307C875.42263,438.99579,869.56736,430.5293,869.56736,418.94137Z" transform="translate(0.25119)"/></svg>