<svg id="Layer_1" data-name="Layer 1" xmlns="http://www.w3.org/2000/svg" viewBox="0 0 1079.92248 1080"><defs><style>.cls-1{fill:#407c43;}.cls-2{fill:#fff;}</style></defs><rect class="cls-1" width="1079.92248" height="1080"/><polygon class="cls-2" points="136.313 90.59 136.313 308.254 99.709 308.254 99.709 141.644 99.389 141.644 73.718 168.286 73.383 168.286 73.383 130.079 107.086 90.59 136.313 90.59"/><path class="cls-2" d="M256.771,137.79618v18.934c0,18.2846-9.94559,30.49016-25.03207,35.3178,18.28856,4.164,26.95584,17.01025,26.95584,36.90934V261.062c0,30.17374-16.0444,49.75642-52.96165,49.75642-37.24553,0-50.424-21.18925-50.424-54.25183V227.99229H188.711v31.15462c0,12.83837,4.48433,21.17343,17.02212,21.17343,11.212,0,16.34579-8.01865,16.34579-19.58268v-35.9514c0-11.55612-5.13377-17.651-17.96819-17.651H188.711V179.20172h13.81213c11.87332,0,19.55578-6.11069,19.55578-17.651V138.10547c0-11.88123-4.15211-19.58267-15.709-19.58267-11.54109,0-15.728,7.70144-15.728,21.18925v22.14719H157.24V142.60879c0-32.11175,13.17061-54.584,51.04184-54.584,33.72308,0,48.48919,18.94906,48.48919,49.77144" transform="translate(0.24329)"/><path class="cls-2" d="M944.18086,676.1196c-28.45072-39.90654-157.15492-199.24715-396.38692-199.24715-239.28579,0-367.95114,159.34061-396.444,199.24715-1.20552,1.70783-2.252,3.18309-3.10953,4.4345.85748,1.29808,1.904,2.76543,3.10953,4.48829,28.49281,39.89072,157.15816,199.23212,396.444,199.23212,239.232,0,367.9362-159.3414,396.38692-199.23212,1.24761-1.72286,2.26724-3.19021,3.08612-4.48829-.81888-1.25141-1.83851-2.72667-3.08612-4.4345M414.3318,577.628c2.1508-3.15937,9.31988-12.19765,10.18527-13.34147,1.8423-2.3715,5.5-2.858,8.07639-3.31361,2.53366-.48649,5.91293.94211,6.32664,2.85086.43585,1.908-.98879,9.31593-2.23624,10.59027-3.50741,3.63873-12.63824,8.79069-17.67867,7.97989-3.89344-.60277-5.41537-3.615-4.67339-4.76594M405.78,594.62242c.38286-.44772.72221-.81871.86539-1.00381,3.01223-3.4299,8.99951-4.164,13.13975-4.8055,4.15606-.71825,9.683,1.3756,10.34743,4.13312.71114,2.74249-10.39331,7.77106-12.42941,9.65607-5.75473,5.2991-14.7582,16.10611-20.03831,17.265a6.32283,6.32283,0,0,1-4.29844-.44772A165.56561,165.56561,0,0,1,405.78,594.62242m89.53956,183.69c-3.23689,12.73792-7.022,17.33458-10.24381,21.35141-3.22106,4.07142-15.15213,9.25423-22.72226,8.69814-7.582-.57191-8.63644-20.80323-8.63644-31.20049,0-3.59206-5.091,7.06071-7.7402-14.6-1.696-13.8588-10.59107,1.45233-11.22072-7.79478-.63362-9.22338-5.07919-7.385-9.75654-13.15558-4.65045-5.75472-10.44789.564-16.9525,3.48448-6.46191,2.86589-3.79614,4.37992-12.98946,1.49029-.23889-.07673-.35518-.14634-.587-.23177a166.02754,166.02754,0,0,1-13.09308-64.865c0-5.63211.30454-11.163.82583-16.63214a10.35917,10.35917,0,0,1,1.02754-1.55278c8.81442-10.42812,8.61746-12.87714,8.61746-12.87714l9.74862-3.36819s15.57691,2.39444,27.311,6.821c9.65291,3.60788,24.87465,11.81163,33.72308,8.20375,6.38834-2.642,11.39792-6.14075,10.80306-11.46357-.72221-6.6739-5.98649-8.27335-12.35585-3.77-2.35567,1.66116-7.3613-10.07294-11.28558-9.47018-3.92825.587,4.85137,13.7884,1.529,14.33738-3.34446.579-10.05712-13.75043-11.20095-16.08317-1.13116-2.29477-6.31872-8.04159-10.96917-3.66167-9.8301,9.33966-25.793,8.76775-28.99511,11.1701-9.76444,7.2996-12.33687-2.40235-12.12012-8.31212.39393-1.34395.791-2.71164,1.22767-4.04768,3.18309-3.51454,14.61581-4.6813,18.54406-2.06221,4.31426,2.88883,7.404-.73408,9.08811-2.48778,1.7189-1.69913,1.11218-4.47247.03876-6.77436-1.0932-2.31771,2.1508-4.01763,4.37992-4.60457,2.2481-.59486,9.6711-5.8014,12.6335-7.53138,2.998-1.72285,18.40483-3.592,25.31129-.13131a13.4005,13.4005,0,0,0,16.63531-3.36819A44.396,44.396,0,0,1,487.98436,593.757c2.41422-1.13513-5.95169-8.93782-12.8273-.4327-6.89064,8.46716-10.39726,9.255-13.63415,9.255s-22.47546-4.79758-24.85487-10.88453c-2.34461-6.07984,6.01735-10.62192,13.12473-14.06684,7.09551-3.37611,26.5271-3.32944,31.494-4.45744,10.10063-2.21725,23.00862-7.29248,29.51323-2.858,6.473,4.34115-27.15676,12.00384-16.10294,17.9753,3.9322,2.16346,21.71528-10.2351,27.81015-13.40237,14.32946-7.385-13.90152-9.83406-10.23589-24.85883,4.141-16.98652-34.63435-10.41309-53.95836-8.96867a165.78457,165.78457,0,0,1,89.75551-26.27239c78.62417,0,144.49381,54.47647,162.0562,127.72324a26.895,26.895,0,0,1-.8108,7.70935c-1.514,6.01023-12.90482,11.1701-19.517,1.499-1.68805-2.4332-8.84131-9.18541-8.58977,2.36359.23494,11.55612,11.21994,12.73079.56005,19.66731-10.62983,6.9294-12.5805,5.25321-17.51256,7.00692-4.9012,1.73789-9.67189,13.63415-8.4893,19.99955,1.17784,6.36539,16.37664,23.73082,5.09817,23.0276-2.63412-.20093-22.553-13.80422-25.83575-22.549-3.47656-9.20756-7.26163-18.215-9.94954-25.16733-2.71955-6.91358-9.74546-8.68311-15.7011-4.6196-5.9248,4.06351,1.64929,8.11911-2.61118,16.80142-4.24466,8.66017-7.2996,16.40828-13.56454,9.255-16.26511-18.64847-39.89942-9.45515-43.607-30.19668-2.00446-11.25553-11.68822-10.1734-19.77964-16.5388-8.142-6.33455-12.673-9.78026-14.036-5.19151-1.21264,4.01684,25.46871,25.18315,27.36876,30.59061,2.83109,8.0495-7.987,15.14818-15.90915,17.064-7.88733,1.885-11.36706-4.44952-19.131-12.52987-7.76315-8.07243-11.16615-13.858-11.70246-7.50843-.77679,9.16959,7.37712,22.63446,15.28739,27.67093,6.74747,4.27155,14.30257,6.20323,12.11221,13.13975-2.19351,6.94443-.03085,3.013-7.586,10.4827-7.57013,7.51634-9.01455,9.93451-8.47032,20.31675.545,10.40517-2.15476,11-3.78507,19.65149-1.61844,8.66017-5.3687,1.16677-8.64355,13.8588m178.79592-66.45738c5.60048-.45563,14.017,7.30752,10.71842,10.2976-3.27564,2.94262-11.67635,1.86129-15.8862-1.4373-4.19086-3.25982,2.64915-8.65146,5.16778-8.8603m-7.09156-5.12111c-1.78456-.67237-3.38322-2.37941-4.739-6.46585-1.35978-4.09436,2.082-6.4271,5.44543-4.78968,3.41882,1.7458,7.86439,6.844,7.86439,9.57144,0,2.72667-6.72452,2.40235-8.57078,1.68409m-73.56-.28635c-3.28355,2.92759-11.71116,1.85417-15.925-1.4365-4.19482-3.25983,2.65706-8.66729,5.16382-8.86821,5.60839-.4944,14.036,7.33045,10.76114,10.30471m-68.06,33.08551c-2.29477,3.7471-8.56287,31.78823-12.77351,28.52841-4.22567-3.28356,1.70387-32.52151,2.92759-34.73876,6.57819-12.08216,20.819-11.47148,9.84592,6.21035m22.66452,108.635a167.01227,167.01227,0,0,1-46.851-6.70475,6.88046,6.88046,0,0,1-2.02029-8.14995c5.15988-13.449,20.51293-18.70938,32.641-19.87615,27.02941-2.63412,62.54891,17.54341,68.19922,14.28358,5.66613-3.2527,17.09964-18.1074,33.85439-17.4817,11.44458.4406,11.35994,2.35647,15.1988,3.80879a165.967,165.967,0,0,1-101.02211,34.12018m117.538-48.51213a29.09718,29.09718,0,0,1-5.22948-1.93881c-9.096-4.62672-8.00678,2.77335-12.48,1.143-4.50332-1.67619,5.04834-12.05842-8.38885-3.27485-13.37943,8.75983-9.76048-1.35978-15.60855-16.18363-5.90185-14.83968,6.7095-31.78032,17.24994-35.61918,14.47659-5.2453,23.4682-6.31161,30.26629-7.98779,20.01141-4.99771,24.24815-16.87894,27.879-9.641.67949,1.35186,1.34791,2.63412,1.95067,3.85467a26.4,26.4,0,0,1,2.58349,10.85369,167.03864,167.03864,0,0,1-38.22244,58.7939m45.66206-84.14712c-4.47326-1.22056-23.19055-27.09111-8.38964-44.1243,2.45693-2.79628-4.96686-11.023-2.93155-11.20095,8.08826-.61779,12.39461,4.40286,14.52248,11.64155.159,3.19022.2903,6.41128.2903,9.664a168.45939,168.45939,0,0,1-3.49159,34.01972" transform="translate(0.24329)"/><path class="cls-2" d="M341.80645,180.22927l17.0063-90.08774h17.27287l17.14157,90.08774H377.68113l-2.78917-16.485H358.81275l-2.65706,16.485Zm18.99969-28.56638h12.08927l-5.97938-36.1452h-.13131Z" transform="translate(0.24329)"/><path class="cls-2" d="M417.0118,189.39886c4.25256-.13923,4.917-1.06631,4.917-2.13261,0-.92709-.79973-1.45945-2.12787-1.45945h-.66446v-4.91307c-12.889-1.59946-18.2-11.30141-18.2-23.91671V113.39378c0-14.09057,6.63989-24.31777,22.58779-24.31777,16.73972,0,21.39017,9.30011,21.39017,22.587v10.62983h-13.82V110.47331c0-5.58466-1.86129-8.77487-7.30751-8.77487s-7.7054,3.85467-7.7054,9.30011v48.36579c0,5.44622,2.25918,9.3009,7.7054,9.3009s7.30751-3.45284,7.30751-8.76775V143.28908h13.82v15.5421c0,12.62243-5.04834,21.92333-20.0652,22.45648v1.19683c3.5881.53315,5.5807,1.86207,5.5807,4.78176,0,4.11729-3.85468,6.38121-13.4182,6.38121Z" transform="translate(0.24329)"/><path class="cls-2" d="M452.222,180.22927l17.01026-90.08774h17.27287l17.14156,90.08774h-15.55l-2.78917-16.485H469.23227l-2.661,16.485Zm11.82665-93.6798c.26658-6.2412,2.65785-11.2935,9.3009-11.2935,3.85468,0,7.04094,2.26313,9.03433,2.26313a1.78192,1.78192,0,0,0,1.86128-1.99259h7.43962c-.26658,6.2412-2.6539,11.29349-9.3009,11.29349-3.85072,0-7.04094-2.26313-9.03433-2.26313a1.78341,1.78341,0,0,0-1.86128,1.9926Zm7.177,65.11342h12.08928l-5.97938-36.1452h-.13131Z" transform="translate(0.24329)"/><path class="cls-2" d="M511.3521,156.977V113.39378c0-14.09057,6.90963-24.31777,22.85437-24.31777,16.07525,0,22.98488,10.2272,22.98488,24.31777V156.977c0,13.95135-6.90963,24.31064-22.98488,24.31064C518.26173,181.28766,511.3521,170.92837,511.3521,156.977Zm30.69107,2.38732V110.99855c0-5.44544-2.39127-9.30011-7.8367-9.30011-5.31492,0-7.70619,3.85467-7.70619,9.30011v48.36579c0,5.44622,2.39127,9.3009,7.70619,9.3009C539.6519,168.66524,542.04317,164.81056,542.04317,159.36434Z" transform="translate(0.24329)"/><path class="cls-2" d="M582.57146,156.977V113.39378c0-14.09057,6.64384-24.31777,22.58779-24.31777,16.74368,0,21.39017,9.30011,21.39017,22.587v10.62983H612.73334V110.47331c0-5.58466-1.86129-8.77487-7.30751-8.77487s-7.7054,3.85467-7.7054,9.30011v48.36579c0,5.44622,2.25917,9.3009,7.7054,9.3009s7.30751-3.45284,7.30751-8.76775V143.28908h13.81608v15.5421c0,12.893-5.311,22.45648-21.39017,22.45648C589.2153,181.28766,582.57146,170.92837,582.57146,156.977Z" transform="translate(0.24329)"/><path class="cls-2" d="M636.25216,156.977V113.39378c0-14.09057,6.91358-24.31777,22.85358-24.31777,16.07921,0,22.98963,10.2272,22.98963,24.31777V156.977c0,13.95135-6.91042,24.31064-22.98963,24.31064C643.16574,181.28766,636.25216,170.92837,636.25216,156.977Zm30.69424,2.38732V110.99855c0-5.44544-2.39048-9.30011-7.84066-9.30011-5.31492,0-7.7054,3.85467-7.7054,9.30011v48.36579c0,5.44622,2.39048,9.3009,7.7054,9.3009C664.55592,168.66524,666.9464,164.81056,666.9464,159.36434Z" transform="translate(0.24329)"/><path class="cls-2" d="M704.94894,123.621v56.6083H692.1952V90.14153h14.87844l16.34183,51.6794V90.14153h12.62638v90.08774H722.755Z" transform="translate(0.24329)"/><path class="cls-2" d="M744.41567,90.14153h40.25776v12.3598H772.18231v77.72794H756.90283V102.50133H744.41567Z" transform="translate(0.24329)"/><path class="cls-2" d="M808.32752,138.90125v41.328h-15.149V90.14153h22.0548c15.28368,0,20.861,7.57013,20.861,20.19335V121.891c0,9.70275-3.453,15.41871-12.08943,17.4121l14.48023,40.92618H822.5411Zm0-36.39992v28.0261h5.048c5.17949,0,7.43906-2.64994,7.43906-7.4317v-13.294c0-4.91307-2.25957-7.30039-7.43906-7.30039Z" transform="translate(0.24329)"/><path class="cls-2" d="M843.406,180.22927l17.00629-90.08774h17.2728l17.14152,90.08774H879.28031l-2.78869-16.485h-16.0793l-2.65737,16.485Zm18.99929-28.56638h12.08943l-5.97906-36.1452h-.13131Z" transform="translate(0.24329)"/><path class="cls-2" d="M915.55635,180.22927l17.0063-90.08774h17.27287L966.977,180.22927h-15.5463l-2.79257-16.485H932.56265l-2.65738,16.485Zm18.99929-28.56638h12.08943l-5.979-36.1452h-.13139Z" transform="translate(0.24329)"/><path class="cls-2" d="M385.6531,249.5905h-.39789L375.02327,308.053h-7.04093l-11.2935-58.46247h-.26658V308.053H343.93115V217.96523h17.67393l9.83009,50.76023h.13527l8.76775-50.76023h19.135V308.053h-13.82Z" transform="translate(0.24329)"/><path class="cls-2" d="M450.0981,217.96523v68.16441c0,13.95135-5.97937,22.98884-21.39017,22.98884-15.94474,0-22.59174-9.03749-22.59174-22.98884V217.96523h15.14817v69.62465c0,5.31412,2.1247,8.90618,7.44357,8.90618,5.31412,0,7.43882-3.59206,7.43882-8.90618V217.96523Z" transform="translate(0.24329)"/><path class="cls-2" d="M502.0512,242.15168v41.72195c0,13.82-5.712,24.17934-21.92332,24.17934H456.74511V217.96523h23.38277C496.33919,217.96523,502.0512,228.20033,502.0512,242.15168Zm-23.78461,53.5486c6.24516,0,8.64039-3.72336,8.64039-9.1688V239.36331c0-5.32282-2.39523-9.03828-8.64039-9.03828h-6.37726v65.37525Z" transform="translate(0.24329)"/><path class="cls-2" d="M506.30376,308.053l17.0063-90.08774h17.27288L557.7245,308.053H542.17844l-2.78916-16.4771H523.31006L520.653,308.053Zm18.99969-28.56717h12.09323l-5.97938-36.1365H531.286Z" transform="translate(0.24329)"/><path class="cls-2" d="M574.73475,251.45258V308.053H561.97706V217.96523h14.88239l16.34184,51.68731V217.96523h12.62638V308.053H592.53683Z" transform="translate(0.24329)"/><path class="cls-2" d="M628.54993,317.22177c4.24861-.13132,4.91307-1.06552,4.91307-2.12391,0-.935-.79577-1.46024-2.12391-1.46024h-.66446v-4.92019c-12.889-1.59155-18.20391-11.29429-18.20391-23.91671v-43.584c0-14.08187,6.64384-24.30986,22.58778-24.30986,16.74368,0,21.39018,9.3009,21.39018,22.58779v10.629H642.63259V238.297c0-5.58466-1.86208-8.76775-7.30751-8.76775-5.45018,0-7.70619,3.84676-7.70619,9.3009v48.365c0,5.44622,2.256,9.3009,7.70619,9.3009,5.44543,0,7.30751-3.45284,7.30751-8.77487V271.1199h13.81609v15.54289c0,12.62243-5.04834,21.92333-20.062,22.45569v1.18971c3.58889.53315,5.58149,1.86207,5.58149,4.78967,0,4.11729-3.85468,6.3733-13.4182,6.3733Z" transform="translate(0.24329)"/><path class="cls-2" d="M660.30731,308.053l17.0063-90.08774h17.27287L711.728,308.053H696.18119l-2.79232-16.4771H677.31361l-2.65786,16.4771ZM679.3062,279.4858h12.09323l-5.98254-36.1365h-.13131Z" transform="translate(0.24329)"/><path class="cls-2" d="M750.79214,259.95771h21.52544V308.053H761.422v-9.83406c-1.99339,6.78227-6.24595,10.89957-14.4845,10.89957-13.02032,0-18.9989-10.36641-18.9989-24.31776v-43.584c0-14.08187,6.77436-24.30986,22.71831-24.30986,16.74367,0,21.6607,9.3009,21.6607,22.58779v7.972H758.49833V238.297c0-5.58466-2.1247-8.76775-7.57488-8.76775-5.44543,0-7.83671,3.84676-7.83671,9.3009v48.365c0,5.44622,2.26,9.3009,7.43883,9.3009,4.917,0,7.44356-2.78838,7.44356-8.63644v-15.944h-7.177Z" transform="translate(0.24329)"/><path class="cls-2" d="M778.96142,217.96523h15.14817v77.73505h18.06865V308.053H778.96142Z" transform="translate(0.24329)"/><path class="cls-2" d="M817.095,284.80072v-43.584c0-14.08187,6.90994-24.30986,22.85405-24.30986,16.07937,0,22.98544,10.228,22.98544,24.30986v43.584c0,13.95135-6.90607,24.31776-22.98544,24.31776C824.005,309.11848,817.095,298.75207,817.095,284.80072Zm30.69479,2.39444v-48.365c0-5.45414-2.39468-9.3009-7.84074-9.3009-5.31468,0-7.70556,3.84676-7.70556,9.3009v48.365c0,5.44622,2.39088,9.3009,7.70556,9.3009C845.39514,296.49606,847.78982,292.64138,847.78982,287.19516Z" transform="translate(0.24329)"/><path class="cls-2" d="M869.58176,217.96523h21.92318c15.14847,0,20.19665,7.04489,20.19665,19.79862v9.16959c0,7.57805-2.78861,12.35981-9.038,14.3532,7.57425,1.72206,11.29374,6.77435,11.29374,15.009v11.958c0,12.76165-5.71257,19.79942-20.85717,19.79942H869.58176Zm15.1446,37.99858h5.31471c4.91688,0,7.17641-2.51863,7.17641-7.2996V237.63254c0-4.92019-2.25953-7.30751-7.30773-7.30751h-5.18339Zm0,11.564v28.17244h6.64339c5.05207,0,7.43906-2.52575,7.43906-7.30751V274.83535c0-4.781-2.25567-7.30751-7.57039-7.30751Z" transform="translate(0.24329)"/><path class="cls-2" d="M917.15153,308.053l17.0063-90.08774h17.27288L968.57219,308.053h-15.5463l-2.79256-16.4771h-16.0755l-2.65738,16.4771Zm18.9993-28.56717h12.0895l-5.97906-36.1365h-.13138Z" transform="translate(0.24329)"/><path class="cls-2" d="M972.82483,217.96523H987.973v77.73505h18.06865V308.053H972.82483Z" transform="translate(0.24329)"/><path class="cls-2" d="M389.2412,362.93761v41.72274c0,13.81925-5.7128,24.17855-21.92332,24.17855H343.93115V338.75907h23.38673C383.5284,338.75907,389.2412,348.98705,389.2412,362.93761ZM365.45659,416.487c6.24516,0,8.63644-3.72336,8.63644-9.16959V360.14924c0-5.31491-2.39128-9.03828-8.63644-9.03828h-6.37726v65.376Z" transform="translate(0.24329)"/><path class="cls-2" d="M395.88425,405.58665V362.01132c0-14.09057,6.91041-24.31856,22.85436-24.31856,16.07922,0,22.98884,10.228,22.98884,24.31856v43.57533c0,13.95135-6.90962,24.31855-22.98884,24.31855C402.79466,429.9052,395.88425,419.538,395.88425,405.58665Zm30.695,2.39523V359.61609c0-5.44623-2.39444-9.3009-7.84067-9.3009-5.31491,0-7.7054,3.85467-7.7054,9.3009v48.36579c0,5.44622,2.39049,9.3009,7.7054,9.3009C424.18484,417.28278,426.57928,413.4281,426.57928,407.98188Z" transform="translate(0.24329)"/><path class="cls-2" d="M460.32925,405.58665V362.01132c0-14.09057,6.64384-24.31856,22.58779-24.31856,16.74368,0,21.39017,9.3009,21.39017,22.58779v10.62983H490.49113V359.08294c0-5.57675-1.86208-8.76775-7.30751-8.76775-5.44623,0-7.70619,3.85467-7.70619,9.3009v48.36579c0,5.44622,2.26,9.3009,7.70619,9.3009,5.44543,0,7.30751-3.46075,7.30751-8.76775V391.89871h13.81608v15.55c0,12.893-5.311,22.45648-21.39017,22.45648C466.97309,429.9052,460.32925,419.538,460.32925,405.58665Z" transform="translate(0.24329)"/><path class="cls-2" d="M510.55633,338.75907h15.149V416.487h18.06786v12.3519H510.55633Z" transform="translate(0.24329)"/><path class="cls-2" d="M548.69018,338.75907h15.149V428.8389h-15.149Z" transform="translate(0.24329)"/><path class="cls-2" d="M612.33545,370.37722h-.39789L601.70642,428.8389h-7.04569l-11.28954-58.46168h-.26657V428.8389H570.6135V338.75907h17.67472l9.8301,50.75232h.13447l8.76775-50.75232h19.135V428.8389h-13.82Z" transform="translate(0.24329)"/><path class="cls-2" d="M630.40805,428.8389l17.0063-90.07983h17.27288l17.14156,90.07983H666.28194l-2.78837-16.4771H647.41435l-2.65706,16.4771Zm18.9989-28.56638h12.094l-5.98333-36.13729h-.13131Z" transform="translate(0.24329)"/></svg>