<svg id="Layer_1" data-name="Layer 1" xmlns="http://www.w3.org/2000/svg" viewBox="0 0 1079.94225 1080"><defs><style>.cls-1{fill:#228ac2;}.cls-2{fill:#fff;}</style></defs><rect class="cls-1" width="1079.94225" height="1080"/><polygon class="cls-2" points="140.703 90.877 140.703 308.528 104.098 308.528 104.098 141.916 103.774 141.916 78.107 168.559 77.772 168.559 77.772 130.359 111.483 90.877 140.703 90.877"/><path class="cls-2" d="M251.89841,308.57482v-35.3191h14.77028V244.666H251.89841V90.82235H215.93066L152.65941,250.76094v22.49478H217.209v35.3191ZM184.77163,244.666l32.76167-89.61048h.32117V244.666Z" transform="translate(0.25318)"/><path class="cls-2" d="M828.92019,787.99508c-13.58844-18.36239-101.37876-130.29757-224.47233-130.29757-106.88361,0-221.22511,96.941-221.22511,96.941s-42.95816-87.91053-130.811-96.35329c-.51339,0-1.06553-.1242-1.64932-.1242h-.54028c-1.84233.10838-3.56126,1.893-3.36033,3.48453a9.74656,9.74656,0,0,0,1.37482,3.20529c11.32452,18.803,40.2275,72.3065,40.2275,125.7396,0,53.61188-29.07227,107.2467-40.29315,125.95635l-.757,1.19763a3.44868,3.44868,0,0,0,2.688,5.3142l.954-.08464a3.48983,3.48983,0,0,0,.92-.08464c88.13757-8.21177,131.24682-96.38493,131.24682-96.38493s114.3415,96.94815,221.22511,96.94815c123.09357,0,210.88389-111.93439,224.47233-130.25881.371-.4944.67239-.93421.94609-1.25854a3.83544,3.83544,0,0,0,.29031-1.34477,3.60881,3.60881,0,0,0-.29031-1.33606c-.2737-.37891-.57509-.81082-.94609-1.25933M672.887,804.72792a35.91755,35.91755,0,1,1,35.96379-35.9369,35.93078,35.93078,0,0,1-35.96379,35.9369" transform="translate(0.25318)"/><path class="cls-2" d="M249.63841,447.308a3.11085,3.11085,0,0,0-.67554-.16216,3.54889,3.54889,0,0,0-3.53041,3.57628v24.504a3.48193,3.48193,0,0,0,1.02756,2.5337c59.41652,51.62557,115.67759,3.252,128.69413-9.53282a3.17922,3.17922,0,0,1,.935-.9967,3.57954,3.57954,0,0,1,1.94279-.63363,3.46061,3.46061,0,0,1,2.39052.935.62036.62036,0,0,0,.174.16216c67.11887,64.04806,137.48572,12.15906,152.12866,0l1.43651-1.32894a3.127,3.127,0,0,1,1.344-.25472,3.30975,3.30975,0,0,1,1.39856.25472l1.44444,1.32894c14.635,12.15906,85.01377,64.04806,152.1247,0,0-.03876.09256-.08464.12341-.16216a3.46461,3.46461,0,0,1,2.39447-.935,3.67421,3.67421,0,0,1,2.92764,1.63033c13.00942,12.78478,69.212,61.15839,128.67119,9.53282a3.52678,3.52678,0,0,0,1.0236-2.5337v-24.504A3.22438,3.22438,0,0,0,821.365,447.308c-.5561.3085-1.11616.602-1.77272.91919-18.277,9.1539-74.95173,30.93041-126.39221-17.74459-.49835-.44773-.9967-.91128-1.503-1.42941a3.76959,3.76959,0,0,0-1.50218-.32432,5.73674,5.73674,0,0,0-1.05841.16216,3.93607,3.93607,0,0,0-1.78459,1.39065c-15.33429,11.68839-85.71619,59.33583-148.39335.86539l-.91921-.88834a3.88008,3.88008,0,0,0-2.5337-1.05049,3.74652,3.74652,0,0,0-2.45615,1.05049l-.97379.88834c-62.63761,58.47044-133.09387,10.823-148.40048-.86539a3.8746,3.8746,0,0,0-1.74186-1.39065,6.53148,6.53148,0,0,0-1.12012-.16216,4.026,4.026,0,0,0-1.48.32432,17.786,17.786,0,0,1-1.49823,1.42941c-51.44838,48.675-108.10339,26.89849-126.38509,17.74459-.64469-.31721-1.25459-.61069-1.81148-.91919" transform="translate(0.25318)"/><path class="cls-2" d="M375.15415,557.36528a3.59791,3.59791,0,0,1,.939-.973,3.65421,3.65421,0,0,1,1.94279-.66448,3.463,3.463,0,0,1,2.40238.9888.63933.63933,0,0,0,.15821.14713c67.09514,63.95472,137.48572,12.1203,152.12866,0l1.43651-1.3677a3.48292,3.48292,0,0,1,1.33606-.22387,3.81675,3.81675,0,0,1,1.41755.22387l1.4294,1.3677c14.639,12.1203,85.00191,63.95472,152.12866,0a.52211.52211,0,0,1,.12341-.14713,3.39977,3.39977,0,0,1,2.37944-.9888,3.49237,3.49237,0,0,1,1.93884.66448,3.60662,3.60662,0,0,1,1.00383.973c12.9936,12.79269,69.20088,61.18212,128.683,9.50987a3.5109,3.5109,0,0,0,1.03547-2.4799V539.82953a3.51223,3.51223,0,0,0-3.50351-3.5225,5.53664,5.53664,0,0,0-.76493.14714c-.54819.27765-1.13515.587-1.77668.89624-18.26588,9.16182-74.95964,30.88454-126.39221-17.72876-.48648-.45643-.99275-.91207-1.499-1.41359a2.88544,2.88544,0,0,0-1.50614-.34805,2.23374,2.23374,0,0,0-1.05841.26262,3.01056,3.01056,0,0,0-1.78459,1.321c-15.33429,11.68048-85.71619,59.32792-148.39335.86539l-.91921-.91919a3.6202,3.6202,0,0,0-2.54161-.98167,3.50212,3.50212,0,0,0-2.45615.98167l-.96588.91919c-62.63761,58.46253-133.09387,10.81509-148.40048-.86539a2.99508,2.99508,0,0,0-1.73474-1.321,2.55891,2.55891,0,0,0-1.12724-.26262,2.89108,2.89108,0,0,0-1.46025.34805c-.48649.50152-1.00462.95716-1.53383,1.41359-51.43652,48.6133-108.08757,26.89058-126.37243,17.72876-.63758-.30929-1.24431-.61859-1.80041-.89624a5.913,5.913,0,0,0-.6795-.14714,3.52134,3.52134,0,0,0-3.53436,3.5225v24.56572a3.44641,3.44641,0,0,0,1.01569,2.4799c59.42839,51.67225,115.69341,3.28282,128.706-9.50987" transform="translate(0.25318)"/><path class="cls-2" d="M391.84428,90.42841,375.05369,178.687H358.91254l-16.79376-88.2586h15.09777l10.15457,61.56815h.13131l10.41324-61.56815Z" transform="translate(0.25318)"/><path class="cls-2" d="M398.09745,90.42841h14.83989V178.687H398.09745Z" transform="translate(0.25318)"/><path class="cls-2" d="M466.054,114.1137v40.88011c0,13.54179-5.60055,23.6932-21.47908,23.6932H421.6625V90.42841h22.91244C460.45347,90.42841,466.054,100.44771,466.054,114.1137Zm-23.30242,52.468c6.11868,0,8.45937-3.64669,8.45937-8.98462V111.3862c0-5.21374-2.34069-8.85252-8.45937-8.85252h-6.24921v64.04806Z" transform="translate(0.25318)"/><path class="cls-2" d="M472.304,178.687l16.66245-88.2586h16.92586l16.79376,88.2586H507.45224l-2.73067-16.138H488.96645l-2.60331,16.138Zm18.61711-27.98775h11.8466l-5.86-35.41166h-.12734Z" transform="translate(0.25318)"/><path class="cls-2" d="M555.23574,123.22885V178.687H542.73653V90.42841H557.317L573.32759,141.066V90.42841h12.3679V178.687H572.67815Z" transform="translate(0.25318)"/><path class="cls-2" d="M591.94865,178.687l16.66244-88.2586H625.537l16.78981,88.2586H627.09688l-2.73462-16.138H608.61109l-2.60331,16.138Zm18.61315-27.98775h11.85055l-5.86-35.41166H616.421Z" transform="translate(0.25318)"/><path class="cls-2" d="M341.85616,308.22676,358.5186,219.969h16.92507l16.79455,88.2578H377.00439l-2.73066-16.13719H358.5186l-2.60331,16.13719Zm37.23025-94.507L355.784,216.70909v-8.32727l23.30243-4.9519ZM360.47326,280.239h11.84581l-5.85923-35.403h-.13131Z" transform="translate(0.25318)"/><path class="cls-2" d="M414.888,261.10457h21.0891v47.12219H425.30128v-9.63248c-1.9507,6.64315-6.11869,10.67586-14.18729,10.67586-12.75787,0-18.6171-10.15061-18.6171-23.82451V242.75009c0-13.7973,6.64394-23.82372,22.25984-23.82372,16.40377,0,21.22041,9.10723,21.22041,22.13169V248.868H422.4393v-8.98383c0-5.46925-2.082-8.59069-7.42-8.59069s-7.67861,3.778-7.67861,9.108v47.38481c0,5.33794,2.21332,9.11594,7.28863,9.11594,4.81585,0,7.28784-2.73462,7.28784-8.45858V272.8159H414.888Z" transform="translate(0.25318)"/><path class="cls-2" d="M481.67386,219.969v66.78267c0,13.6652-5.85923,22.51851-20.95777,22.51851-15.61985,0-22.12773-8.85331-22.12773-22.51851V219.969h14.8391v68.21129c0,5.20741,2.082,8.722,7.28863,8.722s7.29259-3.51459,7.29259-8.722V219.969Z" transform="translate(0.25318)"/><path class="cls-2" d="M481.93728,308.22676l16.66246-88.2578h16.92505l16.79455,88.2578H517.08947l-2.73463-16.13719h-15.7551l-2.59937,16.13719Zm18.6171-27.98775h11.84581l-5.85923-35.403h-.12736Z" transform="translate(0.25318)"/></svg>