<svg id="Layer_1" data-name="Layer 1" xmlns="http://www.w3.org/2000/svg" viewBox="0 0 1079.95016 1080"><defs><style>.cls-1{fill:#5bad49;}.cls-2{fill:#fff;}</style></defs><rect class="cls-1" width="1079.95016" height="1080"/><polygon class="cls-2" points="79.077 129.911 79.077 168.127 79.39 168.127 105.079 141.476 105.411 141.476 105.411 308.157 142.02 308.157 142.02 90.398 112.785 90.398 79.077 129.911"/><path class="cls-2" d="M228.79686,159.46713c-14.442,0-25.03322,5.12119-30.8347,15.0867h-.32828V120.27036h62.95484V90.4205H164.25441V213.10116h33.37947v-4.83562c0-12.83145,5.78645-19.89938,16.06047-19.89938,11.24778,0,15.75908,7.70947,15.75908,19.598V260.626c0,11.55629-4.17906,19.59008-15.4308,19.59008-12.51424,0-16.99864-8.34309-16.99864-21.18956V231.72617H163.59785V256.462c0,33.07809,13.1708,54.26765,50.42478,54.26765,36.93677,0,52.02426-19.598,52.02426-49.7872V207.63983c0-34.36828-17.656-48.1727-37.25-48.1727" transform="translate(0.25713)"/><path class="cls-2" d="M446.95434,730.21205a2.3799,2.3799,0,0,1,2.37944,2.38736v78.63244a2.37664,2.37664,0,0,1-2.37944,2.39526H415.13163a2.38589,2.38589,0,0,1-2.39922-2.39526V732.59941a2.38921,2.38921,0,0,1,2.39922-2.38736Z" transform="translate(0.25713)"/><path class="cls-2" d="M796.429,847.39261H271.99867a2.45744,2.45744,0,0,0-2.39448,2.46409V881.908a2.38366,2.38366,0,0,0,2.39448,2.35571l524.43036.00791a2.40967,2.40967,0,0,0,2.40238-2.36362V849.8567a2.477,2.477,0,0,0-2.40238-2.46409" transform="translate(0.25713)"/><path class="cls-2" d="M796.429,911.10052H271.99867a2.38523,2.38523,0,0,0-2.39448,2.36362v32.15178a2.40552,2.40552,0,0,0,2.39448,2.36363H796.429a2.42519,2.42519,0,0,0,2.40238-2.36363V913.46414a2.40967,2.40967,0,0,0-2.40238-2.36362" transform="translate(0.25713)"/><path class="cls-2" d="M696.63788,643.159c-6.56246-5.1291-24.04047-17.09514-45.36134-17.09514-15.24564,0-29.43219,6.0024-42.1165,17.89884a4.512,4.512,0,0,0-1.40251,3.29072v2.85881a4.51943,4.51943,0,0,0,1.503,3.5842,4.152,4.152,0,0,0,3.6807.85749,5.08266,5.08266,0,0,0,.9888-.2476,7.056,7.056,0,0,0,2.61517-1.66039c2.76548-1.8542,10.274-4.38,21.01158-4.38,11.11647,0,32.93971,2.98142,54.03672,22.649l.47462.4406a6.39919,6.39919,0,0,0,4.56978,1.893,6.16215,6.16215,0,0,0,4.44168-1.86211l.42875-.4406c21.20538-19.69846,42.99692-22.67988,54.10548-22.67988,10.81508,0,18.30069,2.52578,21.05825,4.38a7.82565,7.82565,0,0,0,2.89362,1.76876,6.423,6.423,0,0,0,3.07793.10047,4.502,4.502,0,0,0,3.30259-4.3262v-2.52578a4.56814,4.56814,0,0,0-1.40172-3.24485c-12.81958-12.20494-27.14609-18.37741-42.63067-18.37741-21.12786,0-38.54021,11.78015-45.27591,17.11808" transform="translate(0.25713)"/><path class="cls-2" d="M664.09612,434.14435a4.33948,4.33948,0,0,0-2.29085,2.75756l-.52921,1.75373a4.51273,4.51273,0,0,0,.68821,3.93226,4.27564,4.27564,0,0,0,3.244,1.76876,1.63345,1.63345,0,0,0,.66057.03085,5.62861,5.62861,0,0,0,2.52652-.64865,13.54449,13.54449,0,0,1,3.18235-.34806c2.3486,0,23.48753.70324,37.466,24.46526l.18194.34014a5.35548,5.35548,0,0,0,3.36028,2.688,6.58714,6.58714,0,0,0,1.66039.25551,5.555,5.555,0,0,0,2.64207-.64944l.352-.16217a52.16311,52.16311,0,0,1,23.391-5.80148c13.24838,0,21.89992,5.41546,23.91232,7.66359a6.15911,6.15911,0,0,0,1.75373,1.95387,14.38623,14.38623,0,0,0,1.70706.82663,6.27212,6.27212,0,0,0,.78471.10046,1.82478,1.82478,0,0,0,.46355.03876,4.55041,4.55041,0,0,0,2.07411-.52525,4.43688,4.43688,0,0,0,2.23231-2.688l.43671-1.54569a3.75929,3.75929,0,0,0,.18109-1.28227,4.26406,4.26406,0,0,0-.60593-2.24734c-10.18226-17.6908-24.9596-21.37546-35.56986-21.37546a56.02952,56.02952,0,0,0-18.87657,3.53832c-4.80872-6.458-16.952-19.81474-35.365-19.81474a43.56927,43.56927,0,0,0-19.66364,4.97485" transform="translate(0.25713)"/><path class="cls-2" d="M553.285,514.824l.14634,2.36362a4.35755,4.35755,0,0,0,2.09783,3.53041,4.4055,4.4055,0,0,0,3.52645.53316,6.06148,6.06148,0,0,0,.77206-.23178,5.7806,5.7806,0,0,0,2.256-1.68412c2.22836-1.59869,9.41653-4.54214,20.00775-4.54214,10.17751,0,25.67792,2.71959,41.46389,15.68155l.367.38682a6.22047,6.22047,0,0,0,4.0478,1.514h.386a6.11147,6.11147,0,0,0,4.11735-1.97048l.352-.39393c17.47721-18.49371,36.3071-21.25127,45.97123-21.25127,6.89074,0,11.773,1.4215,13.6731,2.49494a6.91779,6.91779,0,0,0,2.7196,1.4215,6.39516,6.39516,0,0,0,1.927.12419,6.26434,6.26434,0,0,0,1.10508-.26263,4.45909,4.45909,0,0,0,2.96956-4.51208l-.11154-2.04642a4.47747,4.47747,0,0,0-1.5836-3.12144c-10.44019-8.77579-21.684-13.20956-33.54169-13.20956-18.44782,0-33.15245,10.89973-39.26639,16.24557-5.5697-3.793-19.10359-11.618-34.9829-11.618-13.95868,0-26.45788,5.80148-37.19545,17.1956A4.55947,4.55947,0,0,0,553.285,514.824" transform="translate(0.25713)"/><path class="cls-2" d="M287.897,556.92547a56.859,56.859,0,0,1,56.85592-56.85593c1.22849,0,2.42928.10837,3.6459.1851a76.88245,76.88245,0,1,1,145.77029,39.35894,85.93632,85.93632,0,0,1-18.64,169.8337c-3.46876,0-114.72364-.6716-114.72364-.6716a60.8,60.8,0,0,1-44.28-102.54159A56.79862,56.79862,0,0,1,287.897,556.92547" transform="translate(0.25713)"/><path class="cls-2" d="M392.53165,90.4205,375.73789,178.687H359.596L342.80219,90.4205h15.10252l10.15456,61.57606h.12736L378.60382,90.4205Z" transform="translate(0.25713)"/><path class="cls-2" d="M399.95555,90.4205h14.83989V178.687H399.95555Z" transform="translate(0.25713)"/><path class="cls-2" d="M469.08286,114.1137v40.88011c0,13.53467-5.59739,23.6932-21.47987,23.6932H424.69055V90.4205H447.603C463.48547,90.4205,469.08286,100.44771,469.08286,114.1137Zm-23.30242,52.468c6.11789,0,8.46253-3.64669,8.46253-8.98462v-46.218c0-5.20662-2.34464-8.85331-8.46253-8.85331h-6.25v64.056Z" transform="translate(0.25713)"/><path class="cls-2" d="M476.506,178.687,493.16926,90.4205h16.925L526.88883,178.687H511.655l-2.73462-16.1459H493.16926L490.5659,178.687Zm18.61789-27.98775h11.84581l-5.85922-35.41166h-.13131Z" transform="translate(0.25713)"/><path class="cls-2" d="M343.19217,220.10027h39.44358v12.09736H370.4v76.16044H355.42876V232.19763H343.19217Z" transform="translate(0.25713)"/><path class="cls-2" d="M389.27969,220.10027h35.41086v12.09736h-20.571v25.261h14.71174v11.97317H404.11958V296.2536h20.571v12.10447H389.27969Z" transform="translate(0.25713)"/><path class="cls-2" d="M447.213,267.87191v40.48616H432.37312v-88.2578h21.60723c14.9712,0,20.44044,7.416,20.44044,19.78389v11.32451c0,9.502-3.388,15.10252-11.85055,17.05717l14.19124,40.09223H461.14162Zm0-35.67428V259.668h4.944c5.07536,0,7.29259-2.60331,7.29259-7.29259V239.35891c0-4.81268-2.21723-7.16128-7.29259-7.16128Z" transform="translate(0.25713)"/><path class="cls-2" d="M496.94642,267.87191v40.48616H482.10336v-88.2578h21.61045c14.97115,0,20.44045,7.416,20.44045,19.78389v11.32451c0,9.502-3.38728,15.10252-11.85061,17.05717l14.19124,40.09223H510.875Zm0-35.67428V259.668h4.944c5.07531,0,7.29259-2.60331,7.29259-7.29259V239.35891c0-4.81268-2.21728-7.16128-7.29259-7.16128Z" transform="translate(0.25713)"/><path class="cls-2" d="M531.96809,220.10027H567.375v12.09736h-20.5678v25.261h14.70858v11.97317H546.80719V296.2536H567.375v12.10447h-35.4069Z" transform="translate(0.25713)"/><path class="cls-2" d="M574.2776,289.35494V277.50439h13.80052v12.10527c0,4.9519,2.20932,7.80993,7.28858,7.80993,4.68928,0,6.77129-3.12065,6.77129-7.80993v-3.38327c0-5.07531-2.082-8.20387-6.63993-12.49921L586.7729,265.006c-8.45863-8.32806-12.36394-13.41127-12.36394-23.56188v-2.99725c0-10.93058,6.37731-19.39707,20.82642-19.39707,14.8399,0,20.69912,7.29259,20.69912,20.05363v7.15337H602.39666v-7.67862c0-5.0753-2.34068-7.5473-7.03-7.5473-4.1672,0-7.03,2.34068-7.03,7.28468v1.82334c0,4.95191,2.73462,7.81784,7.03,11.98187l9.50591,9.36986c8.0686,8.20386,11.974,13.14785,11.974,22.91244v4.29534c0,12.11239-6.50862,20.70307-21.61119,20.70307C580.13682,309.40145,574.2776,300.935,574.2776,289.35494Z" transform="translate(0.25713)"/><path class="cls-2" d="M622.5816,220.10027H662.026v12.09736H649.78543v76.16044h-14.9712V232.19763H622.5816Z" transform="translate(0.25713)"/><path class="cls-2" d="M683.50906,267.87191v40.48616h-14.8439v-88.2578h21.61118c14.97047,0,20.43966,7.416,20.43966,19.78389v11.32451c0,9.502-3.38723,15.10252-11.84581,17.05717l14.18649,40.09223h-15.623Zm0-35.67428V259.668h4.944c5.0792,0,7.29253-2.60331,7.29253-7.29259V239.35891c0-4.81268-2.21333-7.16128-7.29253-7.16128Z" transform="translate(0.25713)"/><path class="cls-2" d="M718.39857,220.10027h35.41165v12.09736h-20.5678v25.261H747.951v11.97317H733.24242V296.2536h20.5678v12.10447H718.39857Z" transform="translate(0.25713)"/></svg>