<svg id="Layer_1" data-name="Layer 1" xmlns="http://www.w3.org/2000/svg" viewBox="0 0 1079.93748 1080"><defs><style>.cls-1{fill:#086594;}.cls-2{fill:#fff;}</style></defs><rect class="cls-1" width="1079.93748" height="1080"/><polygon class="cls-2" points="83.089 130.095 83.089 168.317 83.413 168.317 109.106 141.659 109.431 141.659 109.431 308.339 146.047 308.339 146.047 90.582 116.831 90.582 83.089 130.095"/><path class="cls-2" d="M273.94382,256.00257V223.88211c0-35.65-14.12933-53.64115-40.46342-53.64115-15.42654,0-24.73464,7.06071-30.18877,17.66681h-.31641V141.018c0-13.1714,4.15606-22.48733,17.34248-22.48733,13.1627,0,17.01025,7.70935,17.01025,21.18925v14.48371h33.40193V142.62461c0-32.12045-10.58316-54.592-51.06873-54.592-38.53174,0-52.9933,24.72752-52.9933,58.77887v105.97c0,33.71912,14.78589,58.13735,53.32474,58.13735,38.84894,0,53.95123-21.19716,53.95123-54.91629m-36.29154,3.206c0,13.80422-5.14485,21.83789-17.65969,21.83789-12.20476,0-17.01737-8.343-17.01737-21.83789V219.3867c.63361-12.20555,5.77054-19.9149,17.34248-19.9149,12.50615,0,17.33458,7.70935,17.33458,21.8458Z" transform="translate(0.25079)"/><path class="cls-2" d="M755.60514,368.22959s-12.44523,16.5388-8.82944,32.64491c3.64584,16.11481,22.008,25.68545,22.008,25.68545s12.45235-16.53089,8.82154-32.62988c-3.63-16.114-22.00006-25.70048-22.00006-25.70048" transform="translate(0.25079)"/><path class="cls-2" d="M735.31925,462.63554s12.44523-16.53168,8.81441-32.6457c-3.64575-16.114-21.99293-25.67754-21.99293-25.67754s-12.46026,16.51586-8.84448,32.62988c3.65376,16.10611,22.023,25.69336,22.023,25.69336" transform="translate(0.25079)"/><path class="cls-2" d="M786.48131,444.93s13.14767,13.26315,28.10283,11.92711c14.9789-1.32893,26.07157-16.73181,26.07157-16.73181s-13.124-13.256-28.11083-11.92791C797.5818,429.5263,786.48131,444.93,786.48131,444.93" transform="translate(0.25079)"/><path class="cls-2" d="M808.01071,374.11562c-12.18253,12.36771-10.45976,34.22934-10.45976,34.22934s21.4756,1.86129,33.67325-10.4827c12.17391-12.34477,10.459-34.22142,10.459-34.22142s-21.48272-1.85417-33.67245,10.47478" transform="translate(0.25079)"/><path class="cls-2" d="M781.14346,494.07572c14.91641,1.76082,28.92946-11.0467,28.92946-11.0467s-10.15047-15.6663-25.05184-17.42c-14.92432-1.75291-28.9524,11.05461-28.9524,11.05461s10.15838,15.65839,25.07478,17.4121" transform="translate(0.25079)"/><path class="cls-2" d="M794.46911,753.2068H682.97538a15.77034,15.77034,0,1,0,0,31.54064H794.46911a15.77032,15.77032,0,0,0,0-31.54064" transform="translate(0.25079)"/><path class="cls-2" d="M794.46911,927.06276H682.97538a15.77429,15.77429,0,1,0,0,31.54855H794.46911a15.77428,15.77428,0,0,0,0-31.54855" transform="translate(0.25079)"/><path class="cls-2" d="M293.055,714.914a71.85366,71.85366,0,0,0-7.74012-1.9926s2.8579.89623,7.74012,1.9926" transform="translate(0.25079)"/><path class="cls-2" d="M790.35893,795.7625H687.0468a8.98908,8.98908,0,0,0-8.97658,8.97657V836.025l-67.44528,7.41588-98.52334-2.256V781.00034a271.16709,271.16709,0,0,0,39.19628-7.949C646.13565,746.29243,666.83051,667.87,664.7683,613.62606c-2.07-55.26434,15.61963-76.72412,41.01873-86.26391a114.35705,114.35705,0,0,1,21.05794-5.57753c.27844,13.57244,3.036,29.34711,9.10789,48.14113q3.37215-.17324,6.72057-.54818c-6.41128-19.2275-9.13865-35.048-9.293-48.53507a118.23272,118.23272,0,0,1,22.48732-.68028s-8.8682-4.76594-21.39808-15.24864c4.25652-26.164,19.84539-42.22425,35.90553-58.64756,8.82153-9.0454,17.95236-18.393,25.13656-29.5164l-5.60047-3.60787c-6.79818,10.57524-15.72809,19.66019-24.31785,28.45879-15.65839,16.02147-31.46391,32.39811-36.81679,58.377a211.4745,211.4745,0,0,1-16.23742-16.3537c-23.39147-26.2186-53.49481-6.96025-96.43019,33.0159-42.96545,39.96113-96.97047,41.328-149.7233-12.64536-69.60091-71.25417-130.31851-70.85312-171.948-66.81255,28.47382,12.128,38.4463,38.74769,52.8612,106.39477C362.40125,614.55236,400.5082,646.67281,452.6203,651.0994c-28.984,10.25093-30.42133,26.61175-69.26157,53.43232-30.328,20.93454-73.0078,14.31443-90.30369,10.38224,31.75659,9.90366,69.36923,43.22094,103.03448,54.80791a249.23855,249.23855,0,0,0,61.42012,12.59949v57.61211l-176.513-4.03187v40.1921l329.62832-7.53928,67.44528,7.42379v31.2622a8.99685,8.99685,0,0,0,8.97658,8.9916H790.35893a9.01039,9.01039,0,0,0,8.9924-8.9916V804.73907a9.00264,9.00264,0,0,0-8.9924-8.97657M473.74785,783.15589c7.35339.1234,14.72339-.09255,22.10842-.59485v58.25363l-22.10842-.51021Z" transform="translate(0.25079)"/><path class="cls-2" d="M271.34767,869.45065c0,8.47428-5.91689,15.3491-13.20146,15.3491h-7.94112c-7.27666,0-13.20937-6.87482-13.20937-15.3491V841.66423c0-8.48218,5.93271-15.342,13.20937-15.342h7.94112c7.28457,0,13.20146,6.85979,13.20146,15.342Z" transform="translate(0.25079)"/><path class="cls-2" d="M344.55646,70.28911h22.00085c14.97027,0,20.44015,7.423,20.44015,19.79072v18.61683c0,12.36771-5.46988,19.9149-20.44015,19.9149h-7.16117v29.942H344.55646Zm14.83968,12.11221V117.1559h5.46916c5.07523,0,7.29248-2.472,7.29248-7.29248V89.5625c0-4.82053-2.21725-7.16118-7.29248-7.16118Z" transform="translate(0.25079)"/><path class="cls-2" d="M390.90592,158.55353,407.5682,70.28911h16.92554l16.79351,88.26442H426.05451l-2.73466-16.14566H407.5682l-2.60335,16.14566Zm18.61683-27.98734h11.84247l-5.856-35.41113h-.13131Z" transform="translate(0.25079)"/><path class="cls-2" d="M460.55351,146.44844h22.5253v12.10509H445.06519V146.44844l23.306-64.04712H447.40584V70.28911h36.585V82.40132Z" transform="translate(0.25079)"/><path class="cls-2" d="M505.60489,145.53639l-7.5551,19.9149h-8.32715L491.546,144.3625h14.05893Z" transform="translate(0.25079)"/><path class="cls-2" d="M564.44546,70.28911v68.21821c0,12.75373-5.59327,21.08879-20.44014,21.08879-15.357,0-19.52889-8.46637-19.52889-19.6602V122.36245h14.06763v17.83608c0,4.42659,1.55991,7.02986,5.46126,7.02986,4.03977,0,5.60047-2.60327,5.60047-7.16117V70.28911Z" transform="translate(0.25079)"/><path class="cls-2" d="M614.56425,70.28911v66.78882c0,13.665-5.85527,22.51818-20.95756,22.51818-15.61954,0-22.12425-8.85318-22.12425-22.51818V70.28911h14.83968v68.21821c0,5.20654,2.078,8.72107,7.28457,8.72107s7.29248-3.51453,7.29248-8.72107V70.28911Z" transform="translate(0.25079)"/><path class="cls-2" d="M620.82128,139.54989V127.7003h13.797v12.1043c0,4.95183,2.21645,7.81773,7.29177,7.81773,4.68913,0,6.76715-3.12852,6.76715-7.81773v-3.38322c0-5.07523-2.078-8.19584-6.63592-12.49112l-8.72108-8.729c-8.46637-8.32715-12.36771-13.40317-12.36771-23.56076V88.65044c0-10.93833,6.3733-19.39678,20.82617-19.39678,14.83967,0,20.70276,7.29248,20.70276,20.04621v7.16038H648.93985v-7.6785c0-5.08235-2.34065-7.55431-7.02978-7.55431-4.16326,0-7.02915,2.34065-7.02915,7.29169v1.82332c0,4.94392,2.73458,7.80981,7.02915,11.97378l9.50174,9.36972c8.07243,8.20454,11.98169,13.15558,11.98169,22.92v4.29528c0,12.10509-6.51253,20.69486-21.61482,20.69486C626.67717,159.59611,620.82128,151.12974,620.82128,139.54989Z" transform="translate(0.25079)"/><path class="cls-2" d="M668.21323,70.28911H707.657V82.40132h-12.2364v76.15221h-14.971V82.40132h-12.2364Z" transform="translate(0.25079)"/><path class="cls-2" d="M713.25749,70.28911h14.83888v88.26442H713.25749Z" transform="translate(0.25079)"/><path class="cls-2" d="M751.00857,167.53723c4.16388-.13131,4.82043-1.04257,4.82043-2.08594,0-.91126-.77995-1.42859-2.08594-1.42859h-.64864v-4.82052c-12.63024-1.5607-17.83687-11.06252-17.83687-23.42945V93.077c0-13.80422,6.51252-23.82337,22.13215-23.82337,16.39958,0,20.95748,9.10789,20.95748,22.12424v10.42021h-13.5416v-11.587c0-5.46917-1.82332-8.59768-7.15326-8.59768-5.33785,0-7.5551,3.77716-7.5551,9.115v47.38491c0,5.33786,2.21725,9.115,7.5551,9.115,5.32994,0,7.15326-3.38322,7.15326-8.58976V122.36245h13.5416v15.23281c0,12.36772-4.94392,21.48352-19.66019,22.00085v1.16676c3.51532.52524,5.46916,1.82253,5.46916,4.68842,0,4.04057-3.77716,6.24991-13.14758,6.24991Z" transform="translate(0.25079)"/><path class="cls-2" d="M782.77377,158.55353,799.436,70.28911h16.92561l16.79351,88.26442H817.92158l-2.72676-16.14566H799.436l-2.59527,16.14566Zm18.61683-27.98734h11.84959l-5.8551-35.41113h-.13931Z" transform="translate(0.25079)"/><path class="cls-2" d="M850.34254,70.28911h35.41113V82.40132H865.18221v25.25276h14.71637v11.97379H865.18221v26.82057h20.57146v12.10509H850.34254Z" transform="translate(0.25079)"/><path class="cls-2" d="M345.08171,186.30119h14.83967V274.5577H345.08171Z" transform="translate(0.25079)"/><path class="cls-2" d="M382.18484,219.10114V274.5577H369.6859V186.30119h14.577l16.01356,50.62892V186.30119h12.36692V274.5577H399.627Z" transform="translate(0.25079)"/><path class="cls-2" d="M421.49653,255.54694V243.70447h13.80422v12.10509c0,4.94392,2.20934,7.80982,7.28457,7.80982,4.68921,0,6.77436-3.1214,6.77436-7.80982v-3.384c0-5.07524-2.08515-8.20375-6.64305-12.49824l-8.72107-8.72186c-8.46716-8.33506-12.36772-13.41029-12.36772-23.56076v-2.9972c0-10.93042,6.38051-19.39678,20.82617-19.39678,14.8468,0,20.70277,7.29169,20.70277,20.05333v7.15326h-13.5416v-7.6785c0-5.07523-2.34065-7.54719-7.02986-7.54719-4.164,0-7.022,2.34065-7.022,7.28457v1.82332c0,4.951,2.72667,7.81772,7.022,11.9809l9.50894,9.37051c8.07323,8.20375,11.97378,13.14767,11.97378,22.91211v4.29449c0,12.10509-6.51173,20.70277-21.614,20.70277C427.35971,275.60028,421.49653,267.13391,421.49653,255.54694Z" transform="translate(0.25079)"/><path class="cls-2" d="M471.36053,186.30119h39.4509v12.09718H498.575V274.5577h-14.971V198.39837H471.36053Z" transform="translate(0.25079)"/><path class="cls-2" d="M518.88387,186.30119h14.83967V274.5577H518.88387Z" transform="translate(0.25079)"/><path class="cls-2" d="M541.796,186.30119h39.443v12.09718H569.00257V274.5577H554.03238V198.39837H541.796Z" transform="translate(0.25079)"/><path class="cls-2" d="M632.40105,186.30119V253.075c0,13.67291-5.85519,22.5253-20.95748,22.5253-15.61963,0-22.13216-8.85239-22.13216-22.5253V186.30119h14.83967v68.2103c0,5.20654,2.08594,8.72186,7.29249,8.72186s7.29248-3.51532,7.29248-8.72186v-68.2103Z" transform="translate(0.25079)"/><path class="cls-2" d="M641.91007,186.30119h14.83968V274.5577H641.91007Z" transform="translate(0.25079)"/><path class="cls-2" d="M682.14173,283.5414c4.16309-.13131,4.81252-1.04257,4.81252-2.08515,0-.91205-.78074-1.42938-2.08594-1.42938h-.64864v-4.82053c-12.62234-1.5599-17.83688-11.06172-17.83688-23.42944V209.07408c0-13.7971,6.51183-23.82337,22.13137-23.82337,16.40828,0,20.95827,9.115,20.95827,22.13136v10.41309H695.938V206.21531c0-5.46917-1.82332-8.59768-7.16117-8.59768-5.33777,0-7.5472,3.778-7.5472,9.1158v47.38412c0,5.33786,2.20943,9.1158,7.5472,9.1158,5.33785,0,7.16117-3.384,7.16117-8.59846V238.36662h13.53448v15.2336c0,12.36772-4.94393,21.47481-19.65229,22.00006V276.767c3.51462.52524,5.46125,1.82332,5.46125,4.68921,0,4.03187-3.77,6.24912-13.13966,6.24912Z" transform="translate(0.25079)"/><path class="cls-2" d="M718.72674,251.7769V209.07408c0-13.7971,6.75924-23.82337,22.38678-23.82337,15.75094,0,22.51739,10.02627,22.51739,23.82337V251.7769c0,13.665-6.76645,23.82338-22.51739,23.82338C725.486,275.60028,718.72674,265.4419,718.72674,251.7769Zm8.84439-68.99815c.26262-6.1186,2.60327-11.06252,9.1158-11.06252,3.76934,0,6.89855,2.20934,8.85239,2.20934a1.73775,1.73775,0,0,0,1.81541-1.94672h7.29257c-.2548,6.11069-2.59545,11.06252-9.108,11.06252-3.77716,0-6.89776-2.21725-8.85239-2.21725a1.74972,1.74972,0,0,0-1.82323,1.95463Zm21.22089,71.3388V206.73343c0-5.33785-2.34065-9.1158-7.6785-9.1158-5.20654,0-7.5471,3.778-7.5471,9.1158v47.38412c0,5.33786,2.34056,9.1158,7.5471,9.1158C746.45137,263.23335,748.792,259.45541,748.792,254.11755Z" transform="translate(0.25079)"/><path class="cls-2" d="M773.27195,186.30119h35.41043v12.09718H788.11162v25.25988h14.70757V235.632H788.11162V262.4447h20.57076v12.113H773.27195Z" transform="translate(0.25079)"/><path class="cls-2" d="M817.01023,255.54694V243.70447h13.80421v12.10509c0,4.94392,2.20934,7.80982,7.28458,7.80982,4.68921,0,6.77435-3.1214,6.77435-7.80982v-3.384c0-5.07524-2.08514-8.20375-6.643-12.49824l-8.72108-8.72186c-8.45925-8.33506-12.3598-13.41029-12.3598-23.56076v-2.9972c0-10.93042,6.3726-19.39678,20.82617-19.39678,14.83888,0,20.69485,7.29169,20.69485,20.05333v7.15326H845.136v-7.6785c0-5.07523-2.34777-7.54719-7.037-7.54719-4.164,0-7.02195,2.34065-7.02195,7.28457v1.82332c0,4.951,2.72667,7.81772,7.02195,11.9809l9.50894,9.37051c8.07322,8.20375,11.97378,13.14767,11.97378,22.91211v4.29449c0,12.10509-6.51174,20.70277-21.60612,20.70277C822.87341,275.60028,817.01023,267.13391,817.01023,255.54694Z" transform="translate(0.25079)"/><path class="cls-2" d="M345.08171,307.11006h35.41113v12.10509H359.92138v25.26067h14.70844v11.973H359.92138v26.82137h20.57146v12.1043H345.08171Z" transform="translate(0.25079)"/><path class="cls-2" d="M389.47654,307.11006h34.75457v12.10509h-19.9149v25.26067h14.83967v11.973H404.31621v38.92567H389.47654Z" transform="translate(0.25079)"/><path class="cls-2" d="M431.91753,307.11006h14.83888v88.26442H431.91753Z" transform="translate(0.25079)"/><path class="cls-2" d="M456.52085,372.59368V329.89877c0-13.80422,6.50462-23.83128,22.13216-23.83128,16.39958,0,20.95748,9.115,20.95748,22.13136v10.421h-13.5416V327.025c0-5.46126-1.82332-8.58977-7.16117-8.58977s-7.54719,3.77716-7.54719,9.115v47.38412c0,5.33865,2.20934,9.1158,7.54719,9.1158s7.16117-3.38322,7.16117-8.58976v-16.277h13.5416V374.417c0,12.62243-5.20655,22.00085-20.95748,22.00085C463.02547,396.41785,456.52085,386.25947,456.52085,372.59368Z" transform="translate(0.25079)"/><path class="cls-2" d="M506.509,395.37448l16.67011-88.26442H540.104l16.79439,88.26442H541.66467l-2.73458-16.14487H523.17915l-2.60327,16.14487Zm18.61683-27.98734h11.84959l-5.8631-35.41034h-.1234Z" transform="translate(0.25079)"/><path class="cls-2" d="M578.63579,383.27018h22.51809v12.1043H563.13956v-12.1043l23.306-64.055H565.488V307.11006h36.57711v12.10509Z" transform="translate(0.25079)"/><path class="cls-2" d="M610.92553,307.11006h35.411v12.10509H625.7652v25.26067h14.71619v11.973H625.7652v26.82137h20.57137v12.1043h-35.411Z" transform="translate(0.25079)"/><path class="cls-2" d="M654.67163,376.36372V364.52125h13.7971v12.10509c0,4.95183,2.21646,7.81773,7.28457,7.81773,4.68842,0,6.77436-3.12852,6.77436-7.81773v-3.38322c0-5.07523-2.08594-8.20375-6.643-12.499l-8.722-8.72107c-8.45845-8.32794-12.36771-13.40317-12.36771-23.56155v-2.9972c0-10.93042,6.38122-19.39678,20.83408-19.39678,14.83967,0,20.69486,7.29248,20.69486,20.05333V333.282h-13.5336v-7.68641c0-5.07523-2.34865-7.54719-7.03707-7.54719-4.156,0-7.02195,2.34065-7.02195,7.28457v1.82332c0,4.95183,2.73458,7.81772,7.02195,11.98169l9.50894,9.36972c8.07252,8.20375,11.97378,13.14767,11.97378,22.91211v4.29528c0,12.11221-6.50462,20.70277-21.60691,20.70277C660.52761,396.41785,654.67163,387.95148,654.67163,376.36372Z" transform="translate(0.25079)"/></svg>