<svg id="Layer_1" data-name="Layer 1" xmlns="http://www.w3.org/2000/svg" viewBox="0 0 1079.95343 1080"><defs><style>.cls-1{fill:#1b4668;}.cls-2{fill:#fff;}</style></defs><rect class="cls-1" width="1079.95343" height="1080"/><polygon class="cls-2" points="161.599 90.506 161.599 308.25 124.99 308.25 124.99 141.568 124.665 141.568 98.972 168.219 98.656 168.219 98.656 130.011 132.383 90.506 161.599 90.506"/><polygon class="cls-2" points="178.3 90.506 270.158 90.506 270.158 124.226 222.302 308.25 185.995 308.25 234.816 120.371 178.3 120.371 178.3 90.506"/><path class="cls-2" d="M814.20208,654.99373c0-75.84323-60.33175-137.81323-135.49627-140.55576a140.8816,140.8816,0,0,0-132.62232-93.81248c-61.14347,0-113.26424,39.22763-132.62254,93.81248-75.16453,2.74965-135.46543,64.71965-135.46543,140.55576a140.37817,140.37817,0,0,0,54.27556,110.87678,140.52222,140.52222,0,0,0-5.55468,39.05043c0,77.53527,63.098,140.64119,140.672,140.64119a139.88894,139.88894,0,0,0,79.38234-24.62741,139.918,139.918,0,0,0,78.03758,23.6924c77.559,0,140.657-63.10513,140.657-140.64119a139.92159,139.92159,0,0,0-5.33-38.26968,140.49727,140.49727,0,0,0,54.06672-110.72252M658.42752,561.28251c0,56.307-41.668,102.91971-95.78216,110.97723a113.92444,113.92444,0,0,1-1.44444-17.266c0-56.30694,41.66086-102.93553,95.75922-110.97723a111.43287,111.43287,0,0,1,1.46738,17.266M546.60863,884.44962a112.03,112.03,0,0,1-1.03547-160.02323,112.02767,112.02767,0,0,1,1.03547,160.02323m-111.387-340.44815c54.09836,8.05673,95.775,54.68532,95.775,110.99226a111.829,111.829,0,0,1-1.47608,17.266c-54.10548-8.05752-95.77425-54.67028-95.77425-110.97723a111.79823,111.79823,0,0,1,1.47529-17.281m83.75441,161.24381a111.88794,111.88794,0,0,1-151.92694,49.417,111.90781,111.90781,0,0,1,151.92694-49.417m53.86659-.76494A111.94367,111.94367,0,0,1,725.51949,754.4922a111.94371,111.94371,0,0,1-152.67685-50.01186M546.08349,448.94548a112.44328,112.44328,0,0,1,102.97417,67.54761,141.14032,141.14032,0,0,0-102.97417,79.03429A141.02343,141.02343,0,0,0,443.117,516.49309a112.4642,112.4642,0,0,1,102.96649-67.54761M306.3076,654.99373A112.49094,112.49094,0,0,1,406.60817,543.30615a142.34529,142.34529,0,0,0-1.18181,17.97636,140.33453,140.33453,0,0,0,45.94829,103.9006A140.958,140.958,0,0,0,343.53389,738.2846a111.97529,111.97529,0,0,1-37.22629-83.29087m48.7367,149.92721a111.1,111.1,0,0,1,2.45618-23.27553A140.39312,140.39312,0,0,0,486.56956,778.115a139.954,139.954,0,0,0,37.32755,123.7003A112.101,112.101,0,0,1,355.0443,804.92094m382.10109-.935A112.15439,112.15439,0,0,1,569.4127,901.56771a140.02916,140.02916,0,0,0,36.00662-123.569,140.26277,140.26277,0,0,0,129.455,3.5304,111.60052,111.60052,0,0,1,2.27107,22.45681M641.66473,664.36438a140.33406,140.33406,0,0,0,45.09069-103.08187,142.12249,142.12249,0,0,0-1.18181-17.96845A112.14118,112.14118,0,0,1,748.97222,737.984a140.9536,140.9536,0,0,0-107.30749-73.61963" transform="translate(0.25877)"/><path class="cls-2" d="M317.49289,90.25122h22.00117c14.9712,0,20.44044,7.42311,20.44044,19.78309v18.6179c0,12.375-5.46924,19.92232-20.44044,19.92232h-7.16128v29.9424H317.49289Zm14.83989,12.10448v34.763H337.802c5.07531,0,7.29259-2.47991,7.29259-7.29259V109.517c0-4.81269-2.21728-7.16128-7.29259-7.16128Z" transform="translate(0.25877)"/><path class="cls-2" d="M362.01968,178.51693l16.66324-88.26571H395.608l16.79455,88.26571H397.16871l-2.73463-16.1451H378.68292l-2.60331,16.1451Zm18.6171-27.98775h11.84276l-5.85538-35.41165h-.13132Z" transform="translate(0.25877)"/><path class="cls-2" d="M430.10836,138.03v40.487H415.26847V90.25122h21.60644c14.9712,0,20.44044,7.42311,20.44044,19.78309v11.33322c0,9.50117-3.38327,15.10173-11.84976,17.04847L459.656,178.51693H444.03618Zm0-35.67428v27.47041h4.944c5.07531,0,7.2918-2.60331,7.2918-7.29259V109.517c0-4.81269-2.21649-7.16128-7.2918-7.16128Z" transform="translate(0.25877)"/><path class="cls-2" d="M462.14386,155.7358V113.03156c0-13.79651,6.50392-23.82372,22.12377-23.82372,16.40062,0,20.95779,9.11593,20.95779,22.13248v10.41324H491.68374V110.16563c0-5.46134-1.81555-8.58989-7.1606-8.58989-5.33081,0-7.5473,3.77721-7.5473,9.11514v47.38561c0,5.33793,2.21649,9.11514,7.5473,9.11514,5.34505,0,7.1606-3.39119,7.1606-8.5978V142.32532h13.54168v15.23383c0,12.62261-5.20662,22.00037-20.95779,22.00037C468.64778,179.55952,462.14386,169.401,462.14386,155.7358Z" transform="translate(0.25877)"/><path class="cls-2" d="M510.046,90.25122h35.41165V102.3557H524.8859v25.261h14.7157v11.974H524.8859v26.81305h20.57176v12.11318H510.046Z" transform="translate(0.25877)"/><path class="cls-2" d="M564.986,138.03v40.487h-14.8391V90.25122h21.60644c14.9712,0,20.44045,7.42311,20.44045,19.78309v11.33322c0,9.50117-3.38328,15.10173-11.85044,17.04847l14.19124,40.10093h-15.62Zm0-35.67428v27.47041h4.944c5.0753,0,7.29258-2.60331,7.29258-7.29259V109.517c0-4.81269-2.21728-7.16128-7.29258-7.16128Z" transform="translate(0.25877)"/><path class="cls-2" d="M596.88311,90.25122h14.847v88.26571h-14.847Z" transform="translate(0.25877)"/><path class="cls-2" d="M614.71945,178.51693l16.66324-88.26571h16.92507l16.79455,88.26571H649.86848l-2.72671-16.1451H631.38269l-2.60331,16.1451Zm18.6179-27.98775h11.84976l-5.86318-35.41165h-.13131Z" transform="translate(0.25877)"/><path class="cls-2" d="M667.18828,159.5051V147.66325h13.79651v12.10527c0,4.944,2.2174,7.80993,7.29259,7.80993,4.68137,0,6.76666-3.12935,6.76666-7.80993v-3.38407c0-5.0753-2.08529-8.20386-6.63535-12.4992l-8.722-8.72121c-8.46649-8.33518-12.3671-13.41048-12.3671-23.56109V108.6057c0-10.93137,6.38052-19.39786,20.82659-19.39786,14.839,0,20.69505,7.29259,20.69505,20.05442v7.15337H695.30655V108.737c0-5.07531-2.3478-7.5473-7.02917-7.5473-4.164,0-7.03,2.34068-7.03,7.28468v1.82255c0,4.9519,2.73463,7.80993,7.03,11.98187l9.50117,9.37065c8.07334,8.20386,11.98186,13.14785,11.98186,22.91165v4.29534c0,12.10527-6.51262,20.70307-21.61423,20.70307C673.04355,179.55952,667.18828,171.093,667.18828,159.5051Z" transform="translate(0.25877)"/><path class="cls-2" d="M724.73174,90.25122h35.41074V102.3557H739.57072v25.261h14.71649v11.974H739.57072v26.81305h20.57176v12.11318H724.73174Z" transform="translate(0.25877)"/><path class="cls-2" d="M815.99457,121.23622h-.39393l-10.0193,57.28071h-6.89865l-11.0698-57.28071h-.26251v57.28071h-12.2367V90.25122h17.3198l9.62536,49.73341h.13843L810.788,90.25122h18.74062v88.26571h-13.534Z" transform="translate(0.25877)"/><path class="cls-2" d="M834.7509,90.25122h35.40374V102.3557H849.58288v25.261h14.7157v11.974h-14.7157v26.81305h20.57176v12.11318H834.7509Z" transform="translate(0.25877)"/><path class="cls-2" d="M874.84313,90.25122H889.683v88.26571H874.84313Z" transform="translate(0.25877)"/><path class="cls-2" d="M894.88964,155.7358V113.03156c0-13.79651,6.77525-23.82372,22.3951-23.82372,15.75129,0,22.51772,10.02721,22.51772,23.82372V155.7358c0,13.6652-6.76643,23.82372-22.51772,23.82372C901.66489,179.55952,894.88964,169.401,894.88964,155.7358Zm30.07372,2.34069V110.69088c0-5.33793-2.34069-9.11514-7.67862-9.11514-5.20662,0-7.55521,3.77721-7.55521,9.11514v47.38561c0,5.33793,2.34859,9.11514,7.55521,9.11514C922.62267,167.19163,924.96336,163.41442,924.96336,158.07649Z" transform="translate(0.25877)"/><path class="cls-2" d="M944.23715,159.5051V147.66325h13.79638v12.10527c0,4.944,2.20937,7.80993,7.28481,7.80993,4.68915,0,6.77512-3.12935,6.77512-7.80993v-3.38407c0-5.0753-2.086-8.20386-6.64394-12.4992l-8.7212-8.72121c-8.45858-8.33518-12.3679-13.41048-12.3679-23.56109V108.6057c0-10.93137,6.38132-19.39786,20.83439-19.39786,14.83989,0,20.69516,7.29259,20.69516,20.05442v7.15337h-13.5418V108.737c0-5.07531-2.34068-7.5473-7.02983-7.5473-4.16337,0-7.02218,2.34068-7.02218,7.28468v1.82255c0,4.9519,2.7275,7.80993,7.02218,11.98187l9.50974,9.37065c8.07255,8.20386,11.974,13.14785,11.974,22.91165v4.29534c0,12.10527-6.50472,20.70307-21.60723,20.70307S944.23715,171.093,944.23715,159.5051Z" transform="translate(0.25877)"/><path class="cls-2" d="M362.66912,242.54126v41.51451c0,13.74984-5.686,24.06341-21.81606,24.06341H317.58544V218.47785h23.26762C356.98314,218.47785,362.66912,228.65931,362.66912,242.54126ZM338.99966,295.828c6.21835,0,8.5978-3.7076,8.5978-9.12306V239.76787c0-5.29126-2.37945-8.99174-8.5978-8.99174h-6.34255V295.828Z" transform="translate(0.25877)"/><path class="cls-2" d="M369.79876,218.47785h35.96775v12.29828H384.87833V256.4232h14.94036v12.167H384.87833V295.828h20.88818v12.29116H369.79876Z" transform="translate(0.25877)"/><path class="cls-2" d="M424.67,218.47785h15.07087v89.64133H424.67Z" transform="translate(0.25877)"/><path class="cls-2" d="M488.52422,249.94934h-.39394l-10.18146,58.16984H470.9427l-11.24-58.16984h-.26262v58.16984h-12.4296V218.47785H464.6l9.77962,50.50626h.13131l8.722-50.50626h19.04189v89.64133H488.52422Z" transform="translate(0.25877)"/><path class="cls-2" d="M509.41239,218.47785H531.7537c15.2101,0,20.75687,7.54018,20.75687,20.1003v18.90346c0,12.56091-5.54677,20.23161-20.75687,20.23161h-7.26964v30.406H509.41239Zm15.07167,12.29828v35.30328h5.55467c5.15215,0,7.40017-2.51075,7.40017-7.40808V238.04578c0-4.8902-2.248-7.26965-7.40017-7.26965Z" transform="translate(0.25877)"/><path class="cls-2" d="M558.721,218.47785h15.07958V295.828H591.777v12.29116H558.721Z" transform="translate(0.25877)"/><path class="cls-2" d="M597.19161,218.47785h35.96775v12.29828H612.26328V256.4232h14.94035v12.167H612.26328V295.828h20.89608v12.29116H597.19161Z" transform="translate(0.25877)"/><path class="cls-2" d="M681.14695,249.94934H680.753l-10.18146,58.16984h-7.007l-11.23987-58.16984H652.062v58.16984h-12.4288V218.47785h17.58163l9.78752,50.50626h.13132l8.722-50.50626h19.04189v89.64133H681.14695Z" transform="translate(0.25877)"/><path class="cls-2" d="M702.03513,218.47785H737.995v12.29828H717.09888V256.4232h14.94827v12.167H717.09888V295.828H737.995v12.29116H702.03513Z" transform="translate(0.25877)"/><path class="cls-2" d="M757.16105,251.79562v56.32356H744.46883V218.47785h14.809l16.2606,51.43336V218.47785h12.56091v89.64133H774.88191Z" transform="translate(0.25877)"/><path class="cls-2" d="M793.52274,218.47785h40.05347v12.29828H821.15452v77.343h-15.2101v-77.343H793.52274Z" transform="translate(0.25877)"/><path class="cls-2" d="M836.75144,308.11918l16.92586-89.64133h17.17978l17.05718,89.64133H872.44865l-2.78129-16.3927H853.6773l-2.65,16.3927Zm18.90346-28.42045h12.03486L861.734,243.731h-.13131Z" transform="translate(0.25877)"/><path class="cls-2" d="M908.67112,317.24223c4.22573-.13131,4.8902-1.05841,4.8902-2.10891,0-.92709-.79578-1.46025-2.11682-1.46025H910.78v-4.89021c-12.82353-1.58366-18.10767-11.23987-18.10767-23.8v-43.3608c0-14.02117,6.60517-24.20263,22.47262-24.20263,16.66245,0,21.29,9.25516,21.29,22.47975v10.5754H922.68437V238.70946c0-5.55388-1.85407-8.72911-7.26964-8.72911-5.42258,0-7.67071,3.8397-7.67071,9.26227v48.11891c0,5.42336,2.24813,9.25515,7.67071,9.25515,5.41557,0,7.26964-3.43785,7.26964-8.722V271.36355H936.435v15.47273c0,12.5609-5.02151,21.80815-19.96186,22.34052v1.18972c3.56916.53316,5.54676,1.8542,5.54676,4.7668,0,4.09442-3.83167,6.34176-13.34878,6.34176Z" transform="translate(0.25877)"/><path class="cls-2" d="M940.79126,308.11918l16.92586-89.64133h17.18769l17.04926,89.64133h-15.4656l-2.77259-16.3927H957.71712l-2.65,16.3927Zm11.76591-93.20971c.26974-6.21123,2.64919-11.23987,9.25436-11.23987,3.839,0,7.01415,2.24734,8.99174,2.24734a1.77193,1.77193,0,0,0,1.8542-1.9776h7.40017c-.26263,6.21124-2.64207,11.23276-9.25437,11.23276-3.83166,0-7.007-2.24022-8.99174-2.24022a1.77007,1.77007,0,0,0-1.84628,1.97759Zm7.14545,64.78926h12.02775L965.78176,243.731h-.13119Z" transform="translate(0.25877)"/><path class="cls-2" d="M996.713,284.98287v-43.3608c0-14.02117,6.87491-24.20263,22.74237-24.20263,15.998,0,22.87368,10.18146,22.87368,24.20263v43.3608c0,13.88115-6.87571,24.19393-22.87368,24.19393C1003.58788,309.1768,996.713,298.864,996.713,284.98287Zm30.54438,2.37866V239.24262c0-5.42257-2.37944-9.26227-7.802-9.26227-5.29206,0-7.66346,3.8397-7.66346,9.26227v48.11891c0,5.42336,2.3714,9.25515,7.66346,9.25515C1024.87791,296.61668,1027.25735,292.78489,1027.25735,287.36153Z" transform="translate(0.25877)"/></svg>