<svg id="Layer_1" data-name="Layer 1" xmlns="http://www.w3.org/2000/svg" viewBox="0 0 1079.95807 1080"><defs><style>.cls-1{fill:#d4a03d;}.cls-2{fill:#fff;}</style></defs><rect class="cls-1" width="1079.95807" height="1080"/><path class="cls-2" d="M201.71232,278.38968H141.64943v-10.271c0-17.01787,6.11008-23.4412,15.42311-33.4029l23.43013-24.72033c18.94566-20.23586,23.12874-33.08332,23.12874-54.93372V133.86791c0-31.14762-15.09878-45.92919-47.86094-45.92919-32.10162,0-48.47874,17.02183-48.47874,47.5366v26.323h33.39578V134.50549c0-13.152,6.42333-17.02973,14.14082-17.02973,7.0451,0,13.15992,2.90474,13.15992,16.39215V151.8564c0,17.99165-1.61849,25.05573-13.4882,37.5749L133.928,211.26983c-19.88781,21.20174-27.28492,35.33861-27.28492,56.84885v40.14345h95.06925Z" transform="translate(0.26109)"/><path class="cls-2" d="M430.5063,917.68829v15.19529a1.94324,1.94324,0,0,0-.05379.33619,2.35045,2.35045,0,0,0,.05379.35519,7.12637,7.12637,0,0,0,7.00712,6.82122c.04193,0,.08465.03481.13132.03481.04983,0,.11945-.03481.17719-.03481H615.97045c.05063,0,.08939.03481.1511.03481.05379,0,.10441-.03481.16218-.03481a7.15323,7.15323,0,0,0,7.01423-7.13448c0-.015.02689-.0269.02689-.04193a.09693.09693,0,0,1-.02689-.05062V915.9812c100.291-32.87053,175.41786-114.166,191.93813-213.20554.04193-.22386.06566-.41292.10046-.587a5.69183,5.69183,0,0,0,.09256-1.00464,7.18724,7.18724,0,0,0-7.20014-7.19935H240.4651a7.20487,7.20487,0,0,0-7.23495,7.19935l.37891,3.24489c17.358,99.98563,94.54716,181.72568,196.89724,213.25933" transform="translate(0.26109)"/><path class="cls-2" d="M623.13975,451.65982c-2.34468,3.32558-57.189,82.29932,1.23166,146.15846,26.78339,29.31317,24.46166,55.16945,16.80271,72.6398h37.47443c7.58934-25.79457,4.46865-58.13589-25.96465-91.38058-43.04422-47.04615.549-110.65453,1.21347-111.63938,5.141-7.25,2.37869-16.605-6.084-20.97-8.50142-4.34129-19.50968-2.02351-24.67365,5.19166" transform="translate(0.26109)"/><path class="cls-2" d="M528.23266,670.45413h37.49026c7.57827-25.79853,4.42989-58.124-25.99155-91.37267-43.05925-47.06514.50232-110.63871,1.1937-111.67419,5.10623-7.22309,2.40242-16.57014-6.099-20.94307-8.46661-4.32942-19.50177-2.02351-24.63885,5.18771-2.35652,3.32162-57.25859,82.30723,1.21663,146.16637,26.79051,29.31317,24.45771,55.17657,16.82881,72.63585" transform="translate(0.26109)"/><path class="cls-2" d="M397.211,451.65982c-2.37553,3.32558-57.227,82.29932,1.20951,146.15846,26.80159,29.329,24.48065,55.18053,16.85175,72.6398h37.47444c7.57115-25.77875,4.44571-58.12006-26.00658-91.38058-43.05925-47.04615.53713-110.65453,1.22851-111.66232,5.0912-7.227,2.37157-16.582-6.12194-20.947-8.46662-4.36423-19.49465-2.03538-24.63569,5.19166" transform="translate(0.26109)"/><path class="cls-2" d="M308.183,70.45255h34.75955V82.558H323.02309v25.25746H337.8632v11.97729H323.02309v38.92365H308.183Z" transform="translate(0.26109)"/><path class="cls-2" d="M350.62522,135.93492V93.234c0-13.79671,6.76664-23.82407,22.39068-23.82407,15.7514,0,22.51884,10.02736,22.51884,23.82407v42.70091c0,13.66936-6.76744,23.82407-22.51884,23.82407C357.39186,159.759,350.62522,149.60428,350.62522,135.93492Zm30.07337,2.34468V90.88934c0-5.33406-2.34468-9.11132-7.68269-9.11132-5.20669,0-7.55136,3.77726-7.55136,9.11132V138.2796c0,5.338,2.34467,9.11132,7.55136,9.11132C378.35391,147.39092,380.69859,143.61761,380.69859,138.2796Z" transform="translate(0.26109)"/><path class="cls-2" d="M446.04965,101.438h-.39078l-10.02261,57.27839h-6.89875L417.6715,101.438h-.26263v57.27839h-12.2328V70.45255h17.31135l9.63341,49.731h.13132l8.5908-49.731h18.74869v88.26384h-13.542Z" transform="translate(0.26109)"/><path class="cls-2" d="M469.22822,70.45255h35.4082V82.558H484.06831v25.25746h14.71277v11.97729H484.06831v26.8182h20.56811v12.10545h-35.4082Z" transform="translate(0.26109)"/><path class="cls-2" d="M543.04588,146.61094h22.51883v12.10545H527.55315V146.61094L550.852,82.558H529.89387V70.45255H566.476V82.558Z" transform="translate(0.26109)"/><path class="cls-2" d="M575.46392,70.45255h35.40821V82.558H590.304v25.25746h14.71275v11.97729H590.304v26.8182h20.5681v12.10545H575.46392Z" transform="translate(0.26109)"/><path class="cls-2" d="M634.70016,118.23279v40.4836H619.86005V70.45255H641.4676c14.97458,0,20.44074,7.42005,20.44074,19.78813v11.32863c0,9.5021-3.38411,15.09878-11.84675,17.04952l14.19064,40.09756h-15.624Zm0-35.6748v27.47082h4.948c5.07538,0,7.28876-2.60335,7.28876-7.28874V89.71937c0-4.8167-2.21338-7.16138-7.28876-7.16138Z" transform="translate(0.26109)"/><path class="cls-2" d="M671.02362,135.93492V93.234c0-13.79671,6.77139-23.82407,22.39148-23.82407,15.75139,0,22.522,10.02736,22.522,23.82407v42.70091c0,13.66936-6.77061,23.82407-22.522,23.82407C677.795,159.759,671.02362,149.60428,671.02362,135.93492Zm30.0702,2.34468V90.88934c0-5.33406-2.34072-9.11132-7.67872-9.11132-5.2067,0-7.55137,3.77726-7.55137,9.11132V138.2796c0,5.338,2.34467,9.11132,7.55137,9.11132C698.7531,147.39092,701.09382,143.61761,701.09382,138.2796Z" transform="translate(0.26109)"/><path class="cls-2" d="M307.92431,192.96492h35.40821v12.10941h-20.5681v25.25745h14.71275v11.97413H322.76442v26.81741h20.5681v12.10545H307.92431Z" transform="translate(0.26109)"/><path class="cls-2" d="M365.20586,281.22877l16.66348-88.26385h16.92532l16.7948,88.26385H400.3554l-2.7307-16.14218H381.86934L379.266,281.22877Zm18.61738-27.99212H395.67l-5.85931-35.40426h-.12736Z" transform="translate(0.26109)"/><path class="cls-2" d="M445.40415,234.10509h21.08941v47.12368h-10.676v-9.62946c-1.95389,6.63533-6.118,10.67206-14.19065,10.67206-12.75807,0-18.61422-10.15076-18.61422-23.82407V215.74639c0-13.79671,6.63613-23.82012,22.26017-23.82012,16.404,0,21.22072,9.11212,21.22072,22.12885v7.814h-13.542v-8.98475c0-5.46933-2.082-8.594-7.42006-8.594s-7.67873,3.77727-7.67873,9.11528V260.792c0,5.338,2.21336,9.11132,7.28874,9.11132,4.81671,0,7.2927-2.73466,7.2927-8.4587v-15.628h-7.03007Z" transform="translate(0.26109)"/><path class="cls-2" d="M491.09838,240.74121v40.48756H476.25827V192.96492H497.869c14.97142,0,20.43679,7.42006,20.43679,19.78813v11.32547c0,9.50131-3.38332,15.102-11.846,17.05664l14.19065,40.09361h-15.624Zm0-35.66688v27.46685h4.948c5.07538,0,7.2919-2.60334,7.2919-7.28874V212.23571c0-4.82067-2.21652-7.16138-7.2919-7.16138Z" transform="translate(0.26109)"/><path class="cls-2" d="M527.68447,192.96492h14.8401v88.26385h-14.8401Z" transform="translate(0.26109)"/><path class="cls-2" d="M552.41983,258.4473V215.74639c0-13.79671,6.50876-23.82012,22.12884-23.82012,16.404,0,20.96208,9.11212,20.96208,22.12885v10.41735H581.97268v-11.5881c0-5.46933-1.82337-8.594-7.16138-8.594s-7.55137,3.77727-7.55137,9.11528V260.792c0,5.338,2.21336,9.11132,7.55137,9.11132s7.16138-3.38332,7.16138-8.594v-16.2727h13.53807v15.23326c0,12.62675-5.20672,22.00149-20.96208,22.00149C558.92859,282.27137,552.41983,272.12061,552.41983,258.4473Z" transform="translate(0.26109)"/><path class="cls-2" d="M647.97557,192.96492v66.78761c0,13.66619-5.85931,22.51884-20.95809,22.51884-15.62009,0-22.132-8.85265-22.132-22.51884V192.96492h14.84328v68.217c0,5.2067,2.082,8.72133,7.28874,8.72133s7.29269-3.51463,7.29269-8.72133v-68.217Z" transform="translate(0.26109)"/><path class="cls-2" d="M657.61294,192.96492H672.457v76.1584h17.70134v12.10545h-32.5454Z" transform="translate(0.26109)"/><path class="cls-2" d="M696.53975,192.96492h39.4481v12.10941H723.74714v76.15444H708.77967V205.07433H696.53975Z" transform="translate(0.26109)"/><path class="cls-2" d="M787.27878,192.96492v66.78761c0,13.66619-5.85931,22.51884-20.95809,22.51884-15.62009,0-22.1328-8.85265-22.1328-22.51884V192.96492H759.032v68.217c0,5.2067,2.082,8.72133,7.28874,8.72133s7.28874-3.51463,7.28874-8.72133v-68.217Z" transform="translate(0.26109)"/><path class="cls-2" d="M811.88681,240.74121v40.48756H797.04747V192.96492H818.6582c14.9714,0,20.43677,7.42006,20.43677,19.78813v11.32547c0,9.50131-3.38412,15.102-11.84678,17.05664l14.19145,40.09361h-15.624Zm0-35.66688v27.46685h4.948c5.07538,0,7.2927-2.60334,7.2927-7.28874V212.23571c0-4.82067-2.21732-7.16138-7.2927-7.16138Z" transform="translate(0.26109)"/><path class="cls-2" d="M846.1282,281.22877l16.66348-88.26385H879.717l16.79479,88.26385h-15.234L878.547,265.08659H862.79168l-2.60332,16.14218Zm18.61816-27.99212h11.846l-5.85929-35.40426h-.13134Z" transform="translate(0.26109)"/><path class="cls-2" d="M307.14038,383.04568V371.1989H320.941v12.10941c0,4.94406,2.21336,7.81,7.28874,7.81,4.68935,0,6.7714-3.12861,6.7714-7.81v-3.38807c0-5.07538-2.082-8.204-6.64008-12.4986l-8.72133-8.72213c-8.46266-8.33134-12.36808-13.40672-12.36808-23.56144v-2.99333c0-10.9347,6.37745-19.4021,20.82678-19.4021,14.84406,0,20.70338,7.29269,20.70338,20.05076v7.16138h-13.538v-7.67873c0-5.07934-2.34468-7.55137-7.034-7.55137-4.16409,0-7.02611,2.34072-7.02611,7.28874v1.82337c0,4.94407,2.73071,7.81,7.02611,11.9773l9.50606,9.37079c8.07267,8.204,11.9773,13.148,11.9773,22.91278v4.29856c0,12.10545-6.51193,20.69942-21.61467,20.69942C312.99969,403.09564,307.14038,394.633,307.14038,383.04568Z" transform="translate(0.26109)"/><path class="cls-2" d="M401.788,313.786v66.78366c0,13.66935-5.85932,22.526-20.96205,22.526-15.62009,0-22.12806-8.8566-22.12806-22.526V313.786H373.538v68.21625c0,5.21065,2.08521,8.72529,7.28795,8.72529,5.21065,0,7.29269-3.51464,7.29269-8.72529V313.786Z" transform="translate(0.26109)"/><path class="cls-2" d="M410.7767,383.04568V371.1989h13.79672v12.10941c0,4.94406,2.21336,7.81,7.28874,7.81,4.68935,0,6.77139-3.12861,6.77139-7.81v-3.38807c0-5.07538-2.082-8.204-6.64008-12.4986l-8.72133-8.72213c-8.46345-8.33134-12.36808-13.40672-12.36808-23.56144v-2.99333c0-10.9347,6.38062-19.4021,20.83074-19.4021,14.84011,0,20.69942,7.29269,20.69942,20.05076v7.16138h-13.538v-7.67873c0-5.07934-2.34467-7.55137-7.034-7.55137-4.16409,0-7.02611,2.34072-7.02611,7.28874v1.82337c0,4.94407,2.7307,7.81,7.02611,11.9773l9.506,9.37079c8.07267,8.204,11.9773,13.148,11.9773,22.91278v4.29856c0,12.10545-6.508,20.69942-21.61071,20.69942S410.7767,394.633,410.7767,383.04568Z" transform="translate(0.26109)"/><path class="cls-2" d="M460.76952,313.786h39.44413v12.10545h-12.236V402.053H473.00626V325.89148H460.76952Z" transform="translate(0.26109)"/><path class="cls-2" d="M508.41764,313.786h35.41217v12.10545H523.2617V351.1521h14.7088v11.97413H523.2617v26.81741h20.56811V402.053H508.41764Z" transform="translate(0.26109)"/><path class="cls-2" d="M565.44052,346.59407v55.459H552.94508V313.786h14.58144l16.01007,50.64148V313.786h12.36808v88.267H582.884Z" transform="translate(0.26109)"/><path class="cls-2" d="M603.97734,313.786h39.44811v12.10545H631.18552V402.053H616.2141V325.89148H603.97734Z" transform="translate(0.26109)"/><path class="cls-2" d="M649.28159,402.053l16.66269-88.267h16.92611l16.794,88.267H684.43034l-2.7307-16.14534H665.94428L663.34094,402.053Zm37.23475-94.51314L663.21358,310.534v-8.33214l23.30276-4.948Zm-18.61737,66.525h11.846l-5.85931-35.41217h-.12736Z" transform="translate(0.26109)"/><path class="cls-2" d="M754.60127,313.786l-16.79,88.267H721.66905l-16.798-88.267h15.10274l10.15471,61.577h.13132l10.41339-61.577Z" transform="translate(0.26109)"/><path class="cls-2" d="M762.02528,313.786h35.41217v12.10545h-20.5681V351.1521h14.708v11.97413h-14.708v26.81741h20.5681V402.053H762.02528Z" transform="translate(0.26109)"/><path class="cls-2" d="M806.684,313.786h14.84011v76.15761h17.70213V402.053H806.684Z" transform="translate(0.26109)"/></svg>