<svg id="Layer_1" data-name="Layer 1" xmlns="http://www.w3.org/2000/svg" viewBox="0 0 1079.96513 1080"><defs><style>.cls-1{fill:#4d9747;}.cls-2{fill:#fff;}</style></defs><rect class="cls-1" width="1079.96513" height="1080"/><path class="cls-2" d="M153.84944,311.18983c36.94556,0,52.99456-19.59531,52.99456-49.77341V229.29865c0-19.90779-8.67154-32.76249-26.97664-36.9377,15.09889-4.80489,25.04492-17.022,25.04492-35.31919V138.084c0-30.83151-14.76674-49.77341-48.4872-49.77341-37.91465,0-51.07865,22.46448-51.07865,54.58226v19.27019h33.404v-22.152c0-13.48755,4.18707-21.194,15.74765-21.194,11.5684,0,15.71671,7.70649,15.71671,19.58344v23.45015c0,11.56449-7.69384,17.65564-19.57158,17.65564H136.82265v27.95759h15.42723c12.83967,0,17.96494,6.09511,17.96494,17.65564V261.096c0,11.54471-5.12527,19.59452-16.36538,19.59452-12.52646,0-17.02679-8.36228-17.02679-21.20511V228.33751H103.43444v28.57541c0,33.08682,13.15614,54.27691,50.415,54.27691" transform="translate(0.26461)"/><path class="cls-2" d="M902.4654,674.9645c0-30.39485-19.498-55.03-49.0314-55.03-14.77065,0-32.58133,16.17241-42.26073,26.11839-9.66826-9.95706-26.29631-26.14528-41.07888-26.14528-29.52943,0-50.22906,24.64306-50.22906,55.04186a55.63086,55.63086,0,0,0,15.67482,38.91139l75.7028,75.84987,75.60616-75.75732-.06566-.05775a55.72482,55.72482,0,0,0,15.682-38.93116" transform="translate(0.26461)"/><path class="cls-2" d="M580.1438,913.52644c-.25472,0-.50945,0-.77208-.01186a12.42886,12.42886,0,0,1-11.47984-10.317L529.43219,679.2291l-58.248,108.01748a12.4363,12.4363,0,0,1-23.24922-4.14831L423.20329,610.25115l-45.243,101.63206a12.4413,12.4413,0,0,1-11.35559,7.37425H190.75233a12.43189,12.43189,0,0,1,0-24.86377H358.524l59.52242-133.66914a12.43083,12.43083,0,0,1,23.66215,3.29081l25.4974,178.22394,57.44436-106.51052a12.43717,12.43717,0,0,1,23.19854,3.79708l35.60555,207.42429L713.245,415.82317a12.4345,12.4345,0,0,1,23.106-1.8226l68.29453,141.58685a12.43343,12.43343,0,1,1-22.40279,10.79241l-54.4011-112.7844L592.04058,904.68478a12.4247,12.4247,0,0,1-11.89678,8.84166" transform="translate(0.26461)"/><path class="cls-2" d="M307.45638,159.72582V147.87577H321.258V159.9845c0,4.94807,2.21259,7.81408,7.292,7.81408,4.68939,0,6.77146-3.12864,6.77146-7.81408v-3.38731c0-5.07939-2.08207-8.20407-6.6401-12.49952l-8.72538-8.72142c-8.46279-8.33539-12.36825-13.41478-12.36825-23.5696v-2.99732c0-10.9348,6.37752-19.4015,20.83095-19.4015,14.84817,0,20.70364,7.292,20.70364,20.05413v7.16145H335.5801v-7.68276c0-5.07939-2.34075-7.55145-7.03014-7.55145-4.16334,0-7.02935,2.3447-7.02935,7.29277v1.81944c0,4.95123,2.73469,7.81407,7.02935,11.98137l9.50615,9.37879c8.07275,8.20012,11.97821,13.14819,11.97821,22.91618v4.29545c0,12.10953-6.50883,20.70359-21.61568,20.70359C313.31654,179.77679,307.45638,171.31009,307.45638,159.72582Z" transform="translate(0.26461)"/><path class="cls-2" d="M356.801,178.73417l16.67077-88.28373h16.92628l16.79418,88.28373H391.95885l-2.73469-16.14629H373.47181l-2.60654,16.14629Zm18.62152-27.99635h11.85085L381.414,115.32133h-.13132Z" transform="translate(0.26461)"/><path class="cls-2" d="M457.71165,90.45044v66.79937c0,13.67345-5.85938,22.527-20.96622,22.527-15.6242,0-22.137-8.85353-22.137-22.527V90.45044h14.84422v68.23277c0,5.20675,2.086,8.72142,7.29277,8.72142,5.2107,0,7.29277-3.51467,7.29277-8.72142V90.45044Zm-9.11616-6.24936-23.307,2.99336V78.863l23.307-4.952Z" transform="translate(0.26461)"/><path class="cls-2" d="M511.87306,114.15135v40.88508c0,13.54292-5.59753,23.69774-21.48436,23.69774H467.47257V90.45044H490.3887C506.27553,90.45044,511.87306,100.4779,511.87306,114.15135Zm-23.307,52.4733c6.118,0,8.46274-3.646,8.46274-8.98485V111.41666c0-5.2107-2.34469-8.85353-8.46274-8.85353h-6.25016v64.06152Z" transform="translate(0.26461)"/><path class="cls-2" d="M521.63314,90.45044h35.41649v12.11269H536.47736v25.25772h14.71685v11.97821H536.47736v26.82559h20.57227v12.10952H521.63314Z" transform="translate(0.26461)"/><path class="cls-2" d="M581.13262,90.45044h35.42044v12.11269H595.97684v25.25772H610.6929v11.97821H595.97684v26.82559h20.57622v12.10952H581.13262Z" transform="translate(0.26461)"/><path class="cls-2" d="M308.23715,217.92006h21.48753c14.84026,0,19.78754,6.902,19.78754,19.4015v8.98089c0,7.42725-2.73073,12.11269-8.85274,14.0674,7.42409,1.69128,11.07008,6.63935,11.07008,14.71211v11.71953c0,12.49952-5.6007,19.40151-20.44491,19.40151h-23.0475Zm14.84348,37.23909h5.21065c4.81676,0,7.03014-2.47206,7.03014-7.16146V237.19025c0-4.82071-2.21338-7.16146-7.16145-7.16146h-5.07934Zm0,11.32875v27.60636h6.51273c4.94808,0,7.292-2.476,7.292-7.16145V273.64935c0-4.68939-2.21259-7.16145-7.42329-7.16145Z" transform="translate(0.26461)"/><path class="cls-2" d="M360.44782,217.92006h35.41569v12.10873H375.29124v25.25772h14.71295v11.98137H375.29124v26.82638h20.57227V306.203H360.44782Z" transform="translate(0.26461)"/><path class="cls-2" d="M445.99211,248.909h-.39l-10.02746,57.294h-6.902l-11.06612-57.294h-.25946v57.294H405.107V217.92006h17.31549l9.63747,49.7386h.12736l8.59406-49.7386h18.75283V306.203H445.99211Z" transform="translate(0.26461)"/><path class="cls-2" d="M468.37986,259.19908h20.83491v11.97821H468.37986Z" transform="translate(0.26461)"/><path class="cls-2" d="M497.93624,217.92006h35.41644v12.10873H512.7804v25.25772h14.71686v11.98137H512.7804v26.82638h20.57228V306.203H497.93624Z" transform="translate(0.26461)"/><path class="cls-2" d="M541.81147,287.19149V275.34143h13.80476v12.10873c0,4.952,2.21338,7.81408,7.28882,7.81408,4.68939,0,6.77146-3.12468,6.77146-7.81408V284.0668c0-5.07938-2.08207-8.20407-6.64015-12.50347l-8.72137-8.72142c-8.4628-8.33143-12.37216-13.41082-12.37216-23.56564V236.279c0-10.93876,6.38142-19.39834,20.83485-19.39834,14.84422,0,20.70365,7.28881,20.70365,20.051V244.093H569.93914v-7.68672c0-5.07543-2.3447-7.54749-7.03409-7.54749-4.16335,0-7.02935,2.34074-7.02935,7.28881v1.8226c0,4.952,2.73474,7.81408,7.02935,11.97821l9.5101,9.378c8.07276,8.20486,11.97742,13.15214,11.97742,22.917v4.29545c0,12.10874-6.51194,20.70755-21.61489,20.70755C547.67084,307.24641,541.81147,298.77891,541.81147,287.19149Z" transform="translate(0.26461)"/><path class="cls-2" d="M591.80875,217.92006h39.45642v12.10873h-12.24V306.203H604.04959V230.02879H591.80875Z" transform="translate(0.26461)"/><path class="cls-2" d="M637.12138,306.203l16.66681-88.28294h16.9255L687.51261,306.203H672.2784l-2.73469-16.14551H653.78819L651.18086,306.203Zm18.61756-27.99557H667.589l-5.85937-35.41649h-.13126Z" transform="translate(0.26461)"/><path class="cls-2" d="M709.769,265.704v40.499H694.92483V217.92006h21.61488c14.97554,0,20.44492,7.42013,20.44492,19.7915v11.32875c0,9.50615-3.38732,15.10289-11.85085,17.0576L739.32932,306.203H723.70117Zm0-35.67517v27.47505h4.94728c5.07939,0,7.29277-2.60337,7.29277-7.28881V237.19025c0-4.82071-2.21338-7.16146-7.29277-7.16146Z" transform="translate(0.26461)"/></svg>