<svg id="Layer_1" data-name="Layer 1" xmlns="http://www.w3.org/2000/svg" viewBox="0 0 1079.95251 1080"><defs><style>.cls-1{fill:#b8222e;}.cls-2{fill:#fff;}</style></defs><rect class="cls-1" width="1079.95251" height="1080"/><path class="cls-2" d="M168.91668,308.26947h34.67785V272.9421H218.38v-28.575H203.59453V90.50686h-35.976l-63.26,159.9521V272.9421h64.55822ZM136.471,244.36711l32.75488-89.60665h.33224v89.60665Z" transform="translate(0.25831)"/><polygon class="cls-2" points="478.881 579.083 285.19 467.24 285.19 829.043 478.881 887.48 478.881 579.083"/><polygon class="cls-2" points="500.179 579.821 500.179 887.607 695.121 828.997 695.121 467.259 500.179 579.821"/><path class="cls-2" d="M846.91524,458.08905a22.91268,22.91268,0,1,0-45.82536,0v24.70124h45.82536Z" transform="translate(0.25831)"/><polygon class="cls-2" points="807.041 822.623 801.348 822.623 824.277 902.717 847.158 822.623 841.472 822.623 847.158 822.623 847.158 500.735 841.472 500.735 835.786 500.735 829.753 500.735 818.344 500.735 812.727 500.735 807.041 500.735 801.34 500.735 801.34 822.623 807.041 822.623"/><polygon class="cls-2" points="736.728 482.778 715.97 466.382 715.97 838.858 500.758 908.395 490.793 908.395 488.831 908.395 478.881 908.395 264.626 848.541 264.626 466.382 243.846 482.778 243.846 863.107 477.899 927.901 488.831 927.901 490.793 927.901 501.731 927.901 717.655 859.333 736.728 853.721 736.728 482.778"/><path class="cls-2" d="M325.19508,314.13272v-5.98744c-11.84277-2.0852-16.926-10.80333-16.926-22.78453V242.664c0-13.79665,6.77532-23.824,22.39534-23.824,15.75133,0,22.51794,10.02731,22.51794,23.824v42.69677c0,9.63258-3.38331,17.18392-10.93069,20.83064l10.93069,2.0852v11.06675Zm13.14807-25.64733V240.31932c0-5.338-2.34079-9.11524-7.67877-9.11524-5.20668,0-7.55529,3.77725-7.55529,9.11524v48.16607c0,5.21062,2.34861,9.11523,7.55529,9.11523C336.00236,297.60062,338.34315,293.696,338.34315,288.48539Z" transform="translate(0.25831)"/><path class="cls-2" d="M405.783,219.87866V286.662c0,13.67325-5.864,22.5227-20.96583,22.5227-15.6201,0-22.12488-8.84945-22.12488-22.5227V219.87866h14.84v68.2207c0,5.20271,2.07808,8.71733,7.28484,8.71733,5.21371,0,7.29179-3.51462,7.29179-8.71733v-68.2207Z" transform="translate(0.25831)"/><path class="cls-2" d="M412.81232,308.14528l16.66333-88.26662h16.92524l16.79472,88.26662h-15.234L445.227,292H429.47565l-2.60334,16.14527ZM431.42954,280.158h11.85067L437.417,244.746h-.13131Z" transform="translate(0.25831)"/><path class="cls-2" d="M470.35617,219.87866h14.84v76.162h17.706v12.1046h-32.546Z" transform="translate(0.25831)"/><path class="cls-2" d="M510.72022,219.87866h14.84v88.26662h-14.84Z" transform="translate(0.25831)"/><path class="cls-2" d="M579.58158,243.57211v40.87656c0,13.54194-5.59341,23.69661-21.47614,23.69661H535.19276V219.87866h22.91268C573.98817,219.87866,579.58158,229.902,579.58158,243.57211Zm-23.29871,52.46857c6.118,0,8.45867-3.64673,8.45867-8.98472V240.84062c0-5.21063-2.34071-8.85261-8.45867-8.85261h-6.25006v64.05267Z" transform="translate(0.25831)"/><path class="cls-2" d="M586.75005,308.14528l16.66341-88.26662H620.3387l16.79472,88.26662h-15.234L619.16487,292H603.41346l-2.60334,16.14527ZM605.36734,280.158h11.84277l-5.85533-35.412h-.13132Z" transform="translate(0.25831)"/><path class="cls-2" d="M688.68279,243.57211v40.87656c0,13.54194-5.60131,23.69661-21.47613,23.69661H644.294V219.87866h22.91268C683.08148,219.87866,688.68279,229.902,688.68279,243.57211Zm-23.2995,52.46857c6.11875,0,8.45946-3.64673,8.45946-8.98472V240.84062c0-5.21063-2.34071-8.85261-8.45946-8.85261H659.134v64.05267Z" transform="translate(0.25831)"/><path class="cls-2" d="M698.192,219.87866h35.412V231.988H713.032v25.25734h14.70873v11.97329H713.032v26.822h20.572v12.1046H698.192Z" transform="translate(0.25831)"/><path class="cls-2" d="M308.269,90.46889h35.412V102.5735h-20.572v25.25734h14.71584v11.97408H323.10909v26.81729h20.572v12.10935H308.269Z" transform="translate(0.25831)"/><path class="cls-2" d="M397.06091,114.1655v40.8734c0,13.538-5.60061,23.69266-21.48317,23.69266H352.665V90.46889h22.91276C391.4603,90.46889,397.06091,100.49225,397.06091,114.1655Zm-23.30662,52.45671c6.11883,0,8.46658-3.642,8.46658-8.98V111.4269c0-5.20668-2.34775-8.8534-8.46658-8.8534H367.505v64.04871Z" transform="translate(0.25831)"/><path class="cls-2" d="M449.785,90.46889v66.78257c0,13.67009-5.85612,22.5227-20.95879,22.5227-15.62,0-22.13192-8.85261-22.13192-22.5227V90.46889h14.84005v68.216c0,5.20667,2.0852,8.72129,7.29187,8.72129s7.29266-3.51462,7.29266-8.72129v-68.216Z" transform="translate(0.25831)"/><path class="cls-2" d="M459.5568,155.95019V113.24947c0-13.79665,6.51269-23.82,22.1327-23.82,16.4,0,20.958,9.11207,20.958,22.12875v10.41334H489.10557v-11.588c0-5.46534-1.82336-8.59-7.16135-8.59s-7.54738,3.77725-7.54738,9.11524V158.2909c0,5.338,2.20939,9.11523,7.54738,9.11523s7.16135-3.3833,7.16135-8.59393V142.54352H502.6475v15.23c0,12.6267-5.20667,22.00061-20.958,22.00061C466.06949,179.77416,459.5568,169.61948,459.5568,155.95019Z" transform="translate(0.25831)"/><path class="cls-2" d="M506.42484,178.73156l16.66332-88.26267H540.0134l16.79473,88.26267h-15.234l-2.73465-16.14211H523.08816l-2.60333,16.14211Zm18.61721-27.992h11.84276l-5.85533-35.40806h-.13131Z" transform="translate(0.25831)"/><path class="cls-2" d="M576.72274,187.71548c4.172-.13132,4.82064-1.0426,4.82064-2.082,0-.91128-.78-1.43654-2.086-1.43654h-.64866v-4.81273c-12.63065-1.56469-17.83732-11.066-17.83732-23.434V113.24947c0-13.79665,6.51269-23.82,22.1327-23.82,16.4,0,20.958,9.11207,20.958,22.12875v10.41334h-13.534v-11.588c0-5.46534-1.82336-8.59-7.16135-8.59s-7.55529,3.77725-7.55529,9.11524V158.2909c0,5.338,2.2173,9.11523,7.55529,9.11523s7.16135-3.3833,7.16135-8.59393V142.54352h13.534v15.23c0,12.36407-4.944,21.47931-19.65277,22.00061v1.17075c3.51541.5213,5.46139,1.82257,5.46139,4.68853,0,4.03276-3.76934,6.24611-13.148,6.24611Z" transform="translate(0.25831)"/><path class="cls-2" d="M607.83936,178.73156l16.66341-88.26267H641.428l16.79472,88.26267h-15.234l-2.72665-16.14211H624.50277l-2.60334,16.14211Zm11.588-91.77808c.26263-6.114,2.60334-11.066,9.11524-11.066,3.778,0,6.89872,2.21335,8.8534,2.21335a1.74576,1.74576,0,0,0,1.82257-1.95468h7.28484c-.2548,6.12192-2.60342,11.066-9.10741,11.066-3.778,0-6.90663-2.21256-8.8534-2.21256a1.74794,1.74794,0,0,0-1.82328,1.95389Zm7.02925,63.78608h11.85067l-5.86324-35.40806h-.1234Z" transform="translate(0.25831)"/><path class="cls-2" d="M662.39393,155.95019V113.24947c0-13.79665,6.7674-23.82,22.38742-23.82,15.75133,0,22.51874,10.02336,22.51874,23.82v42.70072c0,13.66929-6.76741,23.824-22.51874,23.824C669.16133,179.77416,662.39393,169.61948,662.39393,155.95019ZM692.46,158.2909V110.90876c0-5.338-2.3407-9.11524-7.67869-9.11524-5.20667,0-7.54738,3.77725-7.54738,9.11524V158.2909c0,5.338,2.34071,9.11523,7.54738,9.11523C690.11934,167.40613,692.46,163.62888,692.46,158.2909Z" transform="translate(0.25831)"/><path class="cls-2" d="M769.92728,114.1655v40.8734c0,13.538-5.60061,23.69266-21.484,23.69266H725.53847V90.46889h22.90477C764.32667,90.46889,769.92728,100.49225,769.92728,114.1655Zm-23.29871,52.45671c6.118,0,8.45867-3.642,8.45867-8.98V111.4269c0-5.20668-2.34071-8.8534-8.45867-8.8534h-6.258v64.04871Z" transform="translate(0.25831)"/><path class="cls-2" d="M776.43918,90.46889h35.412V102.5735h-20.572v25.25734H805.988v11.97408H791.27923v26.81729h20.572v12.10935h-35.412Z" transform="translate(0.25831)"/></svg>