<svg id="Layer_1" data-name="Layer 1" xmlns="http://www.w3.org/2000/svg" viewBox="0 0 1079.94618 1080"><defs><style>.cls-1{fill:#df432f;}.cls-2{fill:#fff;}</style></defs><rect class="cls-1" width="1079.94618" height="1080"/><path class="cls-2" d="M171.9423,159.45143c-14.44517,0-25.05143,5.13305-30.83,15.09462h-.33224v-54.2756h62.95884V90.40158H107.40059V213.09736h33.3795v-4.84354c0-12.84252,5.79357-19.89939,16.06048-19.89939,11.247,0,15.75909,7.71343,15.75909,19.598v52.669c0,11.56817-4.18687,19.58694-15.43477,19.58694-12.53006,0-17.01051-8.34705-17.01051-21.18563V231.71843H106.72821v24.7279c0,33.07415,13.17081,54.27955,50.43668,54.27955,36.94086,0,52.02747-19.59088,52.02747-49.78328V207.63207c0-34.3683-17.65917-48.18064-37.25006-48.18064" transform="translate(0.25514)"/><path class="cls-2" d="M786.35775,408.65579h-134.222a1.71759,1.71759,0,0,0-1.70706,1.70706V454.9672a1.71842,1.71842,0,0,0,1.70706,1.711h53.44184l-59.343,59.35882a174.84217,174.84217,0,0,0-108.38191-37.54353c-96.92608,0-175.80538,78.86427-175.80538,175.80934,0,89.25062,66.87528,163.09812,153.11678,174.28342v51.39067H462.20952a1.69579,1.69579,0,0,0-1.72288,1.692v47.81755a1.69809,1.69809,0,0,0,1.72288,1.70311h52.95456V981.7695a1.70909,1.70909,0,0,0,1.70706,1.70311h47.77958a1.729,1.729,0,0,0,1.73-1.70311V931.18964h52.93162a1.7047,1.7047,0,0,0,1.70785-1.70311V881.669a1.7024,1.7024,0,0,0-1.70785-1.692H566.38073v-52.2363c83.40721-13.685,147.2615-86.22647,147.2615-173.43779A174.83936,174.83936,0,0,0,681.5371,553.18267l58.49421-58.50528v49.91539a1.7217,1.7217,0,0,0,1.73,1.7031h44.59643a1.73036,1.73036,0,0,0,1.74583-1.7031V410.36285a1.73112,1.73112,0,0,0-1.74583-1.70706M537.85268,783.6924A129.39747,129.39747,0,1,1,667.25409,654.30285c0,71.34781-58.04569,129.38955-129.40141,129.38955" transform="translate(0.25514)"/><path class="cls-2" d="M616.887,601.18216H459.93845a1.63063,1.63063,0,0,0-1.7,1.52908v37.99917a1.61531,1.61531,0,0,0,1.7,1.56072H616.887a1.62674,1.62674,0,0,0,1.738-1.56072V602.71124a1.64218,1.64218,0,0,0-1.738-1.52908" transform="translate(0.25514)"/><path class="cls-2" d="M616.887,669.02251H459.93845a1.65207,1.65207,0,0,0-1.7,1.58762v37.992a1.62212,1.62212,0,0,0,1.7,1.54095H616.887a1.63366,1.63366,0,0,0,1.738-1.54095v-37.992a1.66264,1.66264,0,0,0-1.738-1.58762" transform="translate(0.25514)"/><path class="cls-2" d="M352.615,243.573v40.87618c0,13.53864-5.60056,23.69322-21.47594,23.69322H308.21943V219.87973H331.139C347.01439,219.87973,352.615,229.903,352.615,243.573Zm-23.3064,52.46412c6.12581,0,8.46649-3.64669,8.46649-8.98067V240.84149c0-5.21058-2.34068-8.85252-8.46649-8.85252h-6.2421v64.0481Z" transform="translate(0.25514)"/><path class="cls-2" d="M362.124,219.87973h35.41168V231.989H376.96393v25.25314h14.70859v11.97713H376.96393v26.81783h20.57178v12.10528H362.124Z" transform="translate(0.25514)"/><path class="cls-2" d="M443.62337,261.01933h21.08911v47.123h-10.676V298.513c-1.95466,6.63524-6.1257,10.67192-14.19125,10.67192-12.76184,0-18.61712-10.15458-18.61712-23.82374V242.66088c0-13.79652,6.64395-23.82374,22.26381-23.82374,16.39983,0,21.22054,9.11515,21.22054,22.1325v7.8131H451.17056V239.7989c0-5.46925-2.086-8.59385-7.4239-8.59385-5.33,0-7.67862,3.77721-7.67862,9.11515v47.38564c0,5.33793,2.21728,9.11119,7.29259,9.11119,4.8198,0,7.2918-2.73462,7.2918-8.46254V272.73462h-7.02906Z" transform="translate(0.25514)"/><path class="cls-2" d="M474.21434,219.87973h35.41088V231.989H489.05345v25.25314H503.77v11.97713h-14.7165v26.81783h20.57177v12.10528H474.21434Zm6.1179-3.252v-7.16128l9.37065-6.89787h6.51184l9.37868,6.89787v7.16128l-12.49933-3.77721Z" transform="translate(0.25514)"/><path class="cls-2" d="M531.10827,252.68414v55.45821H518.60985V219.87973h14.57649l16.0138,50.64157V219.87973H561.568v88.26262H548.55149Z" transform="translate(0.25514)"/><path class="cls-2" d="M571.07792,219.87973h35.41089V231.989h-20.571v25.25314h14.7078v11.97713h-14.7078v26.81783h20.571v12.10528H571.07792Z" transform="translate(0.25514)"/><path class="cls-2" d="M630.31334,267.65536v40.487H615.47343V219.87973H637.08c14.9711,0,20.44047,7.42,20.44047,19.78786v11.32452c0,9.50592-3.3834,15.10253-11.84277,17.05719L659.869,308.14235H644.24117Zm0-35.66639v27.46647h4.944c5.08243,0,7.29181-2.60331,7.29181-7.28864V239.14629c0-4.81664-2.20938-7.15732-7.29181-7.15732Z" transform="translate(0.25514)"/><path class="cls-2" d="M666.505,285.3612V242.66088c0-13.79652,6.77446-23.82374,22.39433-23.82374,15.75129,0,22.51852,10.02722,22.51852,23.82374V285.3612c0,13.66916-6.76723,23.82374-22.51852,23.82374C673.27944,309.18494,666.505,299.03036,666.505,285.3612Zm30.07295,2.34464V240.3202c0-5.33794-2.34069-9.11515-7.67862-9.11515-5.20663,0-7.55522,3.77721-7.55522,9.11515v47.38564c0,5.33793,2.34859,9.11119,7.55522,9.11119C694.23724,296.817,696.57793,293.04377,696.57793,287.70584Z" transform="translate(0.25514)"/><path class="cls-2" d="M308.21943,90.46724h14.847v88.26182h-14.847Z" transform="translate(0.25514)"/><path class="cls-2" d="M355.34957,131.60288h21.08911v47.12618H365.76281v-9.63328c-1.95465,6.64-6.1179,10.67587-14.18334,10.67587-12.76184,0-18.61711-10.15457-18.61711-23.82374V113.24839c0-13.79731,6.636-23.82453,22.2559-23.82453,16.40774,0,21.22042,9.11594,21.22042,22.1325v7.81388H362.90479v-8.98462c0-5.46925-2.086-8.5899-7.42391-8.5899s-7.67862,3.77405-7.67862,9.112v47.38486c0,5.33793,2.20948,9.108,7.29259,9.108,4.8128,0,7.28469-2.73146,7.28469-8.45938V143.32134h-7.03Z" transform="translate(0.25514)"/><path class="cls-2" d="M429.29278,90.46724V157.25c0,13.66916-5.85527,22.52168-20.95769,22.52168-15.62,0-22.1239-8.85252-22.1239-22.52168V90.46724H401.0503v68.2153c0,5.20662,2.07806,8.71805,7.28479,8.71805,5.20651,0,7.29248-3.51143,7.29248-8.71805V90.46724Z" transform="translate(0.25514)"/><path class="cls-2" d="M436.71669,178.72906l16.66325-88.26182h16.92519l16.79445,88.26182H471.86574L469.139,162.5879H453.37994l-2.60331,16.14116Zm18.61711-27.99172h11.85057l-5.85528-35.40377h-.1321Z" transform="translate(0.25514)"/><path class="cls-2" d="M494.52269,90.46724H509.3626v76.15654h17.70584v12.10528H494.52269Z" transform="translate(0.25514)"/><path class="cls-2" d="M579.53651,114.15967v40.877c0,13.53785-5.60056,23.69242-21.48306,23.69242H535.141V90.46724h22.91246C573.936,90.46724,579.53651,100.4905,579.53651,114.15967Zm-23.3064,52.46411c6.11869,0,8.46649-3.6459,8.46649-8.98383V111.429c0-5.21058-2.3478-8.85727-8.46649-8.85727H549.9809v64.05205Z" transform="translate(0.25514)"/><path class="cls-2" d="M586.96041,178.72906l16.66246-88.26182h16.92587l16.79377,88.26182H622.10867l-2.73462-16.14116H603.62287l-2.60331,16.14116Zm18.61712-27.99172h11.84265l-5.85606-35.40377h-.13132Z" transform="translate(0.25514)"/><path class="cls-2" d="M689.15414,114.15967v40.877c0,13.53785-5.59265,23.69242-21.47526,23.69242H644.76642V90.46724h22.91246C683.56149,90.46724,689.15414,100.4905,689.15414,114.15967Zm-23.29861,52.46411c6.11869,0,8.45938-3.6459,8.45938-8.98383V111.429c0-5.21058-2.34069-8.85727-8.45938-8.85727h-6.24921v64.05205Z" transform="translate(0.25514)"/><path class="cls-2" d="M698.92652,90.46724h35.40389v12.10449h-20.564v25.2571h14.70779v11.97792H713.76643v26.817h20.564v12.10528H698.92652Z" transform="translate(0.25514)"/></svg>