<svg id="Layer_1" data-name="Layer 1" xmlns="http://www.w3.org/2000/svg" viewBox="0 0 1079.9272 1080"><defs><style>.cls-1{fill:#2eafd1;}.cls-2{fill:#fff;}</style></defs><rect class="cls-1" width="1079.9272" height="1080"/><path class="cls-2" d="M163.15206,311.14013c38.84831,0,53.95068-21.20912,53.95068-54.93947V224.084c0-35.64623-14.12861-53.63031-40.47864-53.63031-15.41086,0-24.71971,7.0726-30.181,17.67084h-.3172v-46.8939c0-13.18253,4.17981-22.48347,17.34256-22.48347,13.15563,0,17.01824,7.7173,17.01824,21.19726v14.45292h33.40207V142.83724c0-32.13168-10.60614-54.59616-51.061-54.59616-38.53982,0-53.00052,24.71655-53.00052,58.76726V252.99462c0,33.73034,14.77711,58.14551,53.32484,58.14551M146.12591,219.5878c.64153-12.19374,5.77848-19.90313,17.34256-19.90313,12.5149,0,17.33465,7.70939,17.33465,21.8459v37.89908c0,13.80033-5.12113,21.834-17.65106,21.834-12.21352,0-17.02615-8.35013-17.02615-21.834Z" transform="translate(0.24565)"/><path class="cls-2" d="M738.6191,436.70837a4.75079,4.75079,0,0,0-3.54525-1.54883H343.27374a4.76239,4.76239,0,0,0-3.52246,1.54883,4.67133,4.67133,0,0,0-.97376,3.7044L404.60157,838.5315a4.5878,4.5878,0,0,0,4.51125,3.83887H489.9l5.531,64.83922-33.99706.03876,79.10308,79.10309,79.2961-79.28107-33.98981.04271,5.516-64.74271H673.575a4.52179,4.52179,0,0,0,4.48831-3.90453l61.59125-398.05307a4.6932,4.6932,0,0,0-1.03546-3.7044M587.18732,755.43449s-17.7982,18.27677-46.75072,16.30315c-29.02292,1.97362-46.78948-16.30315-46.78948-16.30315-29.36306-29.3243-18.88744-65.809-8.66732-84.66878,6.30293-11.80376,51.40119-79.53183,55.28687-85.29132v-.45564s.06156.08544.16993.21279l.16231-.21279v.45564c3.777,5.75949,48.94489,73.48756,55.25652,85.29132,10.22724,18.85976,20.6641,55.34448-8.66811,84.66878M711.4812,520.473c-10.62117-4.68053-24.07818-2.99722-37.002,2.241-48.62071,19.7022-81.69846,26.797-132.83781,10.77938-32.18942-10.077-62.32453-31.18877-97.93581-18.33056-23.6306,8.50516-45.65448,16.61244-72.37472,16.39965L355.90413,452.4404H722.57462Z" transform="translate(0.24565)"/><path class="cls-2" d="M309.35355,219.85833H344.772v12.11306H324.19328v25.26h14.71555v11.97779H324.19328v26.82069H344.772v12.11306h-35.4184Z" transform="translate(0.24565)"/><path class="cls-2" d="M365.45978,289.13128V277.28559h13.80428v12.10515c0,4.9471,2.21726,7.8138,7.29252,7.8138,4.68844,0,6.77438-3.12536,6.77438-7.8138v-3.384c0-5.07921-2.08594-8.20378-6.64293-12.50225l-8.72205-8.7219c-8.4664-8.33114-12.36684-13.41035-12.36684-23.56877v-2.99326c0-10.93837,6.37241-19.40082,20.82612-19.40082,14.84686,0,20.703,7.29172,20.703,20.04947v7.1612H393.58582v-7.68249c0-5.07526-2.3408-7.54723-7.02924-7.54723-4.16385,0-7.0299,2.34066-7.0299,7.28856v1.82333c0,4.9479,2.7346,7.8138,7.0299,11.977l9.509,9.37846c8.07261,8.20378,11.97383,13.15168,11.97383,22.91616v4.29451c0,12.1091-6.50464,20.70286-21.61413,20.70286C371.3229,309.18154,365.45978,300.72305,365.45978,289.13128Z" transform="translate(0.24565)"/><path class="cls-2" d="M413.37741,308.14292l16.66213-88.28459h16.9336l16.79359,88.28459H448.53305l-2.73459-16.1489H430.03954l-2.60328,16.1489Zm18.61677-27.99538h11.85043l-5.86391-35.41445h-.1234Z" transform="translate(0.24565)"/><path class="cls-2" d="M482.37573,252.67425v55.46867H469.87744V219.85833h14.58423l16.01363,50.656v-50.656h12.36777v88.28459H499.82666Z" transform="translate(0.24565)"/><path class="cls-2" d="M521.30156,219.85833h35.4192v12.11306H536.14921v25.26h14.70843v11.97779H536.14921v26.82069h20.57155v12.11306h-35.4192Z" transform="translate(0.24565)"/><path class="cls-2" d="M562.182,308.14292l16.67018-88.28459h16.92569l16.79359,88.28459H597.33861l-2.73538-16.1489h-15.751l-2.60328,16.1489Zm18.61706-27.99538h11.85028l-5.856-35.41445h-.13131Z" transform="translate(0.24565)"/><path class="cls-2" d="M659.56995,250.85092h-.39408l-10.0192,57.292H642.251l-11.06968-57.292h-.26248v57.292h-12.2366V219.85833H636.001l9.63317,49.74082h.13131l8.5906-49.74082H673.1124v88.28459H659.56995Z" transform="translate(0.24565)"/><path class="cls-2" d="M681.56283,219.85833H716.982v12.11306H696.41048v25.26h14.70764v11.97779H696.41048v26.82069H716.982v12.11306h-35.4192Z" transform="translate(0.24565)"/><path class="cls-2" d="M737.29017,252.67425v55.46867H724.79188V219.85833h14.58424l16.01362,50.656v-50.656h12.36777v88.28459H754.7411Z" transform="translate(0.24565)"/><path class="cls-2" d="M774.52478,219.85833h39.45108v12.11306H801.7315v76.17153h-14.971V231.97139H774.52478Z" transform="translate(0.24565)"/><path class="cls-2" d="M820.86653,285.35411v-42.707c0-13.80111,6.77439-23.82743,22.39409-23.82743,15.75891,0,22.53409,10.02632,22.53409,23.82743v42.707c0,13.673-6.77518,23.82743-22.53409,23.82743C827.64092,309.18154,820.86653,299.02708,820.86653,285.35411Zm30.08053,2.34461V240.30648c0-5.34183-2.34066-9.11584-7.68644-9.11584-5.20657,0-7.54723,3.774-7.54723,9.11584v47.39224c0,5.33788,2.34066,9.115,7.54723,9.115C848.6064,296.81377,850.94706,293.0366,850.94706,287.69872Z" transform="translate(0.24565)"/><path class="cls-2" d="M306.35633,177.94714l16.67018-88.28063H339.9522l16.79359,88.28063H341.51225l-2.73473-16.141h-15.751l-2.60314,16.141Zm37.24173-94.52977-23.30614,2.99722v-8.339l23.30614-4.94394Zm-18.61691,66.5344h11.84252l-5.85586-35.41445h-.13145Z" transform="translate(0.24565)"/><path class="cls-2" d="M386.55658,130.81357h21.09679v47.13357H396.97762V168.314c-1.95464,6.63991-6.11863,10.67575-14.199,10.67575-12.7617,0-18.61691-10.15842-18.61691-23.82743V112.45137c0-13.79637,6.64387-23.82743,22.26356-23.82743,16.40771,0,21.22811,9.115,21.22811,22.13146v7.81776H394.11092v-8.9877c0-5.46918-2.08516-8.5898-7.42289-8.5898-5.338,0-7.67868,3.77717-7.67868,9.115V157.503c0,5.34183,2.20935,9.11584,7.2846,9.11584,4.81975,0,7.29978-2.73539,7.29978-8.46324V142.5319h-7.03715Z" transform="translate(0.24565)"/><path class="cls-2" d="M460.507,89.66651v66.79782c0,13.669-5.85535,22.52539-20.96563,22.52539-15.61955,0-22.13146-8.85638-22.13146-22.52539V89.66651H432.2568v68.22642c0,5.21052,2.078,8.72586,7.2846,8.72586,5.21448,0,7.29252-3.51534,7.29252-8.72586V89.66651Z" transform="translate(0.24565)"/><path class="cls-2" d="M467.79149,177.94714l16.67018-88.28063h16.92584l16.79358,88.28063H502.94727l-2.73459-16.141h-15.751l-2.60328,16.141Zm18.62482-27.99537h11.84252l-5.856-35.41445h-.13131Z" transform="translate(0.24565)"/><path class="cls-2" d="M540.4366,89.66651h22.00806c14.971,0,20.44024,7.42383,20.44024,19.79555V128.079c0,12.36382-5.46919,19.91816-20.44024,19.91816h-7.1612v29.95H540.4366Zm14.84686,12.10911v34.7658h5.47c5.07525,0,7.29172-2.47592,7.29172-7.29251V108.94c0-4.8237-2.21647-7.16436-7.29172-7.16436Z" transform="translate(0.24565)"/><path class="cls-2" d="M591.86152,155.16229V112.45137c0-13.79637,6.77438-23.82743,22.402-23.82743,15.751,0,22.52619,10.03106,22.52619,23.82743v42.71092c0,13.669-6.77518,23.82743-22.52619,23.82743C598.6359,178.98972,591.86152,168.8313,591.86152,155.16229Zm30.08053,2.34066V110.11071c0-5.33788-2.34066-9.115-7.67854-9.115-5.21447,0-7.55514,3.77717-7.55514,9.115V157.503c0,5.34183,2.34067,9.11584,7.55514,9.11584C619.60139,166.61879,621.94205,162.84478,621.94205,157.503Z" transform="translate(0.24565)"/><path class="cls-2" d="M644.85426,89.66651h39.45123v12.10911H672.06888v76.17152H657.09071V101.77562H644.85426Z" transform="translate(0.24565)"/><path class="cls-2" d="M690.16055,177.94714l16.66306-88.28063h16.9249L740.55,177.94714H725.31712l-2.73459-16.141H706.82361l-2.60328,16.141Zm37.23461-94.52977-23.306,2.99722v-8.339l23.306-4.94394Zm-18.6177,66.5344h11.85043l-5.86312-35.41445h-.12325Z" transform="translate(0.24565)"/><path class="cls-2" d="M795.49026,89.66651,778.688,177.94714H762.543L745.74945,89.66651h15.10236l10.15763,61.5873h.13131l10.41313-61.5873Z" transform="translate(0.24565)"/><path class="cls-2" d="M802.90618,89.66651h35.41049v12.10911H817.74513v25.26h14.71633v11.97779H817.74513V165.838h20.57154v12.1091H802.90618Z" transform="translate(0.24565)"/><path class="cls-2" d="M847.43251,89.66651h14.8391V165.838h17.7055v12.1091h-32.5446Z" transform="translate(0.24565)"/></svg>