<svg id="Layer_1" data-name="Layer 1" xmlns="http://www.w3.org/2000/svg" viewBox="0 0 1079.96519 1080"><defs><style>.cls-1{fill:#edbb26;}.cls-2{fill:#fff;}</style></defs><rect class="cls-1" width="1079.96519" height="1080"/><polygon class="cls-2" points="110.779 120.392 167.315 120.392 118.477 308.264 154.793 308.264 202.642 124.24 202.642 90.512 110.779 90.512 110.779 120.392"/><path class="cls-2" d="M540.12139,523.26284A158.29264,158.29264,0,1,0,698.38713,681.54361,158.27829,158.27829,0,0,0,540.12139,523.26284m-11.72266,62.52742c0-5.26843,5.29137-11.07,11.78436-11.07,6.48587,0,11.73057,5.8016,11.73057,11.07v54.34712c0,5.23758-5.2447,10.9846-11.73057,10.9846-6.493,0-11.78436-5.747-11.78436-10.9846Zm11.7456,176.8603a82.33862,82.33862,0,0,1-24.465-160.95375v30.65342a53.89133,53.89133,0,1,0,48.79153-.06962V601.65805a82.33394,82.33394,0,0,1-24.32655,160.99251" transform="translate(0.26465)"/><path class="cls-2" d="M358.42615,680.16085c0-7.17646-6.35059-12.99309-12.15931-12.99309H276.945c-5.84432,0-12.25582,5.81663-12.25582,12.99309,0,7.19228,6.4115,13.04055,12.25582,13.04055h69.32181c5.80872,0,12.15931-5.84827,12.15931-13.04055" transform="translate(0.26465)"/><path class="cls-2" d="M815.62,680.16085c0-7.17646-6.35772-12.99309-12.16328-12.99309H734.14285c-5.83641,0-12.25266,5.81663-12.25266,12.99309,0,7.19228,6.41625,13.04055,12.25266,13.04055h69.31389c5.80556,0,12.16328-5.84827,12.16328-13.04055" transform="translate(0.26465)"/><path class="cls-2" d="M540.18309,498.4577c7.16143,0,12.982-6.35771,12.982-12.1514V416.97263c0-5.84748-5.82059-12.25187-12.982-12.25187-7.18437,0-13.04372,6.40439-13.04372,12.25187V486.3063c0,5.79369,5.85935,12.1514,13.04372,12.1514" transform="translate(0.26465)"/><path class="cls-2" d="M540.18309,955.64049c7.16143,0,12.982-6.3585,12.982-12.16011V874.17045c0-5.84037-5.82059-12.25979-12.982-12.25979-7.18437,0-13.04372,6.41942-13.04372,12.25979v69.30993c0,5.80161,5.85935,12.16011,13.04372,12.16011" transform="translate(0.26465)"/><path class="cls-2" d="M382.43944,589.89268c3.57716-6.23431.94611-14.43044-4.10162-17.31226L318.182,538.14972c-5.07146-2.91267-13.52705-1.0434-17.09234,5.17588-3.56924,6.24934-.90734,14.508,4.16412,17.41984L365.41355,595.169c5.0327,2.88182,13.45349.96588,17.02589-5.27634" transform="translate(0.26465)"/><path class="cls-2" d="M779.24569,816.989c3.55421-6.21849.935-14.43044-4.10163-17.31226L714.98823,765.246c-5.07146-2.89685-13.535-1.04261-17.09235,5.19882-3.56845,6.2264-.91129,14.5,4.16412,17.38978l60.15584,34.4307c5.03665,2.88182,13.45349.96588,17.02985-5.27634" transform="translate(0.26465)"/><path class="cls-2" d="M630.45205,522.475c6.22244,3.55421,14.41462.92712,17.3083-4.10162l34.42675-60.15584c2.90871-5.08333,1.05052-13.53418-5.17984-17.10342-6.23826-3.57715-14.508-.90418-17.41272,4.17124L625.1678,505.43323c-2.88182,5.04457-.97379,13.47327,5.28425,17.04172" transform="translate(0.26465)"/><path class="cls-2" d="M403.3518,919.278c6.22244,3.55342,14.42648.92712,17.31146-4.11033l34.43149-60.14792c2.90081-5.07542,1.03154-13.54209-5.19565-17.10342-6.2264-3.56924-14.50717-.90339-17.40085,4.16412l-34.4228,60.15583c-2.88577,5.02875-.96983,13.46457,5.27635,17.04172" transform="translate(0.26465)"/><path class="cls-2" d="M449.58663,522.63c6.21849-3.57716,8.09171-11.98213,5.19487-17.01878l-34.55016-60.09413c-2.92848-5.06751-11.14755-7.72466-17.37395-4.13248-6.25014,3.57636-8.10754,12.05886-5.18379,17.11845l34.547,60.0791c2.9008,5.02875,11.11275,7.63211,17.366,4.04784" transform="translate(0.26465)"/><path class="cls-2" d="M677.49376,918.96873c6.21928-3.57637,8.08855-11.98924,5.20673-17.01878l-34.55411-60.08622c-2.92374-5.06751-11.15942-7.73257-17.37791-4.1483-6.24222,3.57716-8.11149,12.05886-5.17983,17.13427l34.543,60.0791c2.88973,5.02875,11.12462,7.6242,17.36209,4.03993" transform="translate(0.26465)"/><path class="cls-2" d="M697.71473,589.60711c3.56925,6.21849,11.97817,8.09566,17.01482,5.20673L774.8,560.25894c5.07542-2.91979,7.75235-11.15468,4.172-17.374-3.59218-6.23431-12.05885-8.11149-17.1311-5.19091l-60.08227,34.547c-5.03665,2.89685-7.63606,11.13965-4.04388,17.36605" transform="translate(0.26465)"/><path class="cls-2" d="M301.376,817.53006c3.57241,6.21058,11.98133,8.08775,17.014,5.183l60.07515-34.5462c5.07541-2.91267,7.75235-11.14756,4.15621-17.36684-3.56925-6.24143-12.05569-8.11069-17.11529-5.19882l-60.09018,34.5549c-5.03269,2.88894-7.625,11.13174-4.03992,17.374" transform="translate(0.26465)"/><path class="cls-2" d="M308.11975,90.14872h35.41241v12.10869H322.96391v25.25366H337.672v11.97817h-14.7081v26.81758h20.56825v12.10949H308.11975Z" transform="translate(0.26465)"/><path class="cls-2" d="M363.18831,122.957v55.45934H350.69279V90.14872h14.58153l16.01018,50.64181V90.14872h12.36816v88.26759H380.63584Z" transform="translate(0.26465)"/><path class="cls-2" d="M401.46671,90.14872h35.41161v12.10869h-20.5714v25.25366H431.019v11.97817H416.30692v26.81758h20.5714v12.10949H401.46671Z" transform="translate(0.26465)"/><path class="cls-2" d="M459.14259,137.92849v40.48782H444.30238V90.14872h21.60769c14.97073,0,20.44088,7.42406,20.44088,19.78747v11.3295c0,9.50137-3.38414,15.09888-11.85081,17.05279l14.19471,40.09783H473.07071Zm0-35.67108v27.467h4.94805c5.07542,0,7.28879-2.60337,7.28879-7.28879V109.41884c0-4.81674-2.21337-7.16143-7.28879-7.16143Z" transform="translate(0.26465)"/><path class="cls-2" d="M514.86377,131.28916h21.09034v47.12715H525.278v-9.63744c-1.95075,6.64013-6.11882,10.67609-14.19154,10.67609-12.7542,0-18.61355-10.15478-18.61355-23.82422V112.93033c0-13.79759,6.63933-23.82106,22.25952-23.82106,16.40492,0,21.22166,9.11217,21.22166,22.133v7.80614H522.41519v-8.98007c0-5.46619-2.08127-8.59086-7.42011-8.59086-5.338,0-7.68194,3.77413-7.68194,9.10821v47.38978c0,5.33409,2.21258,9.11534,7.292,9.11534,4.81278,0,7.28879-2.73468,7.28879-8.46271V143.0039h-7.03011Z" transform="translate(0.26465)"/><path class="cls-2" d="M542.46608,90.14872h14.8402v88.26759h-14.8402Z" transform="translate(0.26465)"/><path class="cls-2" d="M561.60093,178.41631l16.66754-88.26759H595.1939l16.791,88.26759H596.7507L594.02,162.27086h-15.7515l-2.60732,16.14545Zm18.61433-27.9923h11.85l-5.85539-35.41162h-.13132Z" transform="translate(0.26465)"/><path class="cls-2" d="M627.87162,90.14872h14.84021v76.1581h17.70541v12.10949H627.87162Z" transform="translate(0.26465)"/><path class="cls-2" d="M665.234,90.14872h14.84021v88.26759H665.234Z" transform="translate(0.26465)"/><path class="cls-2" d="M727.59133,121.13437h-.39l-10.02347,57.28194h-6.898L699.213,121.13437h-.26579v57.28194H686.71827V90.14872h17.31146l9.63348,49.73051h.13131l8.59008-49.73051h18.7496v88.26759H727.59133Z" transform="translate(0.26465)"/><path class="cls-2" d="M747.64222,90.14872h22.00559c14.96677,0,20.43692,7.42406,20.43692,19.78747v18.61829c0,12.36736-5.47015,19.91483-20.43692,19.91483h-7.16143v29.947H747.64222Zm14.84416,12.10869v34.75978h5.4654c5.07937,0,7.29275-2.476,7.29275-7.29274V109.41884c0-4.81674-2.21338-7.16143-7.29275-7.16143Z" transform="translate(0.26465)"/><path class="cls-2" d="M793.472,178.41631l16.6628-88.26759h16.926l16.79443,88.26759h-15.234l-2.73492-16.14545h-15.7515l-2.60337,16.14545Zm18.61749-27.9923h11.84606l-5.85935-35.41162h-.13131Z" transform="translate(0.26465)"/><path class="cls-2" d="M308.02324,220.16665H343.2537v12.04382H322.78988V257.336h14.63137v11.91646H322.78988v26.68231H343.2537v12.04383H308.02324Z" transform="translate(0.26465)"/><path class="cls-2" d="M358.53374,307.97859l16.57815-87.81194h16.84079L408.659,307.97859H393.50552l-2.71885-16.06081H375.11189l-2.59149,16.06081Zm18.521-27.84517h11.7891l-5.8285-35.23046H382.884Z" transform="translate(0.26465)"/><path class="cls-2" d="M412.80333,285.31326V242.83277c0-13.728,6.47716-23.70082,22.02062-23.70082,16.31948,0,20.84986,9.0655,20.84986,22.01666v10.35888H442.20529V239.98181c0-5.44247-1.81547-8.54815-7.12266-8.54815-5.31115,0-7.51266,3.75435-7.51266,9.0655v47.14692c0,5.30719,2.20151,9.06946,7.51266,9.06946,5.30719,0,7.12266-3.36832,7.12266-8.55211V271.97131h13.46852v15.15742c0,12.56118-5.17984,21.88535-20.84986,21.88535C419.28049,309.01408,412.80333,298.917,412.80333,285.31326Z" transform="translate(0.26465)"/><path class="cls-2" d="M461.76177,220.16665h35.23046v12.04382H476.52841V257.336h14.63533v11.91646H476.52841v26.68231h20.46382v12.04383H461.76177Z" transform="translate(0.26465)"/><path class="cls-2" d="M502.17207,289.06761V277.28246h13.73114v12.04778c0,4.92116,2.20151,7.77133,7.25,7.77133,4.66565,0,6.73663-3.10568,6.73663-7.77133v-3.36832c0-5.05247-2.071-8.15736-6.60531-12.43381l-8.67947-8.67867c-8.42-8.28948-12.30171-13.342-12.30171-23.44215V238.429c0-10.881,6.34585-19.297,20.7225-19.297,14.76664,0,20.59514,7.254,20.59514,19.94251v7.12188H530.14855v-7.64c0-5.05168-2.32966-7.51265-6.99531-7.51265-4.14434,0-6.99135,2.33282-6.99135,7.254v1.81547c0,4.92116,2.71965,7.76738,6.99135,11.91251l9.45549,9.32813c8.03,8.16132,11.91963,13.08248,11.91963,22.79269v4.27961c0,12.04383-6.47717,20.588-21.50248,20.588S502.17207,300.6012,502.17207,289.06761Z" transform="translate(0.26465)"/><path class="cls-2" d="M549.57688,289.06761V277.28246h13.73193v12.04778c0,4.92116,2.20151,7.77133,7.25,7.77133,4.66169,0,6.73584-3.10568,6.73584-7.77133v-3.36832c0-5.05247-2.07415-8.15736-6.60452-12.43381l-8.67947-8.67867c-8.42-8.28948-12.30645-13.342-12.30645-23.44215V238.429c0-10.881,6.34664-19.297,20.72724-19.297,14.76664,0,20.59514,7.254,20.59514,19.94251v7.12188H577.55415v-7.64c0-5.05168-2.33362-7.51265-6.99531-7.51265-4.14513,0-6.99531,2.33282-6.99531,7.254v1.81547c0,4.92116,2.72282,7.76738,6.99531,11.91251l9.45945,9.32813c8.02605,8.16132,11.91567,13.08248,11.91567,22.79269v4.27961c0,12.04383-6.47717,20.588-21.50248,20.588C555.40538,309.01408,549.57688,300.6012,549.57688,289.06761Z" transform="translate(0.26465)"/><path class="cls-2" d="M617.18762,213.94816l-23.18347,2.97832V208.637l23.18347-4.92511Zm-19.42833,6.21849H612.5291v87.81194H597.75929Z" transform="translate(0.26465)"/><path class="cls-2" d="M666.4087,220.16665l-16.70947,87.81194H633.63447L616.929,220.16665h15.02531l10.101,61.26094h.13448l10.35967-61.26094Z" transform="translate(0.26465)"/><path class="cls-2" d="M670.54908,220.16665h35.23047v12.04382H685.31572V257.336h14.63533v11.91646H685.31572v26.68231h20.46383v12.04383H670.54908Z" transform="translate(0.26465)"/><path class="cls-2" d="M711.7362,220.16665h14.76663v75.76811h17.61286v12.04383H711.7362Z" transform="translate(0.26465)"/></svg>