<svg id="Layer_1" data-name="Layer 1" xmlns="http://www.w3.org/2000/svg" viewBox="0 0 1079.96994 1080"><defs><style>.cls-1{fill:#992041;}.cls-2{fill:#fff;}</style></defs><rect class="cls-1" width="1079.96994" height="1080"/><path class="cls-2" d="M209.57648,254.9853V231.2108c0-20.87368-7.37742-35.96867-24.40813-43.68229,14.43841-7.04913,21.19406-19.89593,21.19406-37.88066v-9.007c0-34.04878-17.65961-52.346-51.384-52.346-33.39219,0-50.74645,18.2972-50.74645,52.346v9.007c0,17.6604,6.43527,30.83153,20.54539,37.88066-17.01489,7.71362-24.0838,22.80861-24.0838,43.68229v23.7745c0,33.08289,15.74841,56.204,54.28486,56.204,38.84655,0,54.59812-23.12108,54.59812-56.204M138.59,138.41164c0-13.187,4.51141-20.90058,16.38837-20.90058,12.19418,0,16.70638,7.71362,16.70638,20.90058v14.75563c0,13.16718-4.5122,20.89267-16.70638,20.89267-11.877,0-16.38837-7.72549-16.38837-20.89267Zm34.36915,120.42849c0,13.16718-4.82072,22.48428-17.98078,22.48428-12.85867,0-17.66356-9.3171-17.66356-22.48428v-35.339c0-13.164,4.80489-22.47241,17.66356-22.47241,13.16006,0,17.98078,9.30839,17.98078,22.47241Z" transform="translate(0.26702)"/><path class="cls-2" d="M744.63866,531.34186,634.87524,635.75535c-4.15623,4.12538-6.2731,7.16146-6.2731,15.68987V944.1063a6.26113,6.26113,0,0,0,6.2731,6.24225H748.25776a6.24757,6.24757,0,0,0,6.24541-6.24225V533.969c0-3.44585-2.70779-9.7498-9.86451-2.6271" transform="translate(0.26702)"/><path class="cls-2" d="M428.404,667.38269,318.62479,771.79619c-4.13645,4.12537-6.2644,7.15355-6.2644,15.66693V944.1063a6.26474,6.26474,0,0,0,6.2644,6.23434H432.01523a6.2525,6.2525,0,0,0,6.25016-6.23434V670.0011c0-3.453-2.71966-9.772-9.86135-2.61841" transform="translate(0.26702)"/><path class="cls-2" d="M794.53156,404.70276a3.07668,3.07668,0,0,0-.939-2.3716,3.264,3.264,0,0,0-2.01565-.89627l-.61067.03877-.89629.04667L706.0239,420.49309l-1.53308.14714a3.3764,3.3764,0,0,0-1.63828.86542,3.19555,3.19555,0,0,0,0,4.51853l.94294.95085,19.20059,19.18873L532.5359,636.62868l-87.9634-87.97449a2.51271,2.51271,0,0,0-3.58824,0L417.12512,572.5331c-.019,0-.019.02294-.019.02294L276.09033,713.54021a2.57367,2.57367,0,0,0,0,3.5922l23.90581,23.87892a2.48044,2.48044,0,0,0,3.54948,0L442.8037,601.796l63.83688,63.83294a1.071,1.071,0,0,0,.197.30931l23.88287,23.83936a2.485,2.485,0,0,0,3.57638,0L750.45532,473.627l20.16252,20.13958a3.12907,3.12907,0,0,0,4.48056,0,3.08628,3.08628,0,0,0,.90418-2.06229l.02294-.27054,18.45937-85.80383Z" transform="translate(0.26702)"/><path class="cls-2" d="M587.14114,685.70679l-53.11091,53.55076a2.54242,2.54242,0,0,1-3.41819-.13132L482.488,690.079c-8.8029-8.77522-10.71094-1.66043-10.71094,1.78463V944.09918a6.23121,6.23121,0,0,0,6.21458,6.24146H591.42077a6.25617,6.25617,0,0,0,6.22645-6.24146V687.68444c0-3.44586-2.71178-9.77987-10.50608-1.97765" transform="translate(0.26702)"/><path class="cls-2" d="M274.87763,83.679h39.44855V95.78462H302.08533v76.15844H287.11769V95.78462H274.87763Z" transform="translate(0.26702)"/><path class="cls-2" d="M336.97658,131.45507v40.488H322.1363V83.679h21.611c14.97159,0,20.441,7.42014,20.441,19.78835v11.3248c0,9.50616-3.38731,15.10291-11.84611,17.05366L366.529,171.94306H350.90476Zm0-35.67045V123.251h4.94807c5.07544,0,7.288-2.59942,7.288-7.28486V102.94529c0-4.81676-2.21259-7.16067-7.288-7.16067Z" transform="translate(0.26702)"/><path class="cls-2" d="M370.701,171.94306l16.66287-88.264h16.9255l16.791,88.264H405.85015l-2.73469-16.14156H387.36389l-2.60338,16.14156Zm18.61362-27.98847h11.85007l-5.85938-35.41177H395.174Z" transform="translate(0.26702)"/><path class="cls-2" d="M428.11452,83.679h21.47963c14.83631,0,19.78437,6.89883,19.78437,19.39757v8.98089c0,7.42409-2.73072,12.10954-8.84956,14.0595,7.42012,1.696,11.063,6.64015,11.063,14.71291V152.5455c0,12.49478-5.59753,19.39756-20.437,19.39756H428.11452ZM442.954,120.91025h5.20675c4.81676,0,7.03014-2.47206,7.03014-7.16067V102.94529c0-4.81676-2.21338-7.16067-7.16146-7.16067H442.954Zm0,11.32955v27.59768h6.50883c4.94412,0,7.28882-2.476,7.28882-7.16067v-13.2803c0-4.68861-2.21338-7.15671-7.42013-7.15671Z" transform="translate(0.26702)"/><path class="cls-2" d="M477.58655,171.94306l16.65892-88.264h16.92629l16.79419,88.264H512.73569L510.001,155.8015H494.24547l-2.59942,16.14156Zm18.61363-27.98847h11.85006l-5.85937-35.41177h-.13132Z" transform="translate(0.26702)"/><path class="cls-2" d="M535.00005,83.679h14.84027v76.15844h17.70549v12.10558H535.00005Z" transform="translate(0.26702)"/><path class="cls-2" d="M604.39177,133.01978h-14.3229v38.92328H575.2286V83.679h14.84027v37.36252h14.3229V83.679h14.96684v88.264H604.39177Z" transform="translate(0.26702)"/><path class="cls-2" d="M628.73741,149.16135V106.46076c0-13.80161,6.76751-23.82117,22.39172-23.82117,15.7516,0,22.52225,10.01956,22.52225,23.82117v42.70059c0,13.6695-6.77065,23.82433-22.52225,23.82433C635.50492,172.98568,628.73741,162.83085,628.73741,149.16135Zm30.07451,2.3447v-47.39c0-5.33412-2.34472-9.11221-7.68279-9.11221-5.20675,0-7.55145,3.77809-7.55145,9.11221v47.39c0,5.33411,2.3447,9.11221,7.55145,9.11221C656.4672,160.61826,658.81192,156.84016,658.81192,151.506Z" transform="translate(0.26702)"/><path class="cls-2" d="M742.00048,107.37206V148.25c0,13.54214-5.59754,23.693-21.48042,23.693H697.60782V83.679h22.91224C736.40294,83.679,742.00048,93.70255,742.00048,107.37206Zm-23.303,52.46542c6.11805,0,8.46275-3.646,8.46275-8.98406v-46.216c0-5.20676-2.3447-8.85275-8.46275-8.85275h-6.24621v64.05286Z" transform="translate(0.26702)"/><path class="cls-2" d="M751.37849,83.679h35.41256V95.78462H766.21876v25.25694h14.71291v11.97822H766.21876v26.8177h20.57229v12.10558H751.37849Z" transform="translate(0.26702)"/><path class="cls-2" d="M795.787,149.16135V106.46076c0-13.80161,6.50805-23.82117,22.13226-23.82117,16.405,0,20.96228,9.11221,20.96228,22.12909v10.41351H825.33936V103.5987c0-5.47017-1.8226-8.59485-7.16146-8.59485-5.33411,0-7.54749,3.77809-7.54749,9.11221v47.39c0,5.33411,2.21338,9.11221,7.54749,9.11221,5.33886,0,7.16146-3.38415,7.16146-8.59486V135.75052h13.54215v15.23026c0,12.63085-5.21071,22.0049-20.96228,22.0049C802.295,172.98568,795.787,162.83085,795.787,149.16135Z" transform="translate(0.26702)"/><path class="cls-2" d="M845.0043,83.679h35.40782V95.78462h-20.5715v25.25694h14.71212v11.97822H859.84062v26.8177h20.5715v12.10558H845.0043Z" transform="translate(0.26702)"/><path class="cls-2" d="M898.89917,116.48427v55.45879H886.4036V83.679h14.5808l16.01025,50.642V83.679h12.36821v88.264H916.342Z" transform="translate(0.26702)"/><path class="cls-2" d="M934.18358,83.679h39.44459V95.78462H961.39209v76.15844H946.41652V95.78462H934.18358Z" transform="translate(0.26702)"/><path class="cls-2" d="M978.57229,83.679h35.41651V95.78462H993.41651v25.25694h14.709v11.97822h-14.709v26.8177h20.57229v12.10558H978.57229Z" transform="translate(0.26702)"/><path class="cls-2" d="M269.8022,206.58276h35.40465v12.10558H284.64168v25.25773h14.709V255.9235h-14.709v26.8177h20.56517v12.10953H269.8022Z" transform="translate(0.26702)"/><path class="cls-2" d="M323.83234,272.06506V229.36447c0-13.79686,6.508-23.82433,22.1283-23.82433,16.401,0,20.95832,9.11538,20.95832,22.13226v10.4135H353.38473V226.49846c0-5.46542-1.82339-8.5909-7.16542-8.5909-5.33411,0-7.54749,3.77414-7.54749,9.11221v47.39c0,5.33411,2.21338,9.11221,7.54749,9.11221,5.342,0,7.16542-3.38415,7.16542-8.5909V258.65819H366.919v15.23026c0,12.62689-5.20675,21.99778-20.95832,21.99778C330.34038,295.88623,323.83234,285.73536,323.83234,272.06506Z" transform="translate(0.26702)"/><path class="cls-2" d="M388.40255,254.35957v40.49116H373.56307v-88.268h21.611c14.97158,0,20.43306,7.42013,20.43306,19.78834v11.32481c0,9.5022-3.38336,15.1029-11.84295,17.05365l14.1916,40.10117H402.33152Zm0-35.67123v27.47032h4.94807c5.07544,0,7.28882-2.60338,7.28882-7.292V225.8498c0-4.81676-2.21338-7.16146-7.28882-7.16146Z" transform="translate(0.26702)"/><path class="cls-2" d="M422.25435,206.58276H457.663v12.10558H437.09462v25.25773h14.71291V255.9235H437.09462v26.8177H457.663v12.10953h-35.4086Z" transform="translate(0.26702)"/><path class="cls-2" d="M463.395,275.8392V263.9923h13.80159v12.10954c0,4.94807,2.21259,7.81012,7.288,7.81012,4.6894,0,6.77146-3.12468,6.77146-7.81012v-3.38336c0-5.0794-2.08206-8.20408-6.64329-12.49953l-8.72224-8.72539c-8.4588-8.33222-12.36819-13.40766-12.36819-23.55853v-2.99337c0-10.93877,6.38145-19.40152,20.8349-19.40152,14.84027,0,20.69569,7.292,20.69569,20.05019v7.16146H491.51473V225.069c0-5.07544-2.34074-7.55145-7.03014-7.55145-4.16728,0-7.02935,2.3447-7.02935,7.28882v1.82339c0,4.94808,2.73469,7.81013,7.02935,11.97743l9.50222,9.37484c8.07274,8.20012,11.9782,13.1482,11.9782,22.913v4.29546c0,12.10478-6.51279,20.69569-21.60778,20.69569C469.25512,295.88623,463.395,287.42664,463.395,275.8392Z" transform="translate(0.26702)"/><path class="cls-2" d="M512.21833,272.06506V229.36447c0-13.79686,6.50884-23.82433,22.133-23.82433,16.40024,0,20.95437,9.11538,20.95437,22.13226v10.4135H541.76756V226.49846c0-5.46542-1.81943-8.5909-7.1575-8.5909s-7.55145,3.77414-7.55145,9.11221v47.39c0,5.33411,2.21338,9.11221,7.55145,9.11221s7.1575-3.38415,7.1575-8.5909V258.65819h13.53819v15.23026c0,12.62689-5.20675,21.99778-20.95437,21.99778C518.72717,295.88623,512.21833,285.73536,512.21833,272.06506Z" transform="translate(0.26702)"/><path class="cls-2" d="M561.94907,206.58276h14.84422v88.268H561.94907Z" transform="translate(0.26702)"/><path class="cls-2" d="M624.70063,237.56855h-.39l-10.02351,57.28218h-6.902l-11.063-57.28218h-.26659v57.28218H583.82344v-88.268h17.31549l9.62957,49.72677h.13131l8.59407-49.72677h18.74969v88.268H624.70063Z" transform="translate(0.26702)"/><path class="cls-2" d="M645.27292,206.58276h35.4086v12.10558H660.11717v25.25773H674.8261V255.9235H660.11717v26.8177h20.56435v12.10953h-35.4086Z" transform="translate(0.26702)"/><path class="cls-2" d="M699.56569,239.388v55.46275H687.06616v-88.268h14.58162L717.658,257.22558V206.58276h12.36822v88.268H717.00538Z" transform="translate(0.26702)"/><path class="cls-2" d="M735.36428,206.58276h39.44857v12.10558H762.57593v76.16239h-14.9708V218.68834H735.36428Z" transform="translate(0.26702)"/><path class="cls-2" d="M780.28221,272.06506V229.36447c0-13.79686,6.77147-23.82433,22.39175-23.82433,15.75154,0,22.51906,10.02747,22.51906,23.82433v42.70059c0,13.6703-6.76752,23.82117-22.51906,23.82117C787.05368,295.88623,780.28221,285.73536,780.28221,272.06506Zm30.07054,2.3447v-47.39c0-5.33807-2.34075-9.11221-7.67879-9.11221-5.20678,0-7.55148,3.77414-7.55148,9.11221v47.39c0,5.33411,2.3447,9.11221,7.55148,9.11221C808.012,283.522,810.35275,279.74387,810.35275,274.40976Z" transform="translate(0.26702)"/><path class="cls-2" d="M269.8022,327.4044h35.40465V339.51H284.64168v25.25378h14.709v11.98217h-14.709v26.81375h20.56517v12.1127H269.8022Z" transform="translate(0.26702)"/><path class="cls-2" d="M311.20149,392.88354V350.18612c0-13.79687,6.50805-23.82433,22.1283-23.82433,16.405,0,20.95833,9.11616,20.95833,22.133v10.41351H340.74993V347.32011c0-5.46938-1.81944-8.59011-7.1575-8.59011s-7.55146,3.77731-7.55146,9.11537V395.2322c0,5.33807,2.21339,9.10746,7.55146,9.10746s7.1575-3.38336,7.1575-8.59011V379.48063h13.53819v15.23342c0,12.62294-5.2028,21.99382-20.95833,21.99382C317.70954,416.70787,311.20149,406.557,311.20149,392.88354Z" transform="translate(0.26702)"/><path class="cls-2" d="M360.41487,392.88354V350.18612c0-13.79687,6.76672-23.82433,22.39093-23.82433,15.75158,0,22.51909,10.02746,22.51909,23.82433v42.69742c0,13.67346-6.76751,23.82433-22.51909,23.82433C367.18159,416.70787,360.41487,406.557,360.41487,392.88354Zm30.06975,2.34866V347.84537c0-5.33806-2.34075-9.11537-7.67882-9.11537-5.2107,0-7.55145,3.77731-7.55145,9.11537V395.2322c0,5.33807,2.34075,9.10746,7.55145,9.10746C388.14387,404.33966,390.48462,400.57027,390.48462,395.2322Z" transform="translate(0.26702)"/><path class="cls-2" d="M424.33642,360.21359v55.45879H411.84084v-88.268h14.57764l16.01421,50.63887V327.4044h12.36425v88.268H441.78006Z" transform="translate(0.26702)"/><path class="cls-2" d="M461.3129,392.88354V350.18612c0-13.79687,6.77145-23.82433,22.38775-23.82433,15.75157,0,22.523,10.02746,22.523,23.82433v42.69742c0,13.67346-6.77147,23.82433-22.523,23.82433C468.08435,416.70787,461.3129,406.557,461.3129,392.88354Zm9.76086-68.73118V316.9909l9.37484-6.898h6.50805l9.37484,6.898v7.16146L483.832,320.37505Zm20.30966,71.07984V347.84537c0-5.33806-2.34073-9.11537-7.68277-9.11537-5.20675,0-7.55145,3.77731-7.55145,9.11537V395.2322c0,5.33807,2.3447,9.10746,7.55145,9.10746C489.04269,404.33966,491.38342,400.57027,491.38342,395.2322Z" transform="translate(0.26702)"/><path class="cls-2" d="M553.61367,358.39019h-.39l-10.02351,57.28219h-6.90278l-11.06218-57.28219h-.26261v57.28219H512.73569v-88.268H530.052l9.62957,49.72757h.13134l8.594-49.72757h18.7489v88.268H553.61367Z" transform="translate(0.26702)"/><path class="cls-2" d="M573.66861,327.4044H588.512v88.268H573.66861Z" transform="translate(0.26702)"/><path class="cls-2" d="M595.14824,392.88354V350.18612c0-13.79687,6.50884-23.82433,22.12909-23.82433,16.4042,0,20.95833,9.11616,20.95833,22.133v10.41351h-13.535V347.32011c0-5.46938-1.8226-8.59011-7.16462-8.59011-5.33411,0-7.5475,3.77731-7.5475,9.11537V395.2322c0,5.33807,2.21339,9.10746,7.5475,9.10746,5.342,0,7.16462-3.38336,7.16462-8.59011V379.48063h13.535v15.23342c0,12.62294-5.2028,21.99382-20.95833,21.99382C601.65708,416.70787,595.14824,406.557,595.14824,392.88354Z" transform="translate(0.26702)"/><path class="cls-2" d="M644.36162,392.88354V350.18612c0-13.79687,6.76751-23.82433,22.39172-23.82433,15.75157,0,22.51829,10.02746,22.51829,23.82433v42.69742c0,13.67346-6.76672,23.82433-22.51829,23.82433C651.12913,416.70787,644.36162,406.557,644.36162,392.88354Zm30.07449,2.34866V347.84537c0-5.33806-2.3447-9.11537-7.68277-9.11537-5.20675,0-7.55145,3.77731-7.55145,9.11537V395.2322c0,5.33807,2.3447,9.10746,7.55145,9.10746C672.09141,404.33966,674.43611,400.57027,674.43611,395.2322Z" transform="translate(0.26702)"/></svg>