<svg id="Layer_1" data-name="Layer 1" xmlns="http://www.w3.org/2000/svg" viewBox="0 0 1079.97308 1080"><defs><style>.cls-1{fill:#e46830;}.cls-2{fill:#fff;}</style></defs><rect class="cls-1" width="1079.97308" height="1080"/><path class="cls-2" d="M197.53952,145.30377c0-33.71662-14.77861-58.09793-53.29619-58.09793-38.85062,0-53.918,21.17118-53.918,54.88385v32.106c0,35.63653,14.11017,53.60154,40.44856,53.60154,15.40435,0,24.70565-7.065,30.16318-17.64463h.31722v46.84983c0,13.16406-5.14507,22.47644-18.29726,22.47644-13.1601,0-17.97292-7.70574-17.97292-21.18622V243.86214H91.59185V255.4148c0,32.09416,11.56453,54.55952,52.01784,54.55952,38.50255,0,53.92983-24.71276,53.92983-58.7387Zm-36.2852,33.38439c-.64946,12.19026-5.77475,19.896-17.32821,19.896-12.50272,0-17.33928-7.70573-17.33928-21.83093V138.8764c0-13.7977,5.13008-21.81985,17.6565-21.81985,12.19817,0,17.011,8.34332,17.011,21.81985Z" transform="translate(0.26859)"/><path class="cls-2" d="M815.60621,709.85437l-128.38534-74.0845V487.53838a8.7582,8.7582,0,0,0-4.37615-7.58628L550.118,403.318a8.81889,8.81889,0,0,0-8.76022,0L408.61927,479.9521a8.74532,8.74532,0,0,0-4.38011,7.58628V635.76987l-128.36635,74.0845a8.76357,8.76357,0,0,0-4.38011,7.58628v153.299a8.77508,8.77508,0,0,0,4.38011,7.5934l132.74646,76.61906a8.74364,8.74364,0,0,0,8.75231,0L545.734,880.85183l128.35449,74.10032a8.83777,8.83777,0,0,0,4.38011,1.17393,8.69275,8.69275,0,0,0,4.37615-1.17393l132.76149-76.61906a8.76184,8.76184,0,0,0,4.369-7.5934v-153.299a8.7599,8.7599,0,0,0-4.369-7.58628M536.97776,855.56713,430.50087,794.08977l106.47689-61.47735ZM660.94418,640.82159,554.49023,702.276V579.33712ZM536.97776,702.276,430.51269,640.81447l106.46507-61.47735Zm26.28455,15.17256,115.20626-66.51483,115.241,66.50692-115.241,66.537Zm106.446-91.79874-106.446-61.47735,106.446-61.46232ZM528.2167,564.17247l-106.465,61.47735V502.71015ZM404.23916,932.19331,289.006,865.67927V732.61242l115.23315,66.53777Zm17.51257,0v-122.931l106.465,61.47735Zm380.72213-66.514-115.253,66.514V799.15019l115.253-66.53777Z" transform="translate(0.26859)"/><path class="cls-2" d="M254.594,92.21247h14.1521V176.4012H254.594Z" transform="translate(0.26859)"/><path class="cls-2" d="M286.99751,123.50291V176.4012H275.077V92.21247h13.90924l15.26511,48.30143V92.21247H316.0445V176.4012H303.62958Z" transform="translate(0.26859)"/><path class="cls-2" d="M364.58562,114.80835v38.993c0,12.9125-5.33413,22.59984-20.47979,22.59984H322.25512V92.21247h21.85071C359.25149,92.21247,364.58562,101.77245,364.58562,114.80835Zm-22.21776,50.04414c5.8325,0,8.06883-3.47672,8.06883-8.57115V112.205c0-4.96708-2.23633-8.44379-8.06883-8.44379H336.408v61.09131Z" transform="translate(0.26859)"/><path class="cls-2" d="M411.8911,92.21247v63.70181c0,13.03591-5.58964,21.4797-19.98933,21.4797-14.89807,0-21.10157-8.44379-21.10157-21.4797V92.21247h14.14893v65.0656c0,4.96708,1.98556,8.3196,6.95264,8.3196,4.96317,0,6.95264-3.35252,6.95264-8.3196V92.21247Zm-8.69139-5.96065L380.978,89.10676V81.16134l22.22171-4.72027Z" transform="translate(0.26859)"/><path class="cls-2" d="M417.3605,158.27007v-11.298h13.15931v11.5495c0,4.71631,2.11293,7.44706,6.95264,7.44706,4.4695,0,6.459-2.98231,6.459-7.44706v-3.22911c0-4.84763-1.98952-7.826-6.33477-11.92367l-8.31648-8.32039c-8.07279-7.94542-11.79631-12.78909-11.79631-22.47248V109.721c0-10.42856,6.08326-18.50134,19.86513-18.50134,14.15289,0,19.73778,6.95659,19.73778,19.12v6.8324h-12.9125v-7.32681c0-4.84367-2.23237-7.2042-6.70187-7.2042-3.97034,0-6.705,2.23633-6.705,6.95264v1.74192c0,4.71631,2.60734,7.451,6.705,11.42214l9.06557,8.9382c7.6947,7.82123,11.41818,12.54149,11.41818,21.85466v4.0977c0,11.5495-6.20741,19.74569-20.60716,19.74569C422.9454,177.394,417.3605,169.3212,417.3605,158.27007Z" transform="translate(0.26859)"/><path class="cls-2" d="M458.82953,92.21247h37.6134v11.54871H484.774v72.64H470.49452v-72.64h-11.665Z" transform="translate(0.26859)"/><path class="cls-2" d="M515.31607,137.78315v38.618H501.16319V92.21247H521.7743c14.27233,0,19.487,7.08,19.487,18.87235v10.80353c0,9.06557-3.22911,14.40365-11.29478,16.26581l13.52716,38.247H528.59958Zm0-34.022v26.2h4.71631c4.83972,0,6.9566-2.4871,6.9566-6.95264V110.59041c0-4.59686-2.11688-6.82923-6.9566-6.82923Z" transform="translate(0.26859)"/><path class="cls-2" d="M543.996,92.21247h14.15605V176.4012H543.996Z" transform="translate(0.26859)"/><path class="cls-2" d="M562.25055,176.4012l15.88689-84.18873h16.14161l16.01029,84.18873h-14.5231L593.159,161.00477H578.13744l-2.48,15.39643Zm17.74825-26.69833h11.29874l-5.58964-33.77438h-.1194Z" transform="translate(0.26859)"/><path class="cls-2" d="M628.78753,163.98311l-7.19946,18.99656h-7.94146l1.734-20.1167h13.40692Z" transform="translate(0.26859)"/><path class="cls-2" d="M646.17348,92.21247h14.15209V176.4012H646.17348Z" transform="translate(0.26859)"/><path class="cls-2" d="M678.57694,123.50291V176.4012H666.65649V92.21247h13.90522l15.26913,48.30143V92.21247h11.7923V176.4012H695.209Z" transform="translate(0.26859)"/><path class="cls-2" d="M713.83456,154.67074V113.94293c0-13.16327,6.45427-22.72324,21.35233-22.72324,15.02153,0,21.47659,9.56,21.47659,22.72324v40.72781c0,13.0359-6.45506,22.72324-21.47659,22.72324C720.28883,177.394,713.83456,167.70664,713.83456,154.67074Zm28.676,2.23237V111.7066c0-5.09048-2.23238-8.6906-7.32365-8.6906-4.96312,0-7.19939,3.60012-7.19939,8.6906v45.19651c0,5.09048,2.23627,8.69456,7.19939,8.69456C740.27816,165.59767,742.51054,161.99359,742.51054,156.90311Z" transform="translate(0.26859)"/><path class="cls-2" d="M808.18289,92.21247,792.1718,176.4012H776.77537L760.76118,92.21247h14.39963l9.68418,58.73078h.12736l9.9302-58.73078Z" transform="translate(0.26859)"/><path class="cls-2" d="M809.9248,176.4012l15.89085-84.18873h16.13766l16.01425,84.18873h-14.5231l-2.60734-15.39643H825.81565l-2.48393,15.39643ZM827.681,149.70287h11.294l-5.5849-33.77438h-.12736Z" transform="translate(0.26859)"/><path class="cls-2" d="M876.96813,184.96839c3.97027-.12736,4.592-.99594,4.592-1.98872,0-.86938-.74518-1.36379-1.98478-1.36379h-.62573v-4.59607c-12.03594-1.49115-17.0038-10.55276-17.0038-22.34907V113.94293c0-13.16327,6.20739-22.72324,21.10552-22.72324,15.64,0,19.98532,8.6906,19.98532,21.10473v9.93494H890.12737V111.20823c0-5.21468-1.738-8.19223-6.82844-8.19223-5.09127,0-7.2042,3.60012-7.2042,8.6906v45.19651c0,5.09048,2.11293,8.69456,7.2042,8.69456,5.09048,0,6.82844-3.22911,6.82844-8.19619V141.88164h12.90934V156.4087c0,11.79235-4.71631,20.48691-18.74579,20.98528v1.11619c3.35331.49441,5.21468,1.73875,5.21468,4.4695,0,3.85088-3.60012,5.96381-12.53747,5.96381Z" transform="translate(0.26859)"/><path class="cls-2" d="M906.64,176.4012l15.89085-84.18873h16.13844l16.01425,84.18873H940.15964l-2.60654-15.39643H922.53084l-2.48315,15.39643Zm11.05113-87.542c.2476-5.83646,2.48-10.55276,8.68744-10.55276,3.60329,0,6.57768,2.109,8.4399,2.109a1.66742,1.66742,0,0,0,1.74185-1.86137H943.509c-.2476,5.83645-2.48,10.55276-8.69054,10.55276-3.59623,0-6.57853-2.109-8.4399-2.109a1.66475,1.66475,0,0,0-1.73875,1.86137Zm6.70188,60.84371h11.29794l-5.58885-33.77438h-.12024Z" transform="translate(0.26859)"/><path class="cls-2" d="M958.66178,154.67074V113.94293c0-13.16327,6.45032-22.72324,21.34838-22.72324,15.02226,0,21.47653,9.56,21.47653,22.72324v40.72781c0,13.0359-6.45427,22.72324-21.47653,22.72324C965.1121,177.394,958.66178,167.70664,958.66178,154.67074Zm28.672,2.23237V111.7066c0-5.09048-2.23238-8.6906-7.32365-8.6906-4.96312,0-7.19945,3.60012-7.19945,8.6906v45.19651c0,5.09048,2.23633,8.69456,7.19945,8.69456C985.10143,165.59767,987.33381,161.99359,987.33381,156.90311Z" transform="translate(0.26859)"/><path class="cls-2" d="M254.594,221.95685h33.7633V233.5024h-19.6112v24.091h14.02552v11.41818H268.74614v25.58214h19.6112v11.54871H254.594Z" transform="translate(0.26859)"/><path class="cls-2" d="M307.60783,221.95685h14.15288v84.18557H307.60783Z" transform="translate(0.26859)"/><path class="cls-2" d="M341.25168,253.24413v52.89829H329.33117V221.95685h13.90607l15.26828,48.29827V221.95685h11.79235v84.18557H357.88375Z" transform="translate(0.26859)"/><path class="cls-2" d="M377.75289,221.95685h33.14548V233.5024H391.90572v24.091h14.14893v11.41818H391.90572v37.13085H377.75289Z" transform="translate(0.26859)"/><path class="cls-2" d="M430.6361,267.52437v38.61805H416.48326V221.95685h20.60716c14.28019,0,19.49487,7.07684,19.49487,18.86919v10.80749c0,9.06161-3.22912,14.39969-11.29873,16.26185l13.5311,38.247H443.9196Zm0-34.022v26.196h4.72026c4.83971,0,6.95264-2.48,6.95264-6.95264V240.33163c0-4.5929-2.11293-6.82923-6.95264-6.82923Z" transform="translate(0.26859)"/><path class="cls-2" d="M461.3016,306.14242l15.89-84.18557h16.1424l16.01425,84.18557h-14.527L492.21787,290.746H477.19165l-2.47919,15.39643Zm17.75617-26.69833h11.29794l-5.5849-33.77438h-.12815Z" transform="translate(0.26859)"/><path class="cls-2" d="M514.567,221.95685H548.3334V233.5024H528.71908v24.091h14.02943v11.41818H528.71908v25.58214H548.3334v11.54871H514.567Z" transform="translate(0.26859)"/><path class="cls-2" d="M554.42067,288.01129V276.71334h13.15609v11.54555c0,4.71947,2.109,7.455,6.9527,7.455,4.4695,0,6.45422-2.9823,6.45422-7.455v-3.22912c0-4.8405-1.98472-7.822-6.33008-11.91655l-8.31643-8.31959c-8.07278-7.94542-11.79631-12.793-11.79631-22.47643v-2.855c0-10.42856,6.08722-18.50214,19.86118-18.50214,14.15294,0,19.74174,6.95344,19.74174,19.12392v6.82923h-12.9125v-7.3276c0-4.83972-2.23232-7.19945-6.70182-7.19945-3.97435,0-6.70114,2.23237-6.70114,6.95264v1.738c0,4.71631,2.60344,7.451,6.70114,11.42214l9.06155,8.94137c7.69862,7.822,11.41819,12.54228,11.41819,21.85466v4.09849c0,11.5495-6.20351,19.73777-20.60716,19.73777C560.0063,307.13124,554.42067,299.06637,554.42067,288.01129Z" transform="translate(0.26859)"/><path class="cls-2" d="M600.10363,221.95685h37.61815V233.5024H626.04887v72.64H611.77264v-72.64h-11.669Z" transform="translate(0.26859)"/><path class="cls-2" d="M657.83452,267.52437v38.61805H643.68163V221.95685h20.60716c14.27629,0,19.491,7.07684,19.491,18.86919v10.80749c0,9.06161-3.22515,14.39969-11.29477,16.26185l13.52715,38.247H671.11407Zm0-34.022v26.196h4.72026c4.83972,0,6.94869-2.48,6.94869-6.95264V240.33163c0-4.5929-2.109-6.82923-6.94869-6.82923Z" transform="translate(0.26859)"/><path class="cls-2" d="M731.82646,221.95685V285.6555c0,13.03195-5.58489,21.47574-19.98538,21.47574-14.89806,0-21.10467-8.44379-21.10467-21.47574V221.95685H704.8885v65.06561c0,4.95995,1.98946,8.31247,6.95258,8.31247,4.96391,0,6.94948-3.35252,6.94948-8.31247V221.95685Z" transform="translate(0.26859)"/><path class="cls-2" d="M737.54352,221.95685h37.61017V233.5024h-11.665v72.64H749.21241v-72.64H737.54352Z" transform="translate(0.26859)"/><path class="cls-2" d="M822.20762,221.95685V285.6555c0,13.03195-5.58569,21.47574-19.98538,21.47574-14.89411,0-21.10078-8.44379-21.10078-21.47574V221.95685H795.2696v65.06561c0,4.95995,1.98952,8.31247,6.95264,8.31247,4.96786,0,6.95264-3.35252,6.95264-8.31247V221.95685Z" transform="translate(0.26859)"/><path class="cls-2" d="M843.68731,267.52437v38.61805H829.53522V221.95685h20.61032c14.27635,0,19.487,7.07684,19.487,18.86919v10.80749c0,9.06161-3.2251,14.39969-11.29393,16.26185l13.53026,38.247H856.97477Zm0-34.022v26.196h4.72027c4.83971,0,6.95264-2.48,6.95264-6.95264V240.33163c0-4.5929-2.11293-6.82923-6.95264-6.82923Z" transform="translate(0.26859)"/><path class="cls-2" d="M874.48017,306.14242,890.371,221.95685h16.14161l16.01109,84.18557H907.99983L905.39644,290.746H890.371l-2.48393,15.39643Zm17.753-26.69833h11.29794l-5.58569-33.77438h-.1234Z" transform="translate(0.26859)"/></svg>